<svg id="Layer_1" data-name="Layer 1" xmlns="http://www.w3.org/2000/svg" viewBox="0 0 197.09 183.9"><defs><style>.cls-1{fill:#ef932f;}.cls-2{fill:#61302f;}.cls-3,.cls-6{fill:#fff;}.cls-3{opacity:0.15;}.cls-4{fill:#512929;}.cls-5{fill:none;stroke:#623334;stroke-linecap:round;stroke-linejoin:round;stroke-width:0.75px;}</style></defs><path class="cls-1" d="M500.2,1945.69c23.41-18.28,7.08-49.49,7.08-49.49-6.74-12.55-23-21.4-23-21.4-12.91-7.17-37.49-9.62-37.49-9.62l-3.16-4.22-1.68-3.58c1.46-5.27-4.17-16.89-4.17-16.89-13.05-20.64-40.57-27.78-40.57-27.78-22.67-6.09-38.46,6-38.46,6A103.73,103.73,0,0,0,328,1855.49c-7.43,12.81-11.2,46.5-11.2,46.5-3.46,29.28,7,58.8,7,58.8,8.51,21.72,24.26,28.78,24.26,28.78,13.51,9,45.22,1.84,45.22,1.84,6.73-.2,48.18-11.82,48.18-11.82,17-3.56,45.7-22.13,45.7-22.13C490.52,1956,500.2,1945.69,500.2,1945.69Zm-81.06-25c-9.32,7.19-21.8,6.89-21.8,6.89l-7.87-6.27a22.85,22.85,0,0,1-3.56-3.35,14.61,14.61,0,0,1-.76-3.29c-1-14.21,11.34-20.57,11.34-20.57,7.94-3.65,10.45,10,10.45,10a13.81,13.81,0,0,1,12.63,1.72C431.5,1914.29,419.14,1920.73,419.14,1920.73Z" transform="translate(-315.98 -1810.55)"/><path class="cls-2" d="M500.08,1946.72c21.77-19.85,10.08-45.61,7.2-50.52-7.75-13.22-23.23-18-23.23-18-5.59-2.6-17.1-5.21-27.36-8.21a33.78,33.78,0,0,1-9.94-4.78l-3.16-4.22-1.68-3.58c-2.61-8.13-4.75-10.3-7.19-13.26-14.41-17.51-21.09-19.85-33.19-24-19.42-6.71-37.83-.42-47.59,5.55-23,14-25.91,29.84-25.91,29.84-7.43,12.81-11.2,46.5-11.2,46.5-3.46,29.28,7,58.8,7,58.8,8.51,21.72,24.26,28.78,24.26,28.78,13.51,9,45.22,1.84,45.22,1.84,6.73-.2,48.18-11.82,48.18-11.82,17-3.56,45.7-22.13,45.7-22.13C490.52,1956,496.83,1949.68,500.08,1946.72Zm-80.48-26a31.59,31.59,0,0,1-9.68,4.93,41.23,41.23,0,0,1-12.64,2.11l-.36-.29a91.16,91.16,0,0,1-9.06-1.68c-1.65-.52-3.43-.71-5.36-2.63-3-2.92-2.53-8.47-2.53-8.47,3.19-13.62,6.09-20.49,12.73-22.52,17.12-5.24,14.69,11.94,14.69,11.94a13.82,13.82,0,0,1,12.63,1.71C432,1914.28,419.6,1920.73,419.6,1920.73Z" transform="translate(-315.98 -1810.55)"/><path class="cls-3" d="M483.54,1951.27c5.83-5.39,9.82-12.54,13.93-19a12.08,12.08,0,0,0,1.52-2.51c.29-1,.33-2,.67-3,6.68-19.31-.79-38.58-20.7-45.49-9-3.13-18.44-3.74-28.36-4.16-2-.08-5,0-6.78-.73-2.32-1-2.7-3.08-3.4-5.24-4.91-15.14-11.67-29.14-28.64-35.58A80.62,80.62,0,0,0,391.9,1831c-.44-.11-.89-.21-1.33-.29a28.14,28.14,0,0,0-7.2-.21c-4.29,0-9.28.68-13.15,3.06a53.86,53.86,0,0,0-25.38,19.8,101.91,101.91,0,0,0-18.68,60.81c.47,21.73,5.79,42.71,25.14,56.66,8.81,6.35,19.45,7.12,30.56,7.14,12.33,0,23.7,0,35.87-2.8,15.46-3.63,32-6,46.53-12.23C471.27,1959.9,478.06,1956.33,483.54,1951.27Zm-66.93,7.78c-10.05,1.22-17.17,2.45-27.31,3.24-7.76.6-12.81-2.79-20.27-5-7-2.11-11.43-10-14.58-15.53-3.86-6.83-4.77-15.69-5.29-23.35-1.07-15.85-1.4-29.91,6.85-44.38,4-7,10.81-18.78,19.22-20.11,2.15-.35,9.52-1.81,11.86-1.38,6.36,1.14,8.89,4.47,14.07,7.85,10.31,6.72,9.2,19.2,14.85,28.55,3.68,6.09,9.38,10.23,16.91,12.3,5.9,1.62,12.44,1.37,18.47,2.68,4.58,1,9.61,2.06,13.65,4.29,6.22,3.44,9.92,7,12.07,10.71a15.64,15.64,0,0,1-1.52,18.38c-8.69,10.11-21.09,12.46-26.43,14.32A153.69,153.69,0,0,1,416.61,1959.05Z" transform="translate(-315.98 -1810.55)"/><path class="cls-4" d="M330.56,1856.07c-10.14,18.6-12.55,40.92-12.71,61.47-.1,11.3.78,22.93,4.15,33.86,2.37,7.68,4.68,17,9.77,23.55,17.34,22.33,37.07,18.31,57.4,16.77,5.34-.4,10.24-1.77,15.42-2.83,5.42-1.11,10.8-1.39,16.11-3,10.39-3.14,26.45-6.15,31.85-15.44,1.53-2.64,3.11-4.81-.44-5.68-10.38-2.56-15.53,7.32-33.2,8.64-9.8.73-18.05,1-27.43,3.68-15.76,4.58-41.25,4.45-49.45-10.92-8.76-16.43-11.53-34.53-11.46-52.57,0-9.47-.58-18.91,0-28.38s2.07-18.9,2.86-28.36c.12-1.33-2.17-2.08-2.86-.8Z" transform="translate(-315.98 -1810.55)"/><path class="cls-4" d="M375.93,1912.63c5.85-7.83,7.22-20.54,18.95-23.49,2.63-.66,6.39-.54,8.75.92,3.51,2.18,3.35,2.94,3.7,5.64.47,3.74,1.77,6.54,5.63,7.9,4.39,1.55,8,2.46,10.35,6.55s1.91,8.82-2.16,11.63c-7.14,4.93-18.89,8.31-29.22,7.81a1.58,1.58,0,0,0-.6,3.09c12,4.58,32.06,4.87,41.18-4.86,9.68-10.33,4.58-26.17-7.79-32.66-2.08-1.1-5.87-1.2-7.55-2.27-2.32-1.47-3.78-5-6.27-6.76a21.41,21.41,0,0,0-17.63-3.68c-13.62,3.25-21.92,18.36-17.59,30.15a.15.15,0,0,0,.25,0Z" transform="translate(-315.98 -1810.55)"/><path class="cls-5" d="M340.45,1984.46c-12.46-10.36-18.36-24.78-21.21-39.74a160.43,160.43,0,0,1,2.06-69.83c3.09-12.07,6.61-23.7,14.51-33.85,6.64-8.54,16.68-15.51,27.61-19.85,1.11-.44,4.5-1.61,4.5-1.61,14.72-4.39,29.13-2.52,42.82,4.05a62.14,62.14,0,0,1,30,30.9c1.62,3.74,2.94,7.76,6,10.65,3.46,3.23,8.55,4.48,13.37,5.64,15.35,3.7,31.43,8.29,41.93,19,11.39,11.64,13,29.56,7.85,43.69,0,0-1.2,2.6-1.6,3.21-10.27,15.8-29.81,27.86-49.47,36.33s-40.91,13.47-62.19,17.69c-9.1,1.8-18.31,3.47-27.62,3.3s-18-1.75-25.3-6.92Z" transform="translate(-315.98 -1810.55)"/><path class="cls-5" d="M447.1,1865.12c12.25,1.11,24.49,3.66,35.39,8.82s20.07,13.54,25.26,23.6" transform="translate(-315.98 -1810.55)"/><path class="cls-5" d="M442.09,1857.8a36.34,36.34,0,0,0-9.94-25.09,61.83,61.83,0,0,0-13-10.14,81.92,81.92,0,0,0-21.36-9.69,49.62,49.62,0,0,0-23.69-.92c-7.9,1.79-15,5.92-20.94,10.9s-9.76,9.38-14.74,15.19" transform="translate(-315.98 -1810.55)"/><path class="cls-5" d="M406.7,1904.38a6.6,6.6,0,0,0,1.06-5,9.42,9.42,0,0,0-3.05-5.84c-3.54-3.07-9.52-2.85-13.65-.45s-6.68,6.49-8.36,10.65a40.26,40.26,0,0,0-2.69,10.61c-.4,3.56-.16,5.85,2.45,8.53a10.25,10.25,0,0,0,3,2.18c5.77,2.54,11,3,17.34,2.42,6.94-.69,12.85-3.85,18.17-7.92a10.23,10.23,0,0,0,3.09-3.31c1.26-2.52.24-5.56-1.63-7.74-3.55-4.13-10.19-5.85-15.63-4" transform="translate(-315.98 -1810.55)"/><path class="cls-5" d="M406.7,1904.38a20.64,20.64,0,0,0-2.28-7,7.06,7.06,0,0,0-3-3.22c-2.8-1.33-6.2.33-8.47,2.31a22.42,22.42,0,0,0-7.83,16.87,9.48,9.48,0,0,0,1.1,4.81,13.1,13.1,0,0,0,2.77,3c2.49,2.15,5.62,4.56,8.34,6.47" transform="translate(-315.98 -1810.55)"/><path class="cls-5" d="M346.12,1834.29a113.45,113.45,0,0,0-18.39,22.26" transform="translate(-315.98 -1810.55)"/><path class="cls-5" d="M334.62,1862.56a73.13,73.13,0,0,0-12,10.41" transform="translate(-315.98 -1810.55)"/><path class="cls-5" d="M338,1856.28a60.69,60.69,0,0,0-13.12,9" transform="translate(-315.98 -1810.55)"/><path class="cls-5" d="M339.37,1852.8a31,31,0,0,0-13.5,7.3" transform="translate(-315.98 -1810.55)"/><path class="cls-5" d="M341.45,1846.09a26.1,26.1,0,0,0-11.26,6.57" transform="translate(-315.98 -1810.55)"/><path class="cls-5" d="M327.2,1871.24a18.36,18.36,0,0,0-6,4.79" transform="translate(-315.98 -1810.55)"/><path class="cls-5" d="M327,1875.46a24.37,24.37,0,0,0-6.94,5.61" transform="translate(-315.98 -1810.55)"/><path class="cls-5" d="M322.34,1872.71l1-.83" transform="translate(-315.98 -1810.55)"/><path class="cls-5" d="M325.41,1879.72a22.08,22.08,0,0,0-6.18,4.38" transform="translate(-315.98 -1810.55)"/><path class="cls-5" d="M326.73,1882.89a27,27,0,0,0-8.4,7.11" transform="translate(-315.98 -1810.55)"/><path class="cls-5" d="M327.77,1886.1a44.33,44.33,0,0,0-9.8,8.29" transform="translate(-315.98 -1810.55)"/><path class="cls-5" d="M327.33,1890.81a32.42,32.42,0,0,0-9.85,7.1" transform="translate(-315.98 -1810.55)"/><path class="cls-5" d="M328.38,1894.29a43.48,43.48,0,0,0-11.55,7.7" transform="translate(-315.98 -1810.55)"/><path class="cls-5" d="M328.49,1898.88a88,88,0,0,0-11.35,6.3" transform="translate(-315.98 -1810.55)"/><path class="cls-5" d="M328,1902.06a43,43,0,0,0-11.42,7.39" transform="translate(-315.98 -1810.55)"/><path class="cls-5" d="M323.9,1907.16a101.9,101.9,0,0,0-7.15,7.41" transform="translate(-315.98 -1810.55)"/><path class="cls-5" d="M324.35,1914.89a20.18,20.18,0,0,0-6.84,5.72" transform="translate(-315.98 -1810.55)"/><path class="cls-5" d="M327.64,1915.94l.21,0a29.16,29.16,0,0,0-11,7.55" transform="translate(-315.98 -1810.55)"/><path class="cls-5" d="M328.94,1920.49a68,68,0,0,0-11.83,7" transform="translate(-315.98 -1810.55)"/><path class="cls-5" d="M328.49,1925.15a45.13,45.13,0,0,0-10.68,7.37" transform="translate(-315.98 -1810.55)"/><path class="cls-5" d="M327.81,1928.91a79.67,79.67,0,0,0-9.91,6.7" transform="translate(-315.98 -1810.55)"/><path class="cls-5" d="M328.22,1933.33a87.84,87.84,0,0,0-9.48,7.51" transform="translate(-315.98 -1810.55)"/><path class="cls-5" d="M325.21,1938.42a42.78,42.78,0,0,0-6,4.93" transform="translate(-315.98 -1810.55)"/><path class="cls-5" d="M342.71,1845.18a105.86,105.86,0,0,0-8.66,17.71" transform="translate(-315.98 -1810.55)"/><path class="cls-5" d="M338.25,1845.5c-4.76,7.83-7.53,16.49-10.26,25.07" transform="translate(-315.98 -1810.55)"/><path class="cls-5" d="M333.56,1847.7a142.64,142.64,0,0,0-13.83,62.68" transform="translate(-315.98 -1810.55)"/><path class="cls-5" d="M326,1876.9a172,172,0,0,0-2.12,29.28" transform="translate(-315.98 -1810.55)"/><path class="cls-5" d="M327.75,1883.93a82.73,82.73,0,0,0-2.41,22.47" transform="translate(-315.98 -1810.55)"/><path class="cls-5" d="M329.15,1892.56q-1,5.45-1.47,11" transform="translate(-315.98 -1810.55)"/><path class="cls-5" d="M319.29,1911.23l-.33,7.67c-.29,6.62-.54,13.44,2.06,19.64" transform="translate(-315.98 -1810.55)"/><path class="cls-5" d="M322.45,1909.62A93.91,93.91,0,0,0,323.5,1938" transform="translate(-315.98 -1810.55)"/><path class="cls-5" d="M325.57,1909.91a112.92,112.92,0,0,0-.08,23.25" transform="translate(-315.98 -1810.55)"/><path class="cls-5" d="M328.09,1919.45c-.06,4.2.06,8.41.36,12.6" transform="translate(-315.98 -1810.55)"/><path class="cls-5" d="M321.45,1943.65a58.93,58.93,0,0,0,7.57,23.76" transform="translate(-315.98 -1810.55)"/><path class="cls-5" d="M323.79,1945.14a65.11,65.11,0,0,0,5,17,34.94,34.94,0,0,0,3.44,6.38" transform="translate(-315.98 -1810.55)"/><path class="cls-5" d="M325.23,1943.78a115.38,115.38,0,0,1,3.6,11" transform="translate(-315.98 -1810.55)"/><path class="cls-5" d="M327.92,1941.83q1.59,5.22,3.19,10.44" transform="translate(-315.98 -1810.55)"/><path class="cls-5" d="M320.18,1948.16a41,41,0,0,0,7.64-5" transform="translate(-315.98 -1810.55)"/><path class="cls-5" d="M321.56,1949.84l7.53-3.6" transform="translate(-315.98 -1810.55)"/><path class="cls-5" d="M322,1954.63l8.89-4.74" transform="translate(-315.98 -1810.55)"/><path class="cls-5" d="M323.52,1958.09a14.66,14.66,0,0,0,5.87-2.42" transform="translate(-315.98 -1810.55)"/><path class="cls-5" d="M325.3,1961.94a74,74,0,0,0,7.68-4.2" transform="translate(-315.98 -1810.55)"/><path class="cls-5" d="M327.45,1965.59a15.5,15.5,0,0,0,4.81-2.35" transform="translate(-315.98 -1810.55)"/><path class="cls-5" d="M327.92,1968.57a117.75,117.75,0,0,0,11.2-5.55" transform="translate(-315.98 -1810.55)"/><path class="cls-5" d="M330.31,1972.29l10.35-7.37" transform="translate(-315.98 -1810.55)"/><path class="cls-5" d="M331.61,1975a46.15,46.15,0,0,0,11.22-9.07" transform="translate(-315.98 -1810.55)"/><path class="cls-5" d="M333.83,1977.23a90.87,90.87,0,0,0,9.59-5.94" transform="translate(-315.98 -1810.55)"/><path class="cls-5" d="M336.36,1980.06q5-3.24,9.7-6.92" transform="translate(-315.98 -1810.55)"/><path class="cls-5" d="M338.92,1981.87a74.12,74.12,0,0,0,7.14-5.07" transform="translate(-315.98 -1810.55)"/><path class="cls-5" d="M353,1974.1l-11.46,9.47" transform="translate(-315.98 -1810.55)"/><path class="cls-5" d="M343.16,1986.31l9.93-8.45" transform="translate(-315.98 -1810.55)"/><path class="cls-5" d="M345.32,1987.81c.63.3,1.36-.14,1.9-.56,2.23-1.76,4.4-3.6,6.48-5.52" transform="translate(-315.98 -1810.55)"/><path class="cls-5" d="M348.73,1989.66a52,52,0,0,0,6.31-5.5" transform="translate(-315.98 -1810.55)"/><path class="cls-5" d="M352.17,1991.21l8.07-7.06" transform="translate(-315.98 -1810.55)"/><path class="cls-5" d="M356.37,1992.09a44.55,44.55,0,0,0,7.25-5.72" transform="translate(-315.98 -1810.55)"/><path class="cls-5" d="M360,1992.68a54,54,0,0,0,6.95-6" transform="translate(-315.98 -1810.55)"/><path class="cls-5" d="M362.47,1993.65q4.08-3.11,7.94-6.47" transform="translate(-315.98 -1810.55)"/><path class="cls-5" d="M367.69,1993.63l5.51-5.91" transform="translate(-315.98 -1810.55)"/><path class="cls-5" d="M372.65,1993.41a70.53,70.53,0,0,0,6.8-7.59" transform="translate(-315.98 -1810.55)"/><path class="cls-5" d="M377.55,1993.46l6.77-7.25" transform="translate(-315.98 -1810.55)"/><path class="cls-5" d="M383,1993a100,100,0,0,0,8-8.27" transform="translate(-315.98 -1810.55)"/><path class="cls-5" d="M390.16,1991.58a38.89,38.89,0,0,0,7.22-8.24" transform="translate(-315.98 -1810.55)"/><path class="cls-5" d="M394.5,1990.75l8.91-10.64" transform="translate(-315.98 -1810.55)"/><path class="cls-5" d="M398.7,1990.11a68.44,68.44,0,0,0,10-11.4" transform="translate(-315.98 -1810.55)"/><path class="cls-5" d="M405.6,1988.52q3-4.21,6-8.42" transform="translate(-315.98 -1810.55)"/><path class="cls-5" d="M410,1988.05a119.27,119.27,0,0,0,8.1-11.41" transform="translate(-315.98 -1810.55)"/><path class="cls-5" d="M416.61,1986.09a85.3,85.3,0,0,0,6-10.15" transform="translate(-315.98 -1810.55)"/><path class="cls-5" d="M422.59,1984.69l7.14-12" transform="translate(-315.98 -1810.55)"/><path class="cls-5" d="M426.92,1983.1a82.31,82.31,0,0,0,5.37-11.51" transform="translate(-315.98 -1810.55)"/><path class="cls-5" d="M430.34,1982.76l7.24-11.48" transform="translate(-315.98 -1810.55)"/><path class="cls-5" d="M331.09,1971.73a105.85,105.85,0,0,0,12.35,10.94" transform="translate(-315.98 -1810.55)"/><path class="cls-5" d="M333.43,1968.8a55.07,55.07,0,0,0,14.78,14.64" transform="translate(-315.98 -1810.55)"/><path class="cls-5" d="M337.75,1969.25c4.86,5.64,9.89,11.42,16.76,15" transform="translate(-315.98 -1810.55)"/><path class="cls-5" d="M346.16,1984.56a84.45,84.45,0,0,0,27.15,7.45" transform="translate(-315.98 -1810.55)"/><path class="cls-5" d="M361.12,1986.17a12.64,12.64,0,0,0,4.95,2.12,76.85,76.85,0,0,0,23,2.34" transform="translate(-315.98 -1810.55)"/><path class="cls-5" d="M379.74,1988.55a336.61,336.61,0,0,0,48.52-9.71" transform="translate(-315.98 -1810.55)"/><path class="cls-5" d="M393.65,1988.84a369.36,369.36,0,0,0,42.12-8.46" transform="translate(-315.98 -1810.55)"/><path class="cls-5" d="M406.25,1981.89l19.83-4.67" transform="translate(-315.98 -1810.55)"/><path class="cls-5" d="M428.35,1974.45a53.59,53.59,0,0,0,13.89-3" transform="translate(-315.98 -1810.55)"/><path class="cls-5" d="M430.33,1978.15l19.74-5" transform="translate(-315.98 -1810.55)"/><path class="cls-5" d="M435.31,1979c5.09-1.09,10.14-2.39,15.1-3.88" transform="translate(-315.98 -1810.55)"/><path class="cls-5" d="M442.74,1971.47a32.23,32.23,0,0,1-.05,6.66" transform="translate(-315.98 -1810.55)"/><path class="cls-5" d="M446.35,1970.92a29.89,29.89,0,0,1-1.09,7.14" transform="translate(-315.98 -1810.55)"/><path class="cls-5" d="M450.55,1969.5a17.12,17.12,0,0,1-1,6.6" transform="translate(-315.98 -1810.55)"/><path class="cls-5" d="M454.13,1969.32l.63,3.86" transform="translate(-315.98 -1810.55)"/><path class="cls-5" d="M460.2,1964.47q.07,3.75.14,7.52" transform="translate(-315.98 -1810.55)"/><path class="cls-5" d="M465.5,1960.66q-.25,4.35-.53,8.72" transform="translate(-315.98 -1810.55)"/><path class="cls-5" d="M470.61,1959.81a.54.54,0,0,1,.34-.61,30.4,30.4,0,0,1,0,7.8" transform="translate(-315.98 -1810.55)"/><path class="cls-5" d="M473.91,1959.74a.6.6,0,0,1,.55-.66,28.09,28.09,0,0,1,.29,5.26" transform="translate(-315.98 -1810.55)"/><path class="cls-5" d="M476.88,1958.31a1.18,1.18,0,0,1,.42-.68,15.52,15.52,0,0,1,.25,4.9" transform="translate(-315.98 -1810.55)"/><path class="cls-5" d="M479.66,1957.36a.75.75,0,0,1,.49-.67,16.45,16.45,0,0,1,.75,4" transform="translate(-315.98 -1810.55)"/><path class="cls-5" d="M482.81,1956.44l.45-.65.54,3.14" transform="translate(-315.98 -1810.55)"/><path class="cls-5" d="M487.15,1953.54a3,3,0,0,1,.49,2.21" transform="translate(-315.98 -1810.55)"/><path class="cls-5" d="M456.26,1970.2q11.92-4.32,23.43-9.47" transform="translate(-315.98 -1810.55)"/><path class="cls-5" d="M461.21,1965.24q10.56-3.9,20.78-8.48" transform="translate(-315.98 -1810.55)"/><path class="cls-5" d="M453.15,1973.27a205.9,205.9,0,0,0,21.34-8.1" transform="translate(-315.98 -1810.55)"/><path class="cls-5" d="M397,1874.16c-1.4,5.25-2.81,10.69-1.69,16" transform="translate(-315.98 -1810.55)"/><path class="cls-5" d="M400.54,1875a65.68,65.68,0,0,0-1.86,10c-.22,2.07-.31,4.27.8,6.09" transform="translate(-315.98 -1810.55)"/><path class="cls-5" d="M404.7,1877.16a85.59,85.59,0,0,0-3.43,13.84" transform="translate(-315.98 -1810.55)"/><path class="cls-5" d="M408,1882a24.39,24.39,0,0,0-3.69,10.38" transform="translate(-315.98 -1810.55)"/><path class="cls-5" d="M406.73,1895.26c1.15-2.35,1.79-4.87,2.76-7.28a14.06,14.06,0,0,1,4.51-6.42" transform="translate(-315.98 -1810.55)"/><path class="cls-5" d="M407.77,1898a60.11,60.11,0,0,1,10.67-10.59" transform="translate(-315.98 -1810.55)"/><path class="cls-5" d="M389.85,1886.34q1.35,2.69,2.9,5.28" transform="translate(-315.98 -1810.55)"/><path class="cls-5" d="M407.1,1903.28a2.32,2.32,0,0,0,1.9-.82l10.78-9.73" transform="translate(-315.98 -1810.55)"/><path class="cls-5" d="M411.31,1903.42a77.61,77.61,0,0,0,11-8.6" transform="translate(-315.98 -1810.55)"/><path class="cls-5" d="M416,1904a57.49,57.49,0,0,0,10.49-9.79" transform="translate(-315.98 -1810.55)"/><path class="cls-5" d="M419.93,1906.41A59.14,59.14,0,0,0,429.7,1893" transform="translate(-315.98 -1810.55)"/><path class="cls-5" d="M423.07,1908.72a92.81,92.81,0,0,0,10-14.25" transform="translate(-315.98 -1810.55)"/><path class="cls-5" d="M424.58,1911.7a67.54,67.54,0,0,1,8.69-7.54" transform="translate(-315.98 -1810.55)"/><path class="cls-5" d="M424.67,1914.73l7.79-5.52" transform="translate(-315.98 -1810.55)"/><path class="cls-5" d="M424,1917A52,52,0,0,0,433,1913" transform="translate(-315.98 -1810.55)"/><path class="cls-5" d="M419.4,1921.19l12.09-3.73" transform="translate(-315.98 -1810.55)"/><path class="cls-5" d="M436.14,1905.91a16.84,16.84,0,0,1,1.1,6.61" transform="translate(-315.98 -1810.55)"/><path class="cls-5" d="M432.87,1906.08a37.87,37.87,0,0,1,1.74,7.38" transform="translate(-315.98 -1810.55)"/><path class="cls-5" d="M428.64,1903a30.37,30.37,0,0,1,3.48,13.7" transform="translate(-315.98 -1810.55)"/><path class="cls-5" d="M424.86,1900.75a31.23,31.23,0,0,1,4,17.21" transform="translate(-315.98 -1810.55)"/><path class="cls-5" d="M419.32,1898.58a53.39,53.39,0,0,1,5.7,7.68" transform="translate(-315.98 -1810.55)"/><path class="cls-5" d="M409.34,1898.49a12.86,12.86,0,0,1,3.91,4" transform="translate(-315.98 -1810.55)"/><path class="cls-5" d="M408.06,1892.42c-.17-.06-.05-.33.14-.33a.63.63,0,0,1,.44.27l8,9.09" transform="translate(-315.98 -1810.55)"/><path class="cls-5" d="M410.68,1887.91a101.53,101.53,0,0,1,8.28,12.66" transform="translate(-315.98 -1810.55)"/><path class="cls-5" d="M413.6,1885.87c-.09-.23-.18-.46-.28-.68l8.6,12.22" transform="translate(-315.98 -1810.55)"/><path class="cls-5" d="M392.5,1887.75a89.15,89.15,0,0,1,15.43,2.7" transform="translate(-315.98 -1810.55)"/><path class="cls-5" d="M394.41,1884.52a56.33,56.33,0,0,1,13,3.5" transform="translate(-315.98 -1810.55)"/><path class="cls-5" d="M394.53,1880.67c-.09.11-.28-.09-.18-.2s.29-.09.44-.06a107.61,107.61,0,0,1,14,3.67" transform="translate(-315.98 -1810.55)"/><path class="cls-5" d="M394.23,1874.79l9,2.94" transform="translate(-315.98 -1810.55)"/><path class="cls-5" d="M386.56,1890.34a6.74,6.74,0,0,1,3.54,2.17" transform="translate(-315.98 -1810.55)"/><path class="cls-6" d="M500.08,1946.72a1.35,1.35,0,0,0,.27-2c-14.94-17.1-87.06-54-107-63.15-18.85-8.69-38.34-17.67-52.82-33.06-2-2.16-2.37-4.71-.84-6.34,3.35-3.57,15.42-3.41,38.39,8.82L510,1925.76a1.7,1.7,0,0,0,2.19-.5,1.37,1.37,0,0,0-.56-2l-131.9-74.8c-11.37-6-21-9.7-28.59-10.84-8.25-1.25-12.1.76-13.88,2.65a6.46,6.46,0,0,0-1.17,7,9.78,9.78,0,0,0,2,3.11c14.9,15.84,34.68,25,53.81,33.77,19.63,9.05,91.44,45.76,105.94,62.36A1.73,1.73,0,0,0,500.08,1946.72Z" transform="translate(-315.98 -1810.55)"/><path class="cls-6" d="M474.32,1965.78a1.38,1.38,0,0,0-.71-1.94c-20.24-9.08-51.92-30-66.09-37.31a1.69,1.69,0,0,0-2.18.54,1.3,1.3,0,0,0-.12,1.19,1.43,1.43,0,0,0,.71.77c14.23,7.36,46,28.29,66.25,37.4A1.69,1.69,0,0,0,474.32,1965.78Z" transform="translate(-315.98 -1810.55)"/><path class="cls-6" d="M379.91,1916.55a1.38,1.38,0,0,0-.7-1.94,515.84,515.84,0,0,1-51.74-28.06c-2.59-1.65-5.38-3.63-5.72-6.18-.41-3,2.93-5.76,6.39-6.62,8.5-2.11,17.13,3,23.44,6.66l2.15,1.26c6.64,3.78,22.57,11.7,31.54,15.41a1.67,1.67,0,0,0,2.13-.71,1.39,1.39,0,0,0-.79-1.91c-8.84-3.65-24.65-11.51-31.17-15.23-.67-.38-1.38-.8-2.11-1.23-6.82-4-16.16-9.49-26-7-4.7,1.17-9.35,5-8.72,9.74a7.29,7.29,0,0,0,1,2.75c1.34,2.27,3.77,4,6.08,5.44a519.72,519.72,0,0,0,52.13,28.28A1.7,1.7,0,0,0,379.91,1916.55Z" transform="translate(-315.98 -1810.55)"/><path class="cls-6" d="M487.7,1958a1.35,1.35,0,0,0,.09-2c-13.52-13.13-45.4-31.6-61.71-40.43a1.7,1.7,0,0,0-2.19.49,1.33,1.33,0,0,0-.14,1.23,1.49,1.49,0,0,0,.68.75c16.11,8.73,47.78,27.07,61,39.92A1.73,1.73,0,0,0,487.7,1958Z" transform="translate(-315.98 -1810.55)"/><path class="cls-6" d="M459.12,1973.17a1.45,1.45,0,0,0-1.32-1.65c-8.88-1.33-34.7-14.88-46.15-22-10.91-6.81-22.34-10.6-34.43-14.61-5.06-1.68-10.29-3.41-15.47-5.39-15.91-6.06-34.94-19.42-41.61-35.61a1.66,1.66,0,0,0-2.05-.85,1.41,1.41,0,0,0-1,1.83v0c7,17,26.82,31,43.36,37.26,5.25,2,10.52,3.75,15.61,5.44,11.9,3.94,23.14,7.67,33.71,14.27,11.85,7.4,38.1,21.1,47.46,22.5A1.59,1.59,0,0,0,459.12,1973.17Z" transform="translate(-315.98 -1810.55)"/><path class="cls-6" d="M414,1986.23a13,13,0,0,0-.94-4.07c-4.63-11.88-13.12-11.78-30.76-24.76-8.67-6.38-15.92-11.35-31-16.32-13.55-4.47-20-5-31.85-4.54a1.57,1.57,0,0,0-1.59,1.55,1.59,1.59,0,0,0,1.73,1.42c21.48-.85,42,6.5,60.61,20.19,27.21,20,30.14,18.35,30.49,26.65a1.59,1.59,0,0,0,1.72,1.43A1.57,1.57,0,0,0,414,1986.23Z" transform="translate(-315.98 -1810.55)"/><path class="cls-6" d="M399.29,1989.89a1.43,1.43,0,0,0-1.19-1.73c-7.79-1.66-16.23-6.64-24.4-11.45-4.46-2.63-8.68-5.11-12.82-7.11-4.4-2.12-9.86-4.39-15.13-6.58-9.6-4-21.55-9-22.55-11.53a1.64,1.64,0,0,0-2-.88,1.39,1.39,0,0,0-1,1.83c1.38,3.56,10.11,7.33,24.22,13.2,5.24,2.18,10.65,4.43,15,6.5,4,1.94,8.18,4.39,12.58,7,8.39,5,17.07,10.07,25.42,11.84A1.61,1.61,0,0,0,399.29,1989.89Z" transform="translate(-315.98 -1810.55)"/><path class="cls-6" d="M441.43,1861.75a1.36,1.36,0,0,0,.08-2.23c-9-6.5-20.86-20.34-36.43-26.92-13.94-5.89-32.49-7.72-42.18-11.13a2.49,2.49,0,0,0-2.74.85,1.32,1.32,0,0,0-.15,1.35,1.48,1.48,0,0,0,.86.73c9.65,3.4,28.21,5.24,42.12,11.12,15.31,6.47,26.85,20.16,35.61,26.48A2.44,2.44,0,0,0,441.43,1861.75Z" transform="translate(-315.98 -1810.55)"/><path class="cls-6" d="M512.16,1916.55a1.5,1.5,0,0,0,.64-2.23c-6.45-9-1.84-8.74-14.16-19.57-11.05-9.71-27.27-16.55-35.11-22.61a2.13,2.13,0,0,0-2.68.13,1.45,1.45,0,0,0-.48,1.32,1.49,1.49,0,0,0,.59,1c7.81,6,24,12.88,35.05,22.57,12.13,10.66,7.27,10.16,13.54,18.91A2.08,2.08,0,0,0,512.16,1916.55Z" transform="translate(-315.98 -1810.55)"/></svg>