<svg id="Layer_1" data-name="Layer 1" xmlns="http://www.w3.org/2000/svg" viewBox="0 0 707 707"><defs><style>.cls-1{fill:#fde6de;stroke:#ed2e7c;stroke-miterlimit:10;stroke-width:3px;}.cls-2{opacity:0.3;}.cls-3{fill:#630d0d;}.cls-4{fill:#ee5393;}.cls-5{opacity:0.55;}.cls-6{fill:#fff;}.cls-7{fill:#93324c;}.cls-8{font-size:75.54px;fill:#ec227d;font-family:Candyshop-Regular, Candyshop;}</style></defs><circle class="cls-1" cx="353.5" cy="353.5" r="352"/><g class="cls-2"><path class="cls-3" d="M1158.72,714.06a110.19,110.19,0,0,0-3.47-12.17.69.69,0,0,0,0-.13c-.39-1.12-.79-2.23-1.22-3.33a17.36,17.36,0,0,0-11.77-10.61,25.45,25.45,0,0,1-13.29-8.48,8.26,8.26,0,0,0-10-2.2,25.15,25.15,0,0,1-12,2.42,25.3,25.3,0,0,1-23.7-30.09,11.46,11.46,0,0,0-9.9-13.51,101.52,101.52,0,0,0-16.35-.56c-.38,0-.76,0-1.15,0a66.77,66.77,0,0,0-12.17,1.48l-.11,0a106.08,106.08,0,0,0-25.79,8.11c-18,8.3-33.69,21.33-46.76,38.76-13.95-18.55-31.43-32.51-50.78-40.52a102.65,102.65,0,0,0-59.5-6c-38.91,7.76-68.57,37.2-77.42,76.83-7.37,33,.31,66,23.47,100.65C833,854,879.59,896.81,949.15,945.57a38.2,38.2,0,0,0,43.74,0C1062.45,896.81,1109,854,1135.25,814.7,1158.41,780,1166.09,747.08,1158.72,714.06Z" transform="translate(-626.5 -477.5)"/></g><path class="cls-4" d="M1157.36,723.15C1151,773.88,1106.77,833.33,991,914.47a34.83,34.83,0,0,1-40,0C806.18,812.93,773.35,745.36,786.52,686.34,805.07,603.2,913,578.46,971,660.91c20.35-28.9,46.81-44.63,73.41-49.29a96.37,96.37,0,0,1,12.36-1.38,97.78,97.78,0,0,1,16.17.55,8.19,8.19,0,0,1,7.08,9.64,29.14,29.14,0,0,0-.49,6.9c0,.79.12,1.57.22,2.34a28.6,28.6,0,0,0,40.6,22,5,5,0,0,1,6,1.32,28.63,28.63,0,0,0,15,9.58,14.06,14.06,0,0,1,9.53,8.62c.4,1,.8,2.11,1.17,3.19.12.33.24.66.35,1,.54,1.6,1,3.21,1.52,4.86q.85,3,1.55,6.11A106.35,106.35,0,0,1,1157.36,723.15Z" transform="translate(-626.5 -477.5)"/><g class="cls-2"><path class="cls-3" d="M1158.19,710c0,.54,0,1.08,0,1.62s0,1.08,0,1.63,0,1.09-.06,1.63c0,.06,0,.12,0,.18,0,.49,0,1-.08,1.46s-.07,1-.11,1.54c0,.07,0,.14,0,.21,0,.52-.09,1-.14,1.55-.09,1-.2,1.94-.31,2.92,0,.13,0,.27-.05.4C1151,773.88,1106.77,833.33,991,914.47a34.83,34.83,0,0,1-40,0C809.34,815.15,774.84,748.33,785.72,690.23c-1.56,52.29,37.34,113.22,160.9,199.83a33.54,33.54,0,0,0,38.48,0c69.37-48.63,112.06-89.16,135.88-124.62h0c29-62.29,13.21-86.43,13.21-86.43a50.62,50.62,0,0,0,10.7-1c4.22-.94,5.31-2.21,5.31-2.21s.85-.19,2.24-.43c.15.45.3.9.44,1.35s.23.71.34,1.06.26.81.37,1.22.25.82.37,1.23q.85,3,1.55,6.11A108,108,0,0,1,1158.19,710Z" transform="translate(-626.5 -477.5)"/></g><g class="cls-5"><path class="cls-6" d="M959.8,646.93c-60-54.81-148.62-27.23-165.28,47.41-9,40.3,3.46,84.59,58.38,141-61.7-60.22-75.8-106.77-66.38-149C803.93,608.3,900.06,581.72,959.8,646.93Z" transform="translate(-626.5 -477.5)"/></g><g class="cls-5"><path class="cls-6" d="M1080.18,618.7a98.57,98.57,0,0,0-15.39-.46,96.37,96.37,0,0,0-12.36,1.38c-25.1,4.4-50.07,18.65-69.9,44.52a4.43,4.43,0,0,1-7,0q-1.77-2.29-3.58-4.47c20.22-28.09,46.3-43.43,72.51-48a96.37,96.37,0,0,1,12.36-1.38,97.78,97.78,0,0,1,16.17.55A8.2,8.2,0,0,1,1080.18,618.7Z" transform="translate(-626.5 -477.5)"/></g><g class="cls-5"><path class="cls-6" d="M971.92,659.65l-.9,1.26a139.67,139.67,0,0,0-11.22-14A129.17,129.17,0,0,1,971.92,659.65Z" transform="translate(-626.5 -477.5)"/></g><path class="cls-4" d="M1152.1,674.38c-10,8.27-22.43,4.55-30.57-4.06a8.74,8.74,0,0,0-9.21-2.31c-38.53,13.31-56.48-19.54-47.41-45.78a9.07,9.07,0,0,0-8.12-12,97.78,97.78,0,0,1,16.17.55,8.19,8.19,0,0,1,7.08,9.64,29.14,29.14,0,0,0-.49,6.9,28.6,28.6,0,0,0,40.82,24.34,5,5,0,0,1,6,1.32,28.63,28.63,0,0,0,15,9.58,14.06,14.06,0,0,1,9.53,8.62C1151.33,672.24,1151.73,673.3,1152.1,674.38Z" transform="translate(-626.5 -477.5)"/><g class="cls-2"><path class="cls-3" d="M1152.1,674.38c-10,8.27-22.43,4.55-30.57-4.06a8.74,8.74,0,0,0-9.21-2.31c-38.53,13.31-56.48-19.54-47.41-45.78a9.07,9.07,0,0,0-8.12-12,97.78,97.78,0,0,1,16.17.55,8.19,8.19,0,0,1,7.08,9.64,29.14,29.14,0,0,0-.49,6.9,28.6,28.6,0,0,0,40.82,24.34,5,5,0,0,1,6,1.32,28.63,28.63,0,0,0,15,9.58,14.06,14.06,0,0,1,9.53,8.62C1151.33,672.24,1151.73,673.3,1152.1,674.38Z" transform="translate(-626.5 -477.5)"/></g><path class="cls-3" d="M971,924a38.12,38.12,0,0,1-21.87-6.88C879.59,868.38,833,825.58,806.79,786.28c-23.16-34.71-30.84-67.63-23.47-100.65,8.85-39.63,38.51-69.07,77.42-76.83a102.65,102.65,0,0,1,59.5,6c19.36,8,36.83,22,50.78,40.52,13.07-17.43,28.78-30.46,46.76-38.76a103.8,103.8,0,0,1,55.57-9.05,11.46,11.46,0,0,1,9.9,13.51,25.29,25.29,0,0,0,23.7,30.08,25,25,0,0,0,12-2.41,8.25,8.25,0,0,1,10,2.19,25.46,25.46,0,0,0,13.29,8.49A17.36,17.36,0,0,1,1154,670a108.55,108.55,0,0,1,4.74,15.62c7.37,33-.31,65.94-23.47,100.65-26.23,39.3-72.8,82.1-142.36,130.87A38.09,38.09,0,0,1,971,924ZM880.85,613.34A95.89,95.89,0,0,0,862,615.22c-36.33,7.24-64,34.77-72.31,71.84-7.05,31.61.1,62,22.53,95.58C838,821.26,884,863.5,952.91,911.79a31.62,31.62,0,0,0,36.22,0h0C1058,863.5,1104,821.26,1129.8,782.64c22.43-33.59,29.59-64,22.53-95.58a101,101,0,0,0-4.45-14.68,10.8,10.8,0,0,0-7.29-6.64,32,32,0,0,1-16.73-10.68,1.74,1.74,0,0,0-2.09-.43,31.87,31.87,0,0,1-45-34.82,4.91,4.91,0,0,0-4.24-5.77c-37.33-4.38-74.3,13.85-98.88,48.76a3.28,3.28,0,0,1-5.36,0C945.94,631,914.2,613.34,880.85,613.34Z" transform="translate(-626.5 -477.5)"/><path class="cls-3" d="M1139.64,682.22c-7.12,0-14.47-3.29-20.49-9.65a5.41,5.41,0,0,0-5.75-1.47c-17.4,6-32.67,3.63-43-6.71s-13.89-27.82-8.57-43.23a5.79,5.79,0,0,0-5.69-7.66,60.7,60.7,0,0,0-10.95,1.31,3.28,3.28,0,0,1-1.49-6.38,66.85,66.85,0,0,1,12.17-1.47A12.34,12.34,0,0,1,1068,623.3c-4.53,13.09-1.71,27.74,7,36.46,8.48,8.47,21.35,10.3,36.25,5.16a12,12,0,0,1,12.65,3.15c6.7,7.09,17.37,11,26.11,3.79a3.27,3.27,0,1,1,4.17,5A22.58,22.58,0,0,1,1139.64,682.22Z" transform="translate(-626.5 -477.5)"/><g class="cls-2"><path class="cls-3" d="M882,714.57c-6.21-4.22-15.18-5-23.42-2.09a29.72,29.72,0,0,0-18.7,19.68,11.79,11.79,0,0,0,1.57,10.12A11.31,11.31,0,0,0,850,747.2c.48,0,1,0,1.48,0,9.27,0,21.23-6.11,22.35-10.52,1.29-5.06,4.09-6.09,5.23-6.3a10.2,10.2,0,0,0,4.63-2.08,7.68,7.68,0,0,0,3-6.42A9.61,9.61,0,0,0,882,714.57Z" transform="translate(-626.5 -477.5)"/><path class="cls-3" d="M1104.36,744.51c-2.81-7-9.82-12.63-18.29-14.78a29.75,29.75,0,0,0-26.5,5.95,11.8,11.8,0,0,0-4.32,9.29,11.3,11.3,0,0,0,4.32,8.81c5,3.94,13.31,6.1,19.27,6.1,2.87,0,5.19-.5,6.35-1.54,3.89-3.49,6.79-2.79,7.85-2.33a10.23,10.23,0,0,0,5,.85,7.68,7.68,0,0,0,6.08-3.65A9.61,9.61,0,0,0,1104.36,744.51Z" transform="translate(-626.5 -477.5)"/><path class="cls-3" d="M933,763.48c-6.52,2.86-10,9.35-9.61,17.82a10.31,10.31,0,0,0,9.77,9.86c.74,0,1.53.05,2.37.05,6.11,0,14.62-1.06,21.49-4.18a10.21,10.21,0,0,0,3.07-16.52C952.58,762.86,941.19,759.9,933,763.48Z" transform="translate(-626.5 -477.5)"/><path class="cls-3" d="M1013.06,709.41a12.12,12.12,0,0,0-4.18-9.13,11.68,11.68,0,0,0-9.26-2.78c-3.85.54-8.24,2.41-13.42,5.72h0a17,17,0,0,0-6.81,8.14c-2,5.22-.81,10,3.53,14a18.27,18.27,0,0,0,12.25,4.71,18.5,18.5,0,0,0,6.19-1.07C1009.26,726.14,1013.09,719.74,1013.06,709.41Z" transform="translate(-626.5 -477.5)"/><path class="cls-3" d="M959,833.14a7.34,7.34,0,0,0-5.79-1.74,20,20,0,0,0-7.67,3.25,10.16,10.16,0,0,0-4.08,4.88,7.46,7.46,0,0,0,2.16,8.66,10.91,10.91,0,0,0,11,2.17c4.66-1.67,7-5.55,7-11.54A7.52,7.52,0,0,0,959,833.14Z" transform="translate(-626.5 -477.5)"/><path class="cls-3" d="M1058.9,682.53a7.56,7.56,0,0,0-2.61-5.68,7.3,7.3,0,0,0-5.79-1.74,19.7,19.7,0,0,0-7.67,3.25,10.16,10.16,0,0,0-4.08,4.88,7.45,7.45,0,0,0,2.17,8.66,10.89,10.89,0,0,0,11,2.17C1056.56,692.4,1058.91,688.52,1058.9,682.53Z" transform="translate(-626.5 -477.5)"/><path class="cls-3" d="M916.05,663.71a7.3,7.3,0,0,0-5.8-1.74,19.7,19.7,0,0,0-7.67,3.25,10.2,10.2,0,0,0-4.07,4.88,7.43,7.43,0,0,0,2.16,8.66,10.88,10.88,0,0,0,7.3,2.81,11,11,0,0,0,3.69-.64c4.65-1.67,7-5.55,7-11.54A7.59,7.59,0,0,0,916.05,663.71Z" transform="translate(-626.5 -477.5)"/><path class="cls-3" d="M1033.22,797.2a11.68,11.68,0,0,0-9.25-2.77c-3.85.53-8.24,2.4-13.42,5.71h0a17,17,0,0,0-6.81,8.14c-2,5.23-.81,10.06,3.52,14a18.26,18.26,0,0,0,18.44,3.64c7.91-2.83,11.74-9.23,11.71-19.56A12.15,12.15,0,0,0,1033.22,797.2Z" transform="translate(-626.5 -477.5)"/></g><path class="cls-7" d="M846.08,738.43a8.73,8.73,0,0,1-7.5-11.3c5.49-18.32,26.55-23.59,37.7-16,3.86,2.56,4.54,6.59,1.43,9.11a7.36,7.36,0,0,1-3.32,1.48c-1.69.31-5.81,1.74-7.52,8.45C866.2,732.79,854.89,739.1,846.08,738.43Z" transform="translate(-626.5 -477.5)"/><g class="cls-5"><path class="cls-6" d="M839.72,734.69a9.31,9.31,0,0,1,.38-2.64c5.5-18.33,26.55-23.59,37.71-16a9.73,9.73,0,0,1,1.73,1.46c.54-2.17-.61-4.62-3.25-6.38-11.16-7.57-32.22-2.31-37.71,16A8.9,8.9,0,0,0,839.72,734.69Z" transform="translate(-626.5 -477.5)"/></g><path class="cls-3" d="M847.33,741.39q-.75,0-1.47-.06a11.31,11.31,0,0,1-8.49-4.91,11.8,11.8,0,0,1-1.58-10.12,29.75,29.75,0,0,1,18.71-19.69c8.23-2.93,17.21-2.12,23.42,2.09a9.64,9.64,0,0,1,4.65,7.37,7.68,7.68,0,0,1-3,6.41,10.36,10.36,0,0,1-4.64,2.09c-1.14.2-3.93,1.23-5.22,6.3C868.57,735.28,856.6,741.39,847.33,741.39Zm17.19-30.72a24.28,24.28,0,0,0-8.08,1.42A24,24,0,0,0,841.36,728a6,6,0,0,0,.81,5.15,5.42,5.42,0,0,0,4.13,2.41h0c7.13.54,16.42-4.43,17.81-6.32,2.16-8.15,7.54-10,9.77-10.37a4.46,4.46,0,0,0,2-.88,2,2,0,0,0,.88-1.62,4.07,4.07,0,0,0-2.09-2.8A18,18,0,0,0,864.52,710.67Zm-.35,18.45Z" transform="translate(-626.5 -477.5)"/><path class="cls-7" d="M1057.26,745.62a8.73,8.73,0,0,1,.06-13.56c14.76-12.17,35.19-4.83,40.24,7.67,1.78,4.27.1,8-3.88,8.37a7.35,7.35,0,0,1-3.58-.62c-1.58-.69-5.81-1.79-10.95,2.83C1077.12,752.13,1064.21,751.08,1057.26,745.62Z" transform="translate(-626.5 -477.5)"/><g class="cls-5"><path class="cls-6" d="M1054.06,739a9.48,9.48,0,0,1,1.78-2c14.77-12.16,35.2-4.82,40.25,7.68a8.92,8.92,0,0,1,.62,2.17c1.66-1.5,2.07-4.18.85-7.11-5-12.5-25.48-19.84-40.25-7.67A8.89,8.89,0,0,0,1054.06,739Z" transform="translate(-626.5 -477.5)"/></g><path class="cls-3" d="M1074.74,754c-6,0-14.26-2.15-19.28-6.1h0a11.29,11.29,0,0,1-4.31-8.81,11.75,11.75,0,0,1,4.32-9.28,29.73,29.73,0,0,1,26.49-6c8.47,2.15,15.48,7.81,18.3,14.77a9.61,9.61,0,0,1-.24,8.71,7.67,7.67,0,0,1-6.08,3.64,10.22,10.22,0,0,1-5-.84c-1.06-.47-4-1.17-7.84,2.32C1079.93,753.51,1077.61,754,1074.74,754Zm-15.68-10.67c5.63,4.42,16.11,5.45,18.31,4.65,6.34-5.57,11.81-4.08,13.89-3.18a4.42,4.42,0,0,0,2.16.39,2,2,0,0,0,1.62-.86,4,4,0,0,0-.17-3.49c-2.14-5.3-7.63-9.64-14.34-11.34a24,24,0,0,0-21.36,4.8A6,6,0,0,0,1057,739a5.46,5.46,0,0,0,2.09,4.31Zm18.41,4.61Z" transform="translate(-626.5 -477.5)"/><path class="cls-7" d="M922.21,775.29c-.93-19.3,20-20.49,31.72-8.61a7.3,7.3,0,0,1-2.2,11.83c-6.6,3-15.79,4.22-22.51,3.87A7.44,7.44,0,0,1,922.21,775.29Z" transform="translate(-626.5 -477.5)"/><g class="cls-5"><path class="cls-6" d="M922.55,770.09c5.62-9,20.35-7.67,29.46,1.59a7.3,7.3,0,0,1,2.14,5.09,7.29,7.29,0,0,0-.22-10.09C943.4,756,925.33,755.89,922.55,770.09Z" transform="translate(-626.5 -477.5)"/></g><path class="cls-3" d="M931.44,785.35q-1.26,0-2.37-.06a10.29,10.29,0,0,1-9.76-9.86h0c-.41-8.47,3.09-15,9.6-17.81,8.18-3.58,19.57-.63,27.09,7a10.2,10.2,0,0,1-3.06,16.52C946.06,784.28,937.56,785.35,931.44,785.35Zm-6.32-10.2a4.57,4.57,0,0,0,4.25,4.33c5.9.3,14.74-.7,21.16-3.62a4.38,4.38,0,0,0,2.56-3.21,4.43,4.43,0,0,0-1.23-3.93c-5.8-5.89-14.67-8.38-20.61-5.77-4.31,1.88-6.43,6.1-6.13,12.2Z" transform="translate(-626.5 -477.5)"/><path class="cls-7" d="M983.67,699.8c4.45-2.84,8.59-4.78,12.25-5.28a9,9,0,0,1,10.13,9c0,7.92-2.34,14.16-9.78,16.82a15.48,15.48,0,0,1-15.51-3.06c-3.11-2.82-4.49-6.32-2.76-10.77A14.29,14.29,0,0,1,983.67,699.8Z" transform="translate(-626.5 -477.5)"/><g class="cls-5"><path class="cls-6" d="M980.63,717.14a9.39,9.39,0,0,1,.63-5.08,14.31,14.31,0,0,1,5.67-6.75c4.45-2.84,8.59-4.77,12.25-5.28a8.76,8.76,0,0,1,7.51,2.61,9,9,0,0,0-10-7.36c-3.66.5-7.8,2.44-12.25,5.29a14.25,14.25,0,0,0-5.67,6.74A8.79,8.79,0,0,0,980.63,717.14Z" transform="translate(-626.5 -477.5)"/></g><path class="cls-3" d="M991.06,724.19a18.25,18.25,0,0,1-12.25-4.72c-4.33-3.92-5.55-8.76-3.52-14a17,17,0,0,1,6.81-8.14h0c5.18-3.31,9.56-5.18,13.42-5.72a11.66,11.66,0,0,1,9.25,2.78,12.14,12.14,0,0,1,4.19,9.13c0,10.34-3.8,16.74-11.71,19.57A18.42,18.42,0,0,1,991.06,724.19Zm-5.83-21.94a11.41,11.41,0,0,0-4.52,5.35c-1.14,2.94-.52,5.27,2,7.55a12.61,12.61,0,0,0,12.57,2.48c5.45-2,7.87-6.29,7.85-14.07a6.32,6.32,0,0,0-2.18-4.75,5.73,5.73,0,0,0-4.64-1.41c-3,.41-6.69,2-11.09,4.85Z" transform="translate(-626.5 -477.5)"/><path class="cls-7" d="M942.79,830.93a17.67,17.67,0,0,1,6.65-2.87,4.91,4.91,0,0,1,5.5,4.91c0,4.29-1.27,7.68-5.3,9.13a8.39,8.39,0,0,1-8.42-1.67,4.89,4.89,0,0,1-1.5-5.84A7.73,7.73,0,0,1,942.79,830.93Z" transform="translate(-626.5 -477.5)"/><g class="cls-5"><path class="cls-6" d="M940.44,838.23a7.76,7.76,0,0,1,3.08-3.66,17.44,17.44,0,0,1,6.65-2.87,4.81,4.81,0,0,1,4.75,2.28c0-.33,0-.67,0-1a4.91,4.91,0,0,0-5.5-4.91,17.67,17.67,0,0,0-6.65,2.87,7.73,7.73,0,0,0-3.07,3.66,4.7,4.7,0,0,0,.43,4.64A7,7,0,0,1,940.44,838.23Z" transform="translate(-626.5 -477.5)"/></g><path class="cls-3" d="M946.81,845.14a10.89,10.89,0,0,1-7.3-2.82,7.44,7.44,0,0,1-2.17-8.65,10.23,10.23,0,0,1,4.08-4.89,19.81,19.81,0,0,1,7.67-3.24,7.33,7.33,0,0,1,5.8,1.73,7.62,7.62,0,0,1,2.6,5.69c0,6-2.34,9.86-7,11.53A11.19,11.19,0,0,1,946.81,845.14Zm3.29-14.58-.31,0a15.46,15.46,0,0,0-5.63,2.49h0a5.26,5.26,0,0,0-2.07,2.44,2.39,2.39,0,0,0,.84,3,5.88,5.88,0,0,0,5.85,1.15c1.79-.64,3.63-2,3.62-6.73a2.48,2.48,0,0,0-.85-1.85A2.25,2.25,0,0,0,950.1,830.56Zm-7.31.37h0Z" transform="translate(-626.5 -477.5)"/><path class="cls-7" d="M1040.1,674.64a17.38,17.38,0,0,1,6.65-2.87,4.91,4.91,0,0,1,5.5,4.9c0,4.3-1.28,7.69-5.31,9.13a8.39,8.39,0,0,1-8.42-1.66,4.9,4.9,0,0,1-1.5-5.84A7.69,7.69,0,0,1,1040.1,674.64Z" transform="translate(-626.5 -477.5)"/><g class="cls-5"><path class="cls-6" d="M1037.75,681.93a7.78,7.78,0,0,1,3.07-3.66,17.83,17.83,0,0,1,6.65-2.87,4.82,4.82,0,0,1,4.75,2.29q0-.5,0-1a4.91,4.91,0,0,0-5.5-4.9,17.38,17.38,0,0,0-6.65,2.87,7.69,7.69,0,0,0-3.08,3.66,4.7,4.7,0,0,0,.43,4.64A6,6,0,0,1,1037.75,681.93Z" transform="translate(-626.5 -477.5)"/></g><path class="cls-3" d="M1044.11,688.84a10.9,10.9,0,0,1-7.3-2.81,7.43,7.43,0,0,1-2.16-8.66,10.24,10.24,0,0,1,4.07-4.88,19.79,19.79,0,0,1,7.68-3.24,7.31,7.31,0,0,1,5.79,1.73,7.52,7.52,0,0,1,2.6,5.69c0,6-2.33,9.86-7,11.53A11,11,0,0,1,1044.11,688.84Zm3.29-14.57a1.51,1.51,0,0,0-.3,0,15.16,15.16,0,0,0-5.63,2.49h0a5.23,5.23,0,0,0-2.08,2.44,2.38,2.38,0,0,0,.84,3,5.86,5.86,0,0,0,5.85,1.16c1.8-.65,3.63-1.95,3.62-6.73a2.43,2.43,0,0,0-.85-1.85A2.23,2.23,0,0,0,1047.4,674.27Zm-7.3.37Z" transform="translate(-626.5 -477.5)"/><path class="cls-7" d="M899.85,661.5a17.44,17.44,0,0,1,6.65-2.87,4.91,4.91,0,0,1,5.5,4.9c0,4.3-1.27,7.69-5.31,9.13a8.41,8.41,0,0,1-8.42-1.66,4.91,4.91,0,0,1-1.5-5.84A7.7,7.7,0,0,1,899.85,661.5Z" transform="translate(-626.5 -477.5)"/><g class="cls-5"><path class="cls-6" d="M897.5,668.79a7.69,7.69,0,0,1,3.08-3.66,17.7,17.7,0,0,1,6.65-2.87,4.82,4.82,0,0,1,4.74,2.29q0-.49,0-1a4.91,4.91,0,0,0-5.5-4.9,17.44,17.44,0,0,0-6.65,2.87,7.7,7.7,0,0,0-3.08,3.66,4.73,4.73,0,0,0,.44,4.64A7.06,7.06,0,0,1,897.5,668.79Z" transform="translate(-626.5 -477.5)"/></g><path class="cls-3" d="M903.86,675.7a10.85,10.85,0,0,1-7.29-2.81,7.45,7.45,0,0,1-2.17-8.66,10.16,10.16,0,0,1,4.08-4.88,20,20,0,0,1,7.67-3.25,7.34,7.34,0,0,1,5.79,1.74,7.56,7.56,0,0,1,2.61,5.68c0,6-2.34,9.87-7,11.54A10.94,10.94,0,0,1,903.86,675.7Zm3.29-14.57a1.62,1.62,0,0,0-.3,0,15.22,15.22,0,0,0-5.63,2.49h0a5.16,5.16,0,0,0-2.07,2.44,2.37,2.37,0,0,0,.83,3,5.87,5.87,0,0,0,5.85,1.16c1.8-.65,3.64-1.95,3.62-6.73a2.47,2.47,0,0,0-.85-1.86A2.21,2.21,0,0,0,907.15,661.13Zm-7.3.37h0Z" transform="translate(-626.5 -477.5)"/><path class="cls-7" d="M1008,796.73c4.45-2.85,8.6-4.78,12.25-5.29a9,9,0,0,1,10.13,9c0,7.92-2.34,14.15-9.77,16.82a15.47,15.47,0,0,1-15.51-3.06c-3.11-2.82-4.49-6.32-2.76-10.77A14.16,14.16,0,0,1,1008,796.73Z" transform="translate(-626.5 -477.5)"/><g class="cls-5"><path class="cls-6" d="M1005,814.07a9.42,9.42,0,0,1,.63-5.09,14.29,14.29,0,0,1,5.67-6.74c4.45-2.84,8.59-4.77,12.24-5.28a8.75,8.75,0,0,1,7.51,2.61,9,9,0,0,0-10-7.37c-3.66.51-7.8,2.45-12.25,5.29a14.29,14.29,0,0,0-5.67,6.74A8.8,8.8,0,0,0,1005,814.07Z" transform="translate(-626.5 -477.5)"/></g><path class="cls-3" d="M1015.41,821.12a18.25,18.25,0,0,1-12.25-4.72c-4.34-3.92-5.55-8.76-3.52-14a17,17,0,0,1,6.8-8.14h0c5.18-3.31,9.57-5.18,13.42-5.72a11.67,11.67,0,0,1,9.26,2.78,12.13,12.13,0,0,1,4.18,9.13c0,10.34-3.8,16.74-11.7,19.57A18.47,18.47,0,0,1,1015.41,821.12Zm-5.83-21.94a11.36,11.36,0,0,0-4.52,5.35c-1.14,2.93-.52,5.26,2,7.55a12.63,12.63,0,0,0,12.58,2.48c5.45-1.95,7.87-6.29,7.84-14.07a6.3,6.3,0,0,0-2.17-4.76,5.78,5.78,0,0,0-4.65-1.4c-3,.41-6.69,2-11.08,4.85Z" transform="translate(-626.5 -477.5)"/><g class="cls-5"><path class="cls-6" d="M940.54,700.35c0,2.85-3.34.22-7.46.22s-7.47,2.63-7.47-.22,3.34-5.16,7.47-5.16S940.54,697.5,940.54,700.35Z" transform="translate(-626.5 -477.5)"/></g><g class="cls-5"><path class="cls-6" d="M1070.19,792.24c0,2.85-3.35.21-7.47.21s-7.47,2.64-7.47-.21,3.34-5.16,7.47-5.16S1070.19,789.39,1070.19,792.24Z" transform="translate(-626.5 -477.5)"/></g><g class="cls-5"><path class="cls-6" d="M1024.18,740.39c0,2.85-3.34.22-7.47.22s-7.47,2.63-7.47-.22,3.35-5.16,7.47-5.16S1024.18,737.54,1024.18,740.39Z" transform="translate(-626.5 -477.5)"/></g><g class="cls-5"><path class="cls-6" d="M993,851c0,2.85-3.34.21-7.47.21S978,853.8,978,851s3.35-5.16,7.47-5.16S993,848.1,993,851Z" transform="translate(-626.5 -477.5)"/></g><g class="cls-5"><path class="cls-6" d="M853.14,675.06c0,2.85-3.35.22-7.47.22s-7.47,2.63-7.47-.22,3.34-5.15,7.47-5.15S853.14,672.22,853.14,675.06Z" transform="translate(-626.5 -477.5)"/></g><g class="cls-2"><path class="cls-3" d="M914.88,733.27c0,3.06-3,.23-6.66.23s-6.65,2.83-6.65-.23,3-5.55,6.65-5.55S914.88,730.2,914.88,733.27Z" transform="translate(-626.5 -477.5)"/></g><g class="cls-2"><path class="cls-3" d="M896.37,800.14c0,3.06-3,.23-6.66.23s-6.66,2.83-6.66-.23,3-5.55,6.66-5.55S896.37,797.07,896.37,800.14Z" transform="translate(-626.5 -477.5)"/></g><g class="cls-2"><path class="cls-3" d="M1104.92,700.5c0,3.06-3,.23-6.65.23s-6.66,2.83-6.66-.23,3-5.55,6.66-5.55S1104.92,697.43,1104.92,700.5Z" transform="translate(-626.5 -477.5)"/></g><g class="cls-2"><path class="cls-3" d="M998.3,773.32c0,3.07-3,.24-6.65.24s-6.66,2.83-6.66-.24,3-5.54,6.66-5.54S998.3,770.26,998.3,773.32Z" transform="translate(-626.5 -477.5)"/></g><g class="cls-2"><path class="cls-3" d="M879.67,638.1c0,3.06-3,.23-6.66.23s-6.66,2.83-6.66-.23,3-5.55,6.66-5.55S879.67,635,879.67,638.1Z" transform="translate(-626.5 -477.5)"/></g><g class="cls-2"><path class="cls-3" d="M1013.34,664c0,3.07-3,.24-6.65.24S1000,667,1000,664s3-5.54,6.66-5.54S1013.34,660.9,1013.34,664Z" transform="translate(-626.5 -477.5)"/></g><g class="cls-2"><path class="cls-3" d="M852.32,772c0,3.07-3,.24-6.65.24S839,775.05,839,772s3-5.54,6.66-5.54S852.32,768.92,852.32,772Z" transform="translate(-626.5 -477.5)"/></g><path class="cls-4" d="M1133.72,606.88l-13.58,13.82A45.13,45.13,0,0,1,1112,614a46.47,46.47,0,0,1-11.71-20.89l17.81-5.69,5-1.59Z" transform="translate(-626.5 -477.5)"/><g class="cls-2"><path class="cls-3" d="M1133.72,606.88l-13.58,13.82A45.13,45.13,0,0,1,1112,614l10.71-10.71L1118,587.6l.12-.23,5-1.59Z" transform="translate(-626.5 -477.5)"/></g><path class="cls-3" d="M1120.13,624a3.26,3.26,0,0,1-1.77-.52A50.11,50.11,0,0,1,1097,593.7a3.27,3.27,0,0,1,2.22-3.76l22.79-7.28a3.28,3.28,0,0,1,3.92,1.64l10.67,21.1a3.28,3.28,0,0,1-.59,3.77L1122.47,623A3.25,3.25,0,0,1,1120.13,624Zm-15.85-28.76a45,45,0,0,0,15.45,21.23l10-10.18-8.35-16.51Zm-4-2.15h0Z" transform="translate(-626.5 -477.5)"/><path class="cls-4" d="M1176.11,638.5l-21.24-3.38-5.44-.87,9.1-23.63c.58.3,1.13.61,1.68.94h0C1169.64,617.22,1173.91,627,1176.11,638.5Z" transform="translate(-626.5 -477.5)"/><g class="cls-2"><path class="cls-3" d="M1176.11,638.5l-21.24-3.38L1152,633.2l12.11-4.7-3.92-16.94C1169.64,617.22,1173.91,627,1176.11,638.5Z" transform="translate(-626.5 -477.5)"/></g><path class="cls-3" d="M1176.1,641.77a2.92,2.92,0,0,1-.51,0l-26.67-4.24a3.25,3.25,0,0,1-2.32-1.6,3.3,3.3,0,0,1-.22-2.81l9.09-23.63a3.27,3.27,0,0,1,4.56-1.74c13.44,6.93,17.45,20.54,19.29,30.17a3.27,3.27,0,0,1-3.22,3.89Zm-22.16-10.11,17.92,2.85c-2.34-9-6.07-15.1-11.68-19.07Z" transform="translate(-626.5 -477.5)"/><path class="cls-4" d="M1167,583.46a6.33,6.33,0,0,1-6.72,8.93l-7.09-1.13-4.35-.69,7.27-18.91c.47.24.91.48,1.35.74h0A24.08,24.08,0,0,1,1167,583.46Z" transform="translate(-626.5 -477.5)"/><g class="cls-2"><path class="cls-3" d="M1160.24,592.39l-7.09-1.13-2.29-1.54,9.7-3.76-3.14-13.55a24.08,24.08,0,0,1,9.54,11.05A6.33,6.33,0,0,1,1160.24,592.39Z" transform="translate(-626.5 -477.5)"/></g><path class="cls-3" d="M1161.3,595.38a8.62,8.62,0,0,1-1.51-.12l-11.45-1.82a2.92,2.92,0,0,1-2.26-3.92l7.28-18.91a2.86,2.86,0,0,1,1.68-1.67,2.89,2.89,0,0,1,2.37.13,26.47,26.47,0,0,1,12.21,13.22,9.26,9.26,0,0,1-1,9.46A9,9,0,0,1,1161.3,595.38Zm-8.5-7.12,7.9,1.26a3.33,3.33,0,0,0,3.24-1.29,3.44,3.44,0,0,0,.39-3.53,21.71,21.71,0,0,0-6.8-8.72Z" transform="translate(-626.5 -477.5)"/><text class="cls-8" transform="translate(145.15 572.84)">BAKELOVE</text></svg>