<svg id="Layer_1" data-name="Layer 1" xmlns="http://www.w3.org/2000/svg" viewBox="0 0 1624.48 444.07"><defs><style>.cls-1{fill:#ef932f;}.cls-2,.cls-5,.cls-8{fill:#fff;}.cls-2{opacity:0.25;}.cls-3{fill:#d6812e;}.cls-4{fill:#f05b59;}.cls-5{opacity:0.2;}.cls-6{fill:#fde270;}.cls-7{fill:#65cae3;}.cls-9{fill:none;stroke:#623334;stroke-linecap:round;stroke-linejoin:round;stroke-width:0.75px;}.cls-10{font-size:194.67px;fill:#ec227d;font-family:Candyshop-Regular, Candyshop;}</style></defs><path class="cls-1" d="M457.54,242c-1.21-58-25.9-75.4-42.19-84.46-23.53-13.08-41.47-8.65-54.43-2.9-42.13,18.71-51.81-16-62.14-35.1-10.08-18.7-36.92-50.2-90.68-17-42,26-61.85,102.19-60.95,144,1,46.08,14.09,102.79,20.82,131.55,15,64.27,30,95.93,30,95.93,12,24.76,30.61,48.09,48.2,54.64,20.79,7.75,39.84-3.75,39.84-3.75s28.61-14.51,75.29-71.3c25.84-31.44,43.17-52.93,56.56-73.92C435.29,352.26,459,310.47,457.54,242ZM321.13,332.65c-3.63,5.69-8.32,11.5-15.31,20C293.19,368,285.44,372,285.44,372s-3.93,1.61-9.55-.49c-4.76-1.77-11.31-9-14.6-15.66-2.33-4.74-5.15-13.23-7.8-20.83a121,121,0,0,1-6.09-33.39c-.25-11.31,5.12-31.94,16.49-39,14.55-9,21.82-.46,24.55,4.6s5.41,14.56,16.81,9.5c3.51-1.56,8.37-2.76,14.74.78,4.41,2.45,11.09,7.17,11.42,22.86C331.79,318.9,325.86,325.24,321.13,332.65Z" transform="translate(-146.75 -87.63)"/><path class="cls-2" d="M164.75,180.47c-1.83,5.4-3.07,11.14-4.79,16.61a39.25,39.25,0,0,0-1.55,5.75,35.89,35.89,0,0,0-.22,6.13,185,185,0,0,1-1.8,31.94c-1.32,8.55-3.5,17-3.64,25.63,0,1.63.12,3.53,1.05,4.18a1.78,1.78,0,0,0,1.19.23c5-.39,9.73-7.6,10.09-15.26.14-3.13-.36-6.14-.48-9.22a79,79,0,0,1,.44-10.05l1.74-20.28a71.69,71.69,0,0,1,2.06-13.57c1.38-4.79,3.7-8.86,5.64-13.24s3.56-9.47,3.19-14.43C176.44,158.36,167.22,173.16,164.75,180.47Z" transform="translate(-146.75 -87.63)"/><path class="cls-2" d="M218.4,111.75c-3.12,2.86-6.42,5.15-9.47,8.2-4.68,4.71-8.82,11.28-14.06,13.82-1.09.52-2.2.86-3.28,1.39a15.93,15.93,0,0,0-5.54,4.76,14.6,14.6,0,0,1-2.22,2.63,1.69,1.69,0,0,1-2.51,0c-1.19-1.54-.22-4.73.88-6.75,3.64-6.72,8.49-11.93,13.75-14.77a40.88,40.88,0,0,0,4.28-2.35c2.77-1.92,5.1-5.17,7.64-7.79A41.52,41.52,0,0,1,222,101.69c1.89-.8,4.61-1.93,2.73,2.42C223.31,107.29,220.46,109.86,218.4,111.75Z" transform="translate(-146.75 -87.63)"/><path class="cls-2" d="M452.33,223.73c-1.35-7.54-3.08-14.76-6.14-19.7-1.8-2.91-4-5-5.33-8.79-.65-1.9-1-4.18-1.56-6.28-1.88-7.74-10.48-9.2-15.15-11.38a3,3,0,0,0-1.5-.24,19.45,19.45,0,0,0-7.33-8.25c-3.47-1.85-7.18-2.74-10.69-4.41a11.65,11.65,0,0,0-3.71-1.36,10.48,10.48,0,0,0-4,.76c-6.89,2.21-13.88,3.61-20.72,3-5.53-.52-11-2.35-16.58-1a3.44,3.44,0,0,0-2.74,2.39,6.57,6.57,0,0,0-.18,1.88c.15,7.6,4.74,13.66,9.71,12.83,2-.34,4-1.65,6-2.41a23.05,23.05,0,0,1,6.51-1.12l13.16-1c3-.21,6-.42,8.77.73,3.08,1.27,5.68,4.13,8.49,6.33s6.08,3.8,9.31,2.34a11.78,11.78,0,0,0,1.94-1.11c.17.16.33.32.49.49,1.48,1.56,7.63,0,8.27,3,.34,1.63.56,3.44.9,5.08,1.66,7.91,6.22,11.1,9.44,16.54,2.09,3.53,3.63,8.06,5.57,11.86,1.29,2.52,3,6,5.26,6.41C453.59,230.89,452.86,226.65,452.33,223.73Z" transform="translate(-146.75 -87.63)"/><path class="cls-3" d="M303.54,141c2.09,20.56,14.14,46.44,48.23,33.42,0,0,6.21-8.3-5-9.64-10.16-1.21-25.1,3.26-37.38-21.18C309.35,143.55,302.39,129.65,303.54,141Z" transform="translate(-146.75 -87.63)"/><path class="cls-4" d="M445.92,256.85c-1.18-53.75-24.17-70-39.34-78.39-21.91-12.16-38.61-8.09-50.66-2.78C316.74,193,307.69,160.8,298.06,143c-9.4-17.36-34.41-46.61-84.41-15.9-39.08,24-57.46,94.66-56.58,133.4,1,42.73,13.2,95.34,19.49,122,14.05,59.62,28,89,28,89,11.23,23,28.53,44.65,44.91,50.76,19.35,7.21,37.07-3.42,37.07-3.42s26.62-13.41,70-66c24-29.11,40.13-49,52.57-68.45C425.32,359.07,447.31,320.36,445.92,256.85Zm-127.3,88.46c-3.37,5.26-7.73,10.64-14.23,18.53-11.74,14.23-18.95,17.86-18.95,17.86a12.6,12.6,0,0,1-10,.92c-4.44-1.65-9.12-7.52-12.16-13.74,0,0-3.76-7.95-7.57-24.09-1.7-7.22-5-21.46-5.27-33-.24-10.49,4.73-29.61,15.31-36.11,13.54-8.31,20.3-.39,22.85,4.3s5.05,13.52,15.66,8.84c3.26-1.44,7.78-2.54,13.71.75,4.11,2.28,10.33,6.67,10.65,21.22C329,328,323,338.44,318.62,345.31Z" transform="translate(-146.75 -87.63)"/><path class="cls-5" d="M413.64,334.33c4.77-16.25,6.21-34.7,8.17-51.81a18,18,0,0,0-.33-6.4,50.79,50.79,0,0,0,.3-7.1c-1.44-46.41-21.28-80.88-50.85-78.83-13.4.93-26,7.51-39.13,14.94-2.63,1.48-6.54,4.21-9.22,4.12-3.54-.13-5.14-4.26-7.18-8.24-14.34-27.89-30.5-51.81-56-51.23-9,.2-18.86,2.74-28.29,7-.63.14-1.26.31-1.88.51a31.21,31.21,0,0,0-9.49,5.57,41.44,41.44,0,0,0-15.53,17.47c-11.8,17.32-19.17,39.09-22.68,63.06-7.2,49.15-4.07,99.93,7.58,144.13,12,45.53,29.95,85.43,62.49,98.73,14.82,6.05,29.07-1.22,43.56-10.46,16.09-10.26,30.92-19.72,45.27-35.93,18.23-20.59,38.56-39.35,54.21-64.77C402.19,362.84,409.16,349.62,413.64,334.33Zm-83.11,72.43c-12.46,11-21.09,19.52-33.88,29.67-9.81,7.78-18.16,4.84-29,6.35-10.29,1.43-20.11-11.46-27.15-20.62C231.84,411,226,393,221.31,377.22c-9.72-32.59-17.53-62-14.37-99.5,1.52-18.1,4.23-48.73,14.49-58.58,2.61-2.52,11.45-11.77,14.72-12.84,8.9-2.9,13.94,2,22.46,4.83,17,5.57,22.06,32.89,34.32,47.91,8,9.8,17.6,13.78,28.49,11.86,8.55-1.51,16.93-7.51,25.47-9.78,6.5-1.73,13.61-3.69,20-2.34,9.91,2.06,16.62,6.56,21.35,12.52,8.26,10.41,10.53,26.41,7.66,40.12-6,28.64-20.93,44-26.92,52.37A248.47,248.47,0,0,1,330.53,406.76Z" transform="translate(-146.75 -87.63)"/><path class="cls-6" d="M271.45,207.76c.09-1.85-.64-3.51-1.83-3.92l-11.66-4c-1.4-.47-2.91,1-3.36,3.16a6.21,6.21,0,0,0,0,2.39c-.09,1.85.64,3.51,1.83,3.91l11.67,4c1.39.48,2.9-.94,3.35-3.15A6,6,0,0,0,271.45,207.76Z" transform="translate(-146.75 -87.63)"/><path class="cls-6" d="M324.15,382.18a1.73,1.73,0,0,0-1.55-.05c-1.18-.15-2.41,1-2.91,2.8l-5,17.93c-.6,2.15,0,4.48,1.35,5.19a1.71,1.71,0,0,0,1.54.05c1.19.15,2.41-1,2.92-2.8l5-17.93C326.1,385.22,325.49,382.88,324.15,382.18Z" transform="translate(-146.75 -87.63)"/><path class="cls-6" d="M197,291.38l-7.45-13.76c-.89-1.65-2.57-1.73-3.74-.18a5.21,5.21,0,0,0-.9,2.08,5.9,5.9,0,0,0-.05,5.06l7.45,13.76c.89,1.65,2.58,1.73,3.74.18a5.21,5.21,0,0,0,.9-2.08A5.9,5.9,0,0,0,197,291.38Z" transform="translate(-146.75 -87.63)"/><path class="cls-6" d="M372.7,310.75,365.25,297c-.89-1.65-2.58-1.73-3.74-.19a5.32,5.32,0,0,0-.9,2.09,5.9,5.9,0,0,0-.05,5.06L368,317.71c.89,1.65,2.58,1.73,3.74.18a5.21,5.21,0,0,0,.9-2.08A5.9,5.9,0,0,0,372.7,310.75Z" transform="translate(-146.75 -87.63)"/><path class="cls-6" d="M238,371.23l-3.64-17.37c-.43-2.08-1.94-3.06-3.34-2.18a3.69,3.69,0,0,0-1.28,1.55,5.81,5.81,0,0,0-1.18,4.9l3.64,17.37c.43,2.08,1.94,3.06,3.34,2.18a3.69,3.69,0,0,0,1.28-1.55A5.81,5.81,0,0,0,238,371.23Z" transform="translate(-146.75 -87.63)"/><path class="cls-6" d="M283.26,480.28l-7.45-13.76c-.89-1.65-2.57-1.73-3.74-.18a5.23,5.23,0,0,0-.9,2.08,5.94,5.94,0,0,0-.05,5.06l7.45,13.76c.9,1.65,2.58,1.73,3.74.18a5.37,5.37,0,0,0,.91-2.08A5.9,5.9,0,0,0,283.26,480.28Z" transform="translate(-146.75 -87.63)"/><path class="cls-6" d="M409.64,245.52l-7.46-13.76c-.89-1.65-2.57-1.73-3.74-.18a5.35,5.35,0,0,0-.9,2.08,5.94,5.94,0,0,0-.05,5.06l7.45,13.76c.9,1.65,2.58,1.73,3.74.19a5.35,5.35,0,0,0,.91-2.09A5.94,5.94,0,0,0,409.64,245.52Z" transform="translate(-146.75 -87.63)"/><path class="cls-7" d="M322.26,225.15a6.27,6.27,0,0,0,0-2.89c-.52-2-2.07-2.89-3.45-1.88l-11.52,8.37a5.25,5.25,0,0,0-1.72,4.24,6,6,0,0,0,0,2.89c.51,2,2.06,2.89,3.44,1.88l11.52-8.37A5.28,5.28,0,0,0,322.26,225.15Z" transform="translate(-146.75 -87.63)"/><path class="cls-7" d="M217.09,421.52l-8.22-12.74a1.94,1.94,0,0,0-3.05-.54,2.71,2.71,0,0,0-1.76,1.3,5.88,5.88,0,0,0-.2,5.83l8.23,12.75a1.93,1.93,0,0,0,3,.54,2.73,2.73,0,0,0,1.76-1.31A5.83,5.83,0,0,0,217.09,421.52Z" transform="translate(-146.75 -87.63)"/><path class="cls-7" d="M215.71,320.77a6.14,6.14,0,0,0,0-2.89c-.5-2.05-2.05-2.92-3.43-1.93l-11.56,8.2a5.21,5.21,0,0,0-1.75,4.23,6.14,6.14,0,0,0,0,2.89c.5,2,2,2.91,3.43,1.93L214,325A5.24,5.24,0,0,0,215.71,320.77Z" transform="translate(-146.75 -87.63)"/><path class="cls-7" d="M303.88,178.18l-9-11.45a1.94,1.94,0,0,0-3.09-.11,3.1,3.1,0,0,0-1.69,1.53,5.71,5.71,0,0,0,.14,5.78l9,11.45a1.94,1.94,0,0,0,3.09.11A3.06,3.06,0,0,0,304,184,5.71,5.71,0,0,0,303.88,178.18Z" transform="translate(-146.75 -87.63)"/><path class="cls-7" d="M425.72,318.75a6.18,6.18,0,0,0,0-2.9c-.5-2-2-2.91-3.43-1.93l-11.56,8.21a5.24,5.24,0,0,0-1.75,4.22,6.14,6.14,0,0,0,0,2.89c.51,2.05,2,2.92,3.43,1.93L424,323A5.24,5.24,0,0,0,425.72,318.75Z" transform="translate(-146.75 -87.63)"/><path class="cls-7" d="M221.56,168.1a6.14,6.14,0,0,0,0-2.89c-.51-2.05-2-2.92-3.43-1.93l-11.57,8.2a5.27,5.27,0,0,0-1.75,4.22,6.18,6.18,0,0,0,0,2.9c.5,2,2,2.91,3.43,1.93l11.56-8.21A5.24,5.24,0,0,0,221.56,168.1Z" transform="translate(-146.75 -87.63)"/><path class="cls-7" d="M378.66,203.84a4.47,4.47,0,0,0-1.33-4.12,2.25,2.25,0,0,0-1.6-1.27c-1.45-.19-2.85,1.5-3.13,3.76l-2.28,18.88a4.46,4.46,0,0,0,1.33,4.12,2.25,2.25,0,0,0,1.6,1.27c1.45.2,2.85-1.49,3.13-3.75Z" transform="translate(-146.75 -87.63)"/><path class="cls-8" d="M248.1,262.34A3.53,3.53,0,0,0,247,260.6c-.79-1.42-2.18-1.81-3.4-.79l-11.86,10a6.07,6.07,0,0,0-1.42,6,3.46,3.46,0,0,0,1.09,1.74c.78,1.42,2.18,1.81,3.39.79l11.86-10A6.05,6.05,0,0,0,248.1,262.34Z" transform="translate(-146.75 -87.63)"/><path class="cls-8" d="M212.32,373.92c.41-2.09-.11-4.28-1.34-5.23l-12.08-9.22c-1.45-1.1-3.34-.08-4.21,2.27a7.15,7.15,0,0,0-.42,2.73c-.41,2.09.11,4.28,1.34,5.23l12.08,9.21c1.45,1.11,3.34.09,4.2-2.27A7.11,7.11,0,0,0,212.32,373.92Z" transform="translate(-146.75 -87.63)"/><path class="cls-8" d="M363.18,260.34c.35-1.79-.09-3.66-1.15-4.47L351.7,248c-1.24-1-2.85-.07-3.59,1.94a6.06,6.06,0,0,0-.37,2.33c-.35,1.78.09,3.66,1.15,4.47l10.33,7.88c1.24.94,2.85.07,3.59-1.94A6.06,6.06,0,0,0,363.18,260.34Z" transform="translate(-146.75 -87.63)"/><path class="cls-8" d="M285.41,424.24c.34-1.78-.1-3.66-1.15-4.46l-10.33-7.88c-1.24-.95-2.86-.08-3.6,1.94a6.25,6.25,0,0,0-.37,2.33c-.34,1.78.1,3.66,1.15,4.47l10.33,7.88c1.24.94,2.86.07,3.6-1.94A6.34,6.34,0,0,0,285.41,424.24Z" transform="translate(-146.75 -87.63)"/><path class="cls-8" d="M257.69,446.37a2.35,2.35,0,0,0-1.24-1.17c-.92-1-2.27-.87-3.24.42l-9.56,12.7a5.82,5.82,0,0,0-.49,5.71,2.37,2.37,0,0,0,1.25,1.17c.92,1,2.26.88,3.24-.42l9.55-12.7A5.77,5.77,0,0,0,257.69,446.37Z" transform="translate(-146.75 -87.63)"/><path class="cls-8" d="M256.79,147a2.43,2.43,0,0,0-1.24-1.17c-.92-1-2.27-.87-3.24.43L242.75,159a5.82,5.82,0,0,0-.49,5.71,2.41,2.41,0,0,0,1.25,1.17c.92,1,2.26.87,3.24-.43l9.55-12.7A5.77,5.77,0,0,0,256.79,147Z" transform="translate(-146.75 -87.63)"/><path class="cls-8" d="M366.75,406.69c.35-1.78-.1-3.66-1.15-4.47l-10.33-7.88c-1.24-.94-2.86-.07-3.6,1.94a6.27,6.27,0,0,0-.36,2.33c-.35,1.79.09,3.66,1.15,4.47L362.79,411c1.23,1,2.85.07,3.59-1.94A6.06,6.06,0,0,0,366.75,406.69Z" transform="translate(-146.75 -87.63)"/><path class="cls-8" d="M221.68,226.52c.35-1.78-.1-3.66-1.15-4.47l-10.33-7.88c-1.24-.94-2.86-.07-3.6,1.94a6.34,6.34,0,0,0-.37,2.34c-.34,1.78.1,3.66,1.15,4.46l10.33,7.88c1.24,1,2.86.07,3.6-1.94A6.25,6.25,0,0,0,221.68,226.52Z" transform="translate(-146.75 -87.63)"/><path class="cls-8" d="M382.86,339.62a3.39,3.39,0,0,0-1.09-1.73c-.78-1.43-2.18-1.81-3.39-.79l-11.86,10a6.05,6.05,0,0,0-1.43,6,3.53,3.53,0,0,0,1.09,1.74c.79,1.42,2.18,1.81,3.4.78l11.86-10A6.06,6.06,0,0,0,382.86,339.62Z" transform="translate(-146.75 -87.63)"/><path class="cls-8" d="M412.74,278.11a3.46,3.46,0,0,0-1.09-1.74c-.78-1.42-2.18-1.81-3.39-.79l-11.87,10a6.07,6.07,0,0,0-1.42,6,3.53,3.53,0,0,0,1.09,1.74c.78,1.42,2.18,1.81,3.39.79l11.87-10A6.07,6.07,0,0,0,412.74,278.11Z" transform="translate(-146.75 -87.63)"/><path class="cls-8" d="M335.38,437.58a3.46,3.46,0,0,0-1.09-1.74c-.78-1.42-2.18-1.81-3.39-.78l-11.86,10a6.12,6.12,0,0,0-1.43,6,3.5,3.5,0,0,0,1.09,1.73c.79,1.43,2.19,1.81,3.4.79l11.86-10A6.07,6.07,0,0,0,335.38,437.58Z" transform="translate(-146.75 -87.63)"/><path class="cls-9" d="M259.85,235.23c.76,12.07,1.59,24.54,5.54,34.58" transform="translate(-146.75 -87.63)"/><path class="cls-9" d="M264.77,234c.47,7.57,1.29,15,2.45,22.31.71,4.47,1.65,9.1,3.92,11.91" transform="translate(-146.75 -87.63)"/><path class="cls-9" d="M271,234.83a306.66,306.66,0,0,0,2.3,31.6" transform="translate(-146.75 -87.63)"/><path class="cls-9" d="M277.52,241.93a89.77,89.77,0,0,0,.31,24.64" transform="translate(-146.75 -87.63)"/><path class="cls-9" d="M282.25,270.57c.32-5.84-.07-11.61,0-17.43s.61-11.92,2.61-17.16" transform="translate(-146.75 -87.63)"/><path class="cls-9" d="M285,274.32a181.74,181.74,0,0,1,8.27-30" transform="translate(-146.75 -87.63)"/><path class="cls-9" d="M256.73,266.54q3,4.41,6.17,8.45" transform="translate(-146.75 -87.63)"/><path class="cls-9" d="M260.9,265.76a31.77,31.77,0,0,0,4.65,6.2" transform="translate(-146.75 -87.63)"/><path class="cls-9" d="M291.27,280.3c1-.3,1.57-1.92,2-3.34q4.46-14.67,8.92-29.34" transform="translate(-146.75 -87.63)"/><path class="cls-9" d="M293.26,286.8a230.91,230.91,0,0,0,9.7-27.18" transform="translate(-146.75 -87.63)"/><path class="cls-9" d="M299,290.14a181.4,181.4,0,0,0,8.52-29.26" transform="translate(-146.75 -87.63)"/><path class="cls-9" d="M322.17,292a200.75,200.75,0,0,0,5.67-35.34" transform="translate(-146.75 -87.63)"/><path class="cls-9" d="M326.73,296.43a329.18,329.18,0,0,0,5.73-38" transform="translate(-146.75 -87.63)"/><path class="cls-9" d="M330.06,301.3a212.69,212.69,0,0,1,7.34-23" transform="translate(-146.75 -87.63)"/><path class="cls-9" d="M331.63,307.5l7.17-18.08" transform="translate(-146.75 -87.63)"/><path class="cls-9" d="M330.84,314a133.12,133.12,0,0,0,10.48-17.09" transform="translate(-146.75 -87.63)"/><path class="cls-9" d="M328.08,325.39q6.72-9,13.45-18.07" transform="translate(-146.75 -87.63)"/><path class="cls-9" d="M341.86,279.44a45.89,45.89,0,0,1,4.53,12.74" transform="translate(-146.75 -87.63)"/><path class="cls-9" d="M337.81,282.6a92.8,92.8,0,0,1,5.72,13.77" transform="translate(-146.75 -87.63)"/><path class="cls-9" d="M331,279.82A74.87,74.87,0,0,1,342,305.2" transform="translate(-146.75 -87.63)"/><path class="cls-9" d="M325.18,278.4c6.29,8.39,10.94,19.61,13.32,32.18" transform="translate(-146.75 -87.63)"/><path class="cls-9" d="M317.16,278.63a75.21,75.21,0,0,1,10.85,11" transform="translate(-146.75 -87.63)"/><path class="cls-9" d="M287.08,275a15,15,0,0,1,6.86,5" transform="translate(-146.75 -87.63)"/><path class="cls-9" d="M282.56,263.56c-.25,0-.22-.64,0-.81s.48,0,.68.18q7.23,6,14.43,12" transform="translate(-146.75 -87.63)"/><path class="cls-9" d="M283.7,252a156.81,156.81,0,0,1,16.48,19.12" transform="translate(-146.75 -87.63)"/><path class="cls-9" d="M286.4,245.24l-.67-1.16,16.67,18" transform="translate(-146.75 -87.63)"/><path class="cls-9" d="M260.73,267.19a82.71,82.71,0,0,1,20.72-7.6" transform="translate(-146.75 -87.63)"/><path class="cls-9" d="M261.59,258.87a48.37,48.37,0,0,1,18-3.86" transform="translate(-146.75 -87.63)"/><path class="cls-9" d="M256.71,238.87l12.73-1.59" transform="translate(-146.75 -87.63)"/><path class="cls-9" d="M254.5,277.62a6,6,0,0,1,5.49,1.47" transform="translate(-146.75 -87.63)"/><path class="cls-9" d="M311.43,287.09a178.75,178.75,0,0,0,2.31-29.8" transform="translate(-146.75 -87.63)"/><path class="cls-9" d="M319.57,290.19a127.65,127.65,0,0,0,1.73-25.51" transform="translate(-146.75 -87.63)"/><path class="cls-9" d="M297.81,282.41a60,60,0,0,1,17.43.87" transform="translate(-146.75 -87.63)"/><path class="cls-9" d="M300.16,273.61a59.66,59.66,0,0,1,17.43.87" transform="translate(-146.75 -87.63)"/><path class="cls-9" d="M169.71,257.53a230.93,230.93,0,0,0-9.25,32.32" transform="translate(-146.75 -87.63)"/><path class="cls-9" d="M170.45,241.68a170.73,170.73,0,0,0-11.39,30.55" transform="translate(-146.75 -87.63)"/><path class="cls-9" d="M170.32,233.3a78.49,78.49,0,0,0-12.78,27.42" transform="translate(-146.75 -87.63)"/><path class="cls-9" d="M169.28,217.75a68.45,68.45,0,0,0-10.4,23.85" transform="translate(-146.75 -87.63)"/><path class="cls-9" d="M165.2,282.07a58,58,0,0,0-4.68,15.74" transform="translate(-146.75 -87.63)"/><path class="cls-9" d="M167.25,290.79a74,74,0,0,0-5.58,17.86" transform="translate(-146.75 -87.63)"/><path class="cls-9" d="M167.56,300.92a58.18,58.18,0,0,0-4.9,14.08" transform="translate(-146.75 -87.63)"/><path class="cls-9" d="M170.91,306.12c-3.13,6.76-5.21,11.86-6.4,19.73" transform="translate(-146.75 -87.63)"/><path class="cls-9" d="M173.92,311.66a120.89,120.89,0,0,0-7.16,24.27" transform="translate(-146.75 -87.63)"/><path class="cls-9" d="M175.93,321.6a80.62,80.62,0,0,0-8,21.77" transform="translate(-146.75 -87.63)"/><path class="cls-9" d="M179.1,327.68c-4.34,8.41-6.82,14-9.33,23.8" transform="translate(-146.75 -87.63)"/><path class="cls-9" d="M181.72,336.88a215.06,215.06,0,0,0-10,23.05" transform="translate(-146.75 -87.63)"/><path class="cls-9" d="M182.8,343.81c-4.22,7.75-7.25,14.12-9.74,23.32" transform="translate(-146.75 -87.63)"/><path class="cls-9" d="M180.5,358c-2,7.77-3.12,12.82-4.65,20.77" transform="translate(-146.75 -87.63)"/><path class="cls-9" d="M185.23,373.2a62.18,62.18,0,0,0-5.39,18" transform="translate(-146.75 -87.63)"/><path class="cls-9" d="M189.87,372.24l.27-.15c-4.59,8.23-7.92,15.11-9.95,25.25" transform="translate(-146.75 -87.63)"/><path class="cls-9" d="M193.94,380.25a179.58,179.58,0,0,0-10.87,25.34" transform="translate(-146.75 -87.63)"/><path class="cls-9" d="M195.89,390.11a141.83,141.83,0,0,0-9.68,26.08" transform="translate(-146.75 -87.63)"/><path class="cls-9" d="M197.09,398.38a221.48,221.48,0,0,0-8.68,22.87" transform="translate(-146.75 -87.63)"/><path class="cls-9" d="M200,407c-2.91,7.79-5.48,15.85-7.69,24.09" transform="translate(-146.75 -87.63)"/><path class="cls-9" d="M199,420.08a166.84,166.84,0,0,0-5,17.57" transform="translate(-146.75 -87.63)"/><path class="cls-9" d="M170.35,214.74a390.41,390.41,0,0,0-1.17,44" transform="translate(-146.75 -87.63)"/><path class="cls-9" d="M165,219.55c-1.67,20.33-.43,40.47.82,60.42" transform="translate(-146.75 -87.63)"/><path class="cls-9" d="M160.38,228.4c-.93,48.75,4.79,96.75,16.68,140" transform="translate(-146.75 -87.63)"/><path class="cls-9" d="M166.81,294.62A553.94,553.94,0,0,0,180,356" transform="translate(-146.75 -87.63)"/><path class="cls-9" d="M172.73,307.26a273.14,273.14,0,0,0,9.14,47.82" transform="translate(-146.75 -87.63)"/><path class="cls-9" d="M179.12,323.45q1.74,12,4.09,23.59" transform="translate(-146.75 -87.63)"/><path class="cls-9" d="M177,370.53q1.86,7.92,3.73,15.85c3.22,13.68,6.59,27.74,13.15,37.87" transform="translate(-146.75 -87.63)"/><path class="cls-9" d="M180,364.29a277.9,277.9,0,0,0,16.62,56.57" transform="translate(-146.75 -87.63)"/><path class="cls-9" d="M184,362a348.37,348.37,0,0,0,12.45,47.2" transform="translate(-146.75 -87.63)"/><path class="cls-9" d="M192.32,379q3.28,12.85,7.25,25.19" transform="translate(-146.75 -87.63)"/><path class="cls-9" d="M193.69,431.37c3.6,17.42,9.51,33.38,17.31,46.68" transform="translate(-146.75 -87.63)"/><path class="cls-9" d="M197.2,433.12c2.91,12.2,6,24.74,11.86,33.73,2.39,3.64,5.23,6.66,7.1,11" transform="translate(-146.75 -87.63)"/><path class="cls-9" d="M198.65,429.27c2.95,7,5.66,14.18,8.14,21.61" transform="translate(-146.75 -87.63)"/><path class="cls-9" d="M201.53,423.33q3.72,10.31,7.43,20.6" transform="translate(-146.75 -87.63)"/><path class="cls-9" d="M193.46,442a101.58,101.58,0,0,0,8.37-15.66" transform="translate(-146.75 -87.63)"/><path class="cls-9" d="M195.79,444.71l8.65-12.57" transform="translate(-146.75 -87.63)"/><path class="cls-9" d="M197.88,454.79,208,438.89" transform="translate(-146.75 -87.63)"/><path class="cls-9" d="M200.91,461.35a27.41,27.41,0,0,0,6.88-9" transform="translate(-146.75 -87.63)"/><path class="cls-9" d="M204.44,468.56a159.39,159.39,0,0,0,8.67-14" transform="translate(-146.75 -87.63)"/><path class="cls-9" d="M208.39,475.1a32,32,0,0,0,5.52-8.14" transform="translate(-146.75 -87.63)"/><path class="cls-9" d="M209.93,481.25q6.72-9,12.82-19.12" transform="translate(-146.75 -87.63)"/><path class="cls-9" d="M211.87,483.13q6.45-10.14,12.88-20.3" transform="translate(-146.75 -87.63)"/><path class="cls-9" d="M214.89,487.94c5.35-7.06,9.06-14.47,12.86-23.56" transform="translate(-146.75 -87.63)"/><path class="cls-9" d="M217.13,492.92a189.75,189.75,0,0,0,12-16.83" transform="translate(-146.75 -87.63)"/><path class="cls-9" d="M221.43,497.36c4.2-6.07,7.61-11.45,11.44-18.08" transform="translate(-146.75 -87.63)"/><path class="cls-9" d="M224.41,501.46c3.12-4.4,6.09-9.08,8.88-14" transform="translate(-146.75 -87.63)"/><path class="cls-9" d="M212.85,481.6a147.33,147.33,0,0,0,17.65,20" transform="translate(-146.75 -87.63)"/><path class="cls-9" d="M217.45,476.56c5.76,11.28,11.19,18.25,19.47,25" transform="translate(-146.75 -87.63)"/><path class="cls-9" d="M221.38,473.59c7.11,10.86,14.47,22,24,27.47" transform="translate(-146.75 -87.63)"/><path class="cls-9" d="M420.27,331.27a229.62,229.62,0,0,1-3,36.21" transform="translate(-146.75 -87.63)"/><path class="cls-9" d="M425.81,316a182,182,0,0,1,.07,35.93" transform="translate(-146.75 -87.63)"/><path class="cls-9" d="M429.29,308.18c3.1,10.57,4.68,19.11,3.42,30.61" transform="translate(-146.75 -87.63)"/><path class="cls-9" d="M436.64,294.3a68.45,68.45,0,0,1,1.59,27.6" transform="translate(-146.75 -87.63)"/><path class="cls-9" d="M415.32,357.15A68.15,68.15,0,0,1,414,376.32" transform="translate(-146.75 -87.63)"/><path class="cls-9" d="M409.63,364a75.29,75.29,0,0,1-1.13,20.32" transform="translate(-146.75 -87.63)"/><path class="cls-9" d="M405.24,373.28a78.43,78.43,0,0,1-.9,18.61" transform="translate(-146.75 -87.63)"/><path class="cls-9" d="M399.55,376a83.18,83.18,0,0,1-1.82,25.08" transform="translate(-146.75 -87.63)"/><path class="cls-9" d="M394.09,379.25A138.29,138.29,0,0,1,392,408.48" transform="translate(-146.75 -87.63)"/><path class="cls-9" d="M388,387.27c1.15,9,1.87,17.05.45,26.14" transform="translate(-146.75 -87.63)"/><path class="cls-9" d="M382.11,390.92a122,122,0,0,1,.12,30.38" transform="translate(-146.75 -87.63)"/><path class="cls-9" d="M375.61,397.85a262,262,0,0,1,1.67,29.46" transform="translate(-146.75 -87.63)"/><path class="cls-9" d="M371.67,403.64a115.65,115.65,0,0,1,.95,29.18" transform="translate(-146.75 -87.63)"/><path class="cls-9" d="M368.49,418.37c-1,8.55-1.92,15.09-3.44,23.51" transform="translate(-146.75 -87.63)"/><path class="cls-9" d="M357.3,429.6a63.16,63.16,0,0,1-1.38,20.33" transform="translate(-146.75 -87.63)"/><path class="cls-9" d="M352.69,425.72l-.24-.31a102,102,0,0,1-.31,32.71" transform="translate(-146.75 -87.63)"/><path class="cls-9" d="M345.09,430.61a195.92,195.92,0,0,1,1.59,30.71" transform="translate(-146.75 -87.63)"/><path class="cls-9" d="M339.05,438.59a148.7,148.7,0,0,1,0,30.64" transform="translate(-146.75 -87.63)"/><path class="cls-9" d="M334.46,445.56a238,238,0,0,1,.21,27" transform="translate(-146.75 -87.63)"/><path class="cls-9" d="M327.92,451.74a271.63,271.63,0,0,1-1.34,27.5" transform="translate(-146.75 -87.63)"/><path class="cls-9" d="M323.73,464.65a164.19,164.19,0,0,1-1.61,19.69" transform="translate(-146.75 -87.63)"/><path class="cls-9" d="M436.68,290.79a330.38,330.38,0,0,1-16.32,42" transform="translate(-146.75 -87.63)"/><path class="cls-9" d="M440.52,298.74c-6.31,20.1-15.71,38.17-25,56" transform="translate(-146.75 -87.63)"/><path class="cls-9" d="M440,314.86c-18.49,46.24-41.87,82.64-72,115.49" transform="translate(-146.75 -87.63)"/><path class="cls-9" d="M408.57,367.87a432,432,0,0,1-38.71,49" transform="translate(-146.75 -87.63)"/><path class="cls-9" d="M397.13,375.9a213.47,213.47,0,0,1-29,38.89" transform="translate(-146.75 -87.63)"/><path class="cls-9" d="M383.77,387q-6.64,10.08-13.84,19.46" transform="translate(-146.75 -87.63)"/><path class="cls-9" d="M367.27,432.4l-10.36,12.45c-8.94,10.74-18.2,21.74-29.31,27" transform="translate(-146.75 -87.63)"/><path class="cls-9" d="M366.46,424.6a214.75,214.75,0,0,1-40.52,42.28" transform="translate(-146.75 -87.63)"/><path class="cls-9" d="M363.07,419.84A269,269,0,0,1,330.79,456" transform="translate(-146.75 -87.63)"/><path class="cls-9" d="M347.37,430.43q-8.7,9.92-17.89,18.93" transform="translate(-146.75 -87.63)"/><path class="cls-9" d="M324.93,478.63c-10.84,14-23.59,25.14-37.31,32.58" transform="translate(-146.75 -87.63)"/><path class="cls-9" d="M320.45,478c-8,9.55-16.31,19.34-26.26,24-4,1.87-12.05,5.71-12.05,5.71" transform="translate(-146.75 -87.63)"/><path class="cls-9" d="M320.43,473.48a224.78,224.78,0,0,0-17.41,15" transform="translate(-146.75 -87.63)"/><path class="cls-9" d="M319.69,466.06l-16.24,14.51" transform="translate(-146.75 -87.63)"/><path class="cls-9" d="M321,488.69a119,119,0,0,1-2.76-20" transform="translate(-146.75 -87.63)"/><path class="cls-9" d="M317.34,489.77q-2.14-8.65-4.3-17.33" transform="translate(-146.75 -87.63)"/><path class="cls-9" d="M311.05,497.87q-2.25-10.69-4.51-21.37" transform="translate(-146.75 -87.63)"/><path class="cls-9" d="M305.16,502.06a35.83,35.83,0,0,1-3.82-12.82" transform="translate(-146.75 -87.63)"/><path class="cls-9" d="M298.48,506.54c-1.54-6.08-2.8-12.32-3.76-18.66" transform="translate(-146.75 -87.63)"/><path class="cls-9" d="M291.61,510.13A39.72,39.72,0,0,1,288.92,499" transform="translate(-146.75 -87.63)"/><path class="cls-9" d="M287.49,514.9q-3.63-12.78-6.18-26.14" transform="translate(-146.75 -87.63)"/><path class="cls-9" d="M284.64,515.41l-5.76-27.28" transform="translate(-146.75 -87.63)"/><path class="cls-9" d="M280.17,519.43A133.25,133.25,0,0,1,275,487.65" transform="translate(-146.75 -87.63)"/><path class="cls-9" d="M275.07,521.2a240.14,240.14,0,0,1-6.24-23.49" transform="translate(-146.75 -87.63)"/><path class="cls-9" d="M268.93,523.91q-3.15-12.58-5.38-25.6" transform="translate(-146.75 -87.63)"/><path class="cls-9" d="M263.8,524.52c-1.6-6.14-2.94-12.42-4-18.81" transform="translate(-146.75 -87.63)"/><path class="cls-9" d="M284.2,513.35a135.07,135.07,0,0,1-27,7.36" transform="translate(-146.75 -87.63)"/><path class="cls-9" d="M284.21,504.63a75.3,75.3,0,0,1-33.94,12" transform="translate(-146.75 -87.63)"/><path class="cls-9" d="M258,513c-7.74-.24-15.7-.62-22.32-9.12" transform="translate(-146.75 -87.63)"/><path class="cls-9" d="M457.54,242c-1.21-58-25.9-75.4-42.19-84.46-23.53-13.08-41.47-8.65-54.43-2.9-13.55,6-23.73,6.52-31.67,3.79-16.75-5.77-23.46-25.9-30.47-38.89-10.08-18.7-36.92-50.2-90.68-17-42,26-61.85,102.19-60.95,144,1,46.08,14.09,102.79,20.82,131.55,15,64.27,30,95.93,30,95.93,12,24.76,30.61,48.09,48.2,54.64,20.79,7.75,39.84-3.75,39.84-3.75s28.61-14.51,75.29-71.3c25.84-31.44,43.17-52.93,56.56-73.92C435.29,352.26,459,310.47,457.54,242Z" transform="translate(-146.75 -87.63)"/><path class="cls-9" d="M298.06,143c9.63,17.77,18.68,49.94,57.86,32.65,12.05-5.31,28.75-9.38,50.66,2.78,15.17,8.43,38.16,24.64,39.34,78.39,1.39,63.51-20.6,102.22-36.84,127.6-12.44,19.44-28.54,39.34-52.57,68.45-43.38,52.58-70,66-70,66s-17.72,10.63-37.07,3.42c-16.38-6.11-33.68-27.78-44.91-50.76,0,0-13.92-29.38-28-89-6.29-26.68-18.52-79.29-19.49-122-.88-38.74,17.5-109.39,56.58-133.4C263.65,96.42,288.66,125.67,298.06,143Z" transform="translate(-146.75 -87.63)"/><path class="cls-9" d="M288.57,280c2.6,4.81,5.05,13.52,15.66,8.84,3.26-1.44,7.78-2.54,13.71.75,4.11,2.28,10.33,6.67,10.65,21.22.38,17.19-5.58,27.67-10,34.54-3.37,5.26-7.73,10.64-14.23,18.53-11.74,14.23-18.95,17.86-18.95,17.86a12.6,12.6,0,0,1-10,.92c-4.44-1.65-9.12-7.52-12.16-13.74,0,0-3.76-7.95-7.57-24.09-1.7-7.22-5-21.46-5.27-33-.24-10.49,4.73-29.61,15.31-36.11C279.26,267.35,286,275.27,288.57,280Z" transform="translate(-146.75 -87.63)"/><path class="cls-9" d="M327.62,323.54c-3.56,5.5-14.07,20.12-21,28.37-12.45,14.88-20.1,18.65-20.1,18.65a13.46,13.46,0,0,1-10.67.91c-4.73-1.76-11.56-8.84-14.6-15.66-3.11-7-5.5-13.8-9.61-30.79" transform="translate(-146.75 -87.63)"/><path class="cls-1" d="M1500.16,379.66c13.39,21,30.72,42.48,56.56,73.92,46.67,56.79,75.29,71.3,75.29,71.3s19,11.5,39.84,3.75c17.59-6.55,36.16-29.88,48.2-54.64,0,0,14.92-31.66,30-95.93,6.73-28.76,19.82-85.47,20.81-131.55.91-41.77-18.92-118-60.94-144-53.76-33.22-80.6-1.72-90.68,17-10.33,19.14-20,53.81-62.14,35.1-13-5.75-30.9-10.18-54.43,2.9-16.29,9.06-41,26.5-42.19,84.46C1459,310.47,1482.69,352.26,1500.16,379.66Zm86.41-79.3c.33-15.69,7-20.41,11.42-22.86,6.37-3.54,11.23-2.34,14.74-.78,11.4,5.06,14-4.32,16.81-9.5s10-13.59,24.55-4.6c11.37,7,16.74,27.66,16.49,39a121,121,0,0,1-6.09,33.39c-2.65,7.6-5.47,16.09-7.8,20.83-3.29,6.67-9.84,13.89-14.6,15.66-5.62,2.1-9.55.49-9.55.49s-7.75-3.93-20.38-19.3c-7-8.51-11.69-14.32-15.31-20C1592.12,325.24,1586.19,318.9,1586.57,300.36Z" transform="translate(-146.75 -87.63)"/><path class="cls-2" d="M1753.23,180.47c1.82,5.4,3.07,11.14,4.79,16.61a39.25,39.25,0,0,1,1.55,5.75,35.89,35.89,0,0,1,.22,6.13,185,185,0,0,0,1.8,31.94c1.32,8.55,3.5,17,3.64,25.63,0,1.63-.13,3.53-1,4.18a1.78,1.78,0,0,1-1.19.23c-5-.39-9.73-7.6-10.09-15.26-.14-3.13.36-6.14.48-9.22a79,79,0,0,0-.44-10.05q-.87-10.14-1.75-20.28a70.89,70.89,0,0,0-2-13.57c-1.38-4.79-3.7-8.86-5.64-13.24s-3.56-9.47-3.19-14.43C1741.54,158.36,1750.76,173.16,1753.23,180.47Z" transform="translate(-146.75 -87.63)"/><path class="cls-2" d="M1699.58,111.75c3.12,2.86,6.42,5.15,9.46,8.2,4.69,4.71,8.83,11.28,14.07,13.82,1.09.52,2.2.86,3.28,1.39a15.93,15.93,0,0,1,5.54,4.76,14.2,14.2,0,0,0,2.22,2.63,1.69,1.69,0,0,0,2.51,0c1.18-1.54.22-4.73-.88-6.75-3.65-6.72-8.49-11.93-13.75-14.77a40.88,40.88,0,0,1-4.28-2.35c-2.77-1.92-5.1-5.17-7.64-7.79a41.52,41.52,0,0,0-14.09-9.17c-1.89-.8-4.62-1.93-2.73,2.42C1694.67,107.29,1697.52,109.86,1699.58,111.75Z" transform="translate(-146.75 -87.63)"/><path class="cls-2" d="M1465.65,223.73c1.35-7.54,3.08-14.76,6.14-19.7,1.79-2.91,4-5,5.33-8.79.65-1.9,1-4.18,1.56-6.28,1.88-7.74,10.47-9.2,15.15-11.38a3,3,0,0,1,1.5-.24,19.5,19.5,0,0,1,7.32-8.25c3.47-1.85,7.19-2.74,10.7-4.41a11.56,11.56,0,0,1,3.71-1.36,10.4,10.4,0,0,1,4,.76c6.89,2.21,13.89,3.61,20.73,3,5.53-.52,11-2.35,16.58-1a3.44,3.44,0,0,1,2.74,2.39,6.57,6.57,0,0,1,.18,1.88c-.15,7.6-4.74,13.66-9.71,12.83-2-.34-4-1.65-6-2.41a23.06,23.06,0,0,0-6.52-1.12l-13.15-1c-3-.21-6-.42-8.77.73-3.08,1.27-5.69,4.13-8.49,6.33s-6.08,3.8-9.31,2.34a11.49,11.49,0,0,1-2-1.11l-.48.49c-1.49,1.56-7.63,0-8.27,3-.35,1.63-.56,3.44-.9,5.08-1.67,7.91-6.22,11.1-9.44,16.54-2.09,3.53-3.63,8.06-5.57,11.86-1.29,2.52-3,6-5.26,6.41C1464.39,230.89,1465.12,226.65,1465.65,223.73Z" transform="translate(-146.75 -87.63)"/><path class="cls-3" d="M1614.44,141c-2.09,20.56-14.14,46.44-48.23,33.42,0,0-6.22-8.3,5-9.64,10.16-1.21,25.1,3.26,37.37-21.18C1608.62,143.55,1615.59,129.65,1614.44,141Z" transform="translate(-146.75 -87.63)"/><path class="cls-4" d="M1508.9,384.45c12.43,19.44,28.54,39.34,52.57,68.45,43.38,52.58,70,66,70,66s17.73,10.63,37.08,3.42c16.38-6.11,33.68-27.78,44.91-50.76,0,0,13.92-29.38,28-89,6.29-26.68,18.52-79.29,19.49-122,.88-38.74-17.5-109.39-56.59-133.4-50-30.71-75-1.46-84.4,15.9-9.63,17.77-18.68,49.94-57.86,32.65-12-5.31-28.75-9.38-50.66,2.78-15.17,8.43-38.16,24.64-39.34,78.39C1470.67,320.36,1492.66,359.07,1508.9,384.45Zm80.49-73.68c.32-14.55,6.54-18.94,10.65-21.22,5.93-3.29,10.45-2.19,13.71-.75,10.61,4.68,13-4,15.66-8.84s9.31-12.61,22.85-4.3c10.58,6.5,15.55,25.62,15.31,36.11-.26,11.56-3.57,25.8-5.27,33-3.81,16.14-7.57,24.09-7.57,24.09-3,6.22-7.73,12.09-12.16,13.74a12.6,12.6,0,0,1-10-.92s-7.21-3.63-19-17.86c-6.5-7.89-10.86-13.27-14.23-18.53C1595,338.44,1589,328,1589.39,310.77Z" transform="translate(-146.75 -87.63)"/><path class="cls-5" d="M1523.33,375.09c15.65,25.42,36,44.18,54.2,64.77,14.36,16.21,29.19,25.67,45.28,35.93,14.49,9.24,28.74,16.51,43.56,10.46,32.53-13.3,50.48-53.2,62.49-98.73,11.65-44.2,14.78-95,7.58-144.13-3.51-24-10.88-45.74-22.69-63.06a41.36,41.36,0,0,0-15.52-17.47,31.21,31.21,0,0,0-9.49-5.57c-.62-.2-1.25-.37-1.88-.51-9.43-4.26-19.25-6.8-28.29-7-25.49-.58-41.65,23.34-56,51.23-2,4-3.64,8.11-7.18,8.24-2.68.09-6.59-2.64-9.22-4.12-13.14-7.43-25.73-14-39.13-14.94-29.57-2.05-49.41,32.42-50.85,78.83a50.79,50.79,0,0,0,.3,7.1,18,18,0,0,0-.33,6.4c2,17.11,3.4,35.56,8.17,51.81C1508.82,349.62,1515.79,362.84,1523.33,375.09Zm25.62-11.3c-6-8.39-20.9-23.73-26.91-52.37-2.87-13.71-.6-29.71,7.66-40.12,4.73-6,11.44-10.46,21.35-12.52,6.43-1.35,13.54.61,20,2.34,8.54,2.27,16.92,8.27,25.46,9.78,10.9,1.92,20.51-2.06,28.5-11.86,12.26-15,17.36-42.34,34.32-47.91,8.52-2.8,13.56-7.73,22.46-4.83,3.27,1.07,12.11,10.32,14.72,12.84,10.25,9.85,13,40.48,14.49,58.58,3.15,37.47-4.65,66.91-14.37,99.5-4.7,15.76-10.53,33.74-19.14,44.94-7,9.16-16.86,22-27.16,20.62-10.88-1.51-19.23,1.43-29-6.35-12.79-10.15-21.43-18.69-33.88-29.67A248.92,248.92,0,0,1,1549,363.79Z" transform="translate(-146.75 -87.63)"/><path class="cls-6" d="M1646.53,207.76c-.09-1.85.64-3.51,1.83-3.92l11.66-4c1.4-.47,2.91,1,3.36,3.16a6.21,6.21,0,0,1,0,2.39c.09,1.85-.64,3.51-1.84,3.91l-11.66,4c-1.39.48-2.9-.94-3.35-3.15A6,6,0,0,1,1646.53,207.76Z" transform="translate(-146.75 -87.63)"/><path class="cls-6" d="M1593.83,382.18a1.73,1.73,0,0,1,1.55-.05c1.18-.15,2.4,1,2.91,2.8l5,17.93c.6,2.15,0,4.48-1.35,5.19a1.71,1.71,0,0,1-1.54.05c-1.19.15-2.41-1-2.92-2.8l-5-17.93C1591.88,385.22,1592.49,382.88,1593.83,382.18Z" transform="translate(-146.75 -87.63)"/><path class="cls-6" d="M1721,291.38l7.45-13.76c.89-1.65,2.57-1.73,3.74-.18a5.35,5.35,0,0,1,.9,2.08,5.9,5.9,0,0,1,.05,5.06l-7.45,13.76c-.89,1.65-2.58,1.73-3.74.18a5.37,5.37,0,0,1-.91-2.08A5.9,5.9,0,0,1,1721,291.38Z" transform="translate(-146.75 -87.63)"/><path class="cls-6" d="M1545.28,310.75l7.45-13.76c.89-1.65,2.58-1.73,3.74-.19a5.32,5.32,0,0,1,.9,2.09,5.9,5.9,0,0,1,.05,5.06L1550,317.71c-.89,1.65-2.58,1.73-3.74.18a5.21,5.21,0,0,1-.9-2.08A5.9,5.9,0,0,1,1545.28,310.75Z" transform="translate(-146.75 -87.63)"/><path class="cls-6" d="M1680,371.23l3.64-17.37c.44-2.08,1.94-3.06,3.34-2.18a3.64,3.64,0,0,1,1.29,1.55,5.84,5.84,0,0,1,1.18,4.9l-3.64,17.37c-.43,2.08-1.94,3.06-3.34,2.18a3.69,3.69,0,0,1-1.28-1.55A5.85,5.85,0,0,1,1680,371.23Z" transform="translate(-146.75 -87.63)"/><path class="cls-6" d="M1634.71,480.28l7.46-13.76c.89-1.65,2.57-1.73,3.74-.18a5.23,5.23,0,0,1,.9,2.08,5.94,5.94,0,0,1,0,5.06l-7.45,13.76c-.9,1.65-2.58,1.73-3.74.18a5.37,5.37,0,0,1-.91-2.08A5.94,5.94,0,0,1,1634.71,480.28Z" transform="translate(-146.75 -87.63)"/><path class="cls-6" d="M1508.34,245.52l7.46-13.76c.89-1.65,2.57-1.73,3.74-.18a5.35,5.35,0,0,1,.9,2.08,5.94,5.94,0,0,1,0,5.06L1513,252.48c-.9,1.65-2.58,1.73-3.74.19a5.35,5.35,0,0,1-.91-2.09A5.94,5.94,0,0,1,1508.34,245.52Z" transform="translate(-146.75 -87.63)"/><path class="cls-7" d="M1595.72,225.15a6,6,0,0,1,0-2.89c.52-2,2.07-2.89,3.45-1.88l11.51,8.37a5.28,5.28,0,0,1,1.73,4.24,6,6,0,0,1,0,2.89c-.51,2-2.07,2.89-3.45,1.88l-11.51-8.37A5.28,5.28,0,0,1,1595.72,225.15Z" transform="translate(-146.75 -87.63)"/><path class="cls-7" d="M1700.89,421.52l8.22-12.74a1.94,1.94,0,0,1,3.05-.54,2.71,2.71,0,0,1,1.76,1.3,5.88,5.88,0,0,1,.2,5.83l-8.23,12.75a1.94,1.94,0,0,1-3.05.54,2.74,2.74,0,0,1-1.75-1.31A5.83,5.83,0,0,1,1700.89,421.52Z" transform="translate(-146.75 -87.63)"/><path class="cls-7" d="M1702.27,320.77a6.14,6.14,0,0,1,0-2.89c.5-2.05,2-2.92,3.43-1.93l11.56,8.2a5.24,5.24,0,0,1,1.75,4.23,6.14,6.14,0,0,1,0,2.89c-.5,2-2,2.91-3.43,1.93L1704,325A5.24,5.24,0,0,1,1702.27,320.77Z" transform="translate(-146.75 -87.63)"/><path class="cls-7" d="M1614.1,178.18l9-11.45a2,2,0,0,1,3.1-.11,3.1,3.1,0,0,1,1.69,1.53,5.71,5.71,0,0,1-.14,5.78l-9,11.45a1.94,1.94,0,0,1-3.09.11A3.06,3.06,0,0,1,1614,184,5.71,5.71,0,0,1,1614.1,178.18Z" transform="translate(-146.75 -87.63)"/><path class="cls-7" d="M1492.26,318.75a6.18,6.18,0,0,1,0-2.9c.5-2,2-2.91,3.42-1.93l11.57,8.21a5.24,5.24,0,0,1,1.75,4.22,6.27,6.27,0,0,1,0,2.89c-.51,2.05-2,2.92-3.43,1.93L1494,323A5.27,5.27,0,0,1,1492.26,318.75Z" transform="translate(-146.75 -87.63)"/><path class="cls-7" d="M1696.42,168.1a6.14,6.14,0,0,1,0-2.89c.51-2.05,2-2.92,3.43-1.93l11.56,8.2a5.24,5.24,0,0,1,1.76,4.22,6.18,6.18,0,0,1,0,2.9c-.5,2-2,2.91-3.43,1.93l-11.56-8.21A5.24,5.24,0,0,1,1696.42,168.1Z" transform="translate(-146.75 -87.63)"/><path class="cls-7" d="M1539.32,203.84a4.47,4.47,0,0,1,1.33-4.12,2.25,2.25,0,0,1,1.6-1.27c1.45-.19,2.85,1.5,3.13,3.76l2.28,18.88a4.49,4.49,0,0,1-1.33,4.12,2.27,2.27,0,0,1-1.6,1.27c-1.45.2-2.85-1.49-3.13-3.75Z" transform="translate(-146.75 -87.63)"/><path class="cls-8" d="M1669.88,262.34a3.53,3.53,0,0,1,1.09-1.74c.78-1.42,2.18-1.81,3.39-.79l11.87,10a6.07,6.07,0,0,1,1.42,6,3.46,3.46,0,0,1-1.09,1.74c-.78,1.42-2.18,1.81-3.39.79l-11.87-10A6.07,6.07,0,0,1,1669.88,262.34Z" transform="translate(-146.75 -87.63)"/><path class="cls-8" d="M1705.66,373.92c-.41-2.09.11-4.28,1.34-5.23l12.08-9.22c1.45-1.1,3.34-.08,4.21,2.27a7.15,7.15,0,0,1,.42,2.73c.41,2.09-.11,4.28-1.34,5.23l-12.08,9.21c-1.45,1.11-3.34.09-4.2-2.27A7.11,7.11,0,0,1,1705.66,373.92Z" transform="translate(-146.75 -87.63)"/><path class="cls-8" d="M1554.8,260.34c-.35-1.79.09-3.66,1.15-4.47l10.33-7.88c1.24-1,2.85-.07,3.59,1.94a6.06,6.06,0,0,1,.37,2.33c.35,1.78-.1,3.66-1.15,4.47l-10.33,7.88c-1.24.94-2.86.07-3.6-1.94A6.24,6.24,0,0,1,1554.8,260.34Z" transform="translate(-146.75 -87.63)"/><path class="cls-8" d="M1632.57,424.24c-.35-1.78.1-3.66,1.15-4.46l10.33-7.88c1.24-.95,2.86-.08,3.6,1.94a6,6,0,0,1,.36,2.33c.35,1.78-.09,3.66-1.15,4.47l-10.33,7.88c-1.23.94-2.85.07-3.59-1.94A6.34,6.34,0,0,1,1632.57,424.24Z" transform="translate(-146.75 -87.63)"/><path class="cls-8" d="M1660.29,446.37a2.35,2.35,0,0,1,1.24-1.17c.92-1,2.26-.87,3.24.42l9.56,12.7a5.79,5.79,0,0,1,.48,5.71,2.32,2.32,0,0,1-1.24,1.17c-.92,1-2.26.88-3.24-.42l-9.56-12.7A5.79,5.79,0,0,1,1660.29,446.37Z" transform="translate(-146.75 -87.63)"/><path class="cls-8" d="M1661.19,147a2.43,2.43,0,0,1,1.24-1.17c.92-1,2.26-.87,3.24.43l9.56,12.7a5.82,5.82,0,0,1,.49,5.71,2.41,2.41,0,0,1-1.25,1.17c-.92,1-2.26.87-3.24-.43l-9.55-12.7A5.77,5.77,0,0,1,1661.19,147Z" transform="translate(-146.75 -87.63)"/><path class="cls-8" d="M1551.23,406.69c-.35-1.78.1-3.66,1.15-4.47l10.33-7.88c1.24-.94,2.86-.07,3.6,1.94a6.27,6.27,0,0,1,.36,2.33c.35,1.79-.09,3.66-1.15,4.47L1555.19,411c-1.24,1-2.85.07-3.59-1.94A6.06,6.06,0,0,1,1551.23,406.69Z" transform="translate(-146.75 -87.63)"/><path class="cls-8" d="M1696.3,226.52c-.35-1.78.1-3.66,1.15-4.47l10.33-7.88c1.24-.94,2.86-.07,3.6,1.94a6.12,6.12,0,0,1,.36,2.34c.35,1.78-.09,3.66-1.15,4.46l-10.33,7.88c-1.23,1-2.85.07-3.59-1.94A6.25,6.25,0,0,1,1696.3,226.52Z" transform="translate(-146.75 -87.63)"/><path class="cls-8" d="M1535.12,339.62a3.44,3.44,0,0,1,1.08-1.73c.79-1.43,2.19-1.81,3.4-.79l11.86,10a6.1,6.1,0,0,1,1.43,6,3.53,3.53,0,0,1-1.09,1.74c-.79,1.42-2.19,1.81-3.4.78l-11.86-10A6.06,6.06,0,0,1,1535.12,339.62Z" transform="translate(-146.75 -87.63)"/><path class="cls-8" d="M1505.24,278.11a3.46,3.46,0,0,1,1.09-1.74c.78-1.42,2.18-1.81,3.39-.79l11.86,10a6.05,6.05,0,0,1,1.43,6,3.53,3.53,0,0,1-1.09,1.74,2.1,2.1,0,0,1-3.4.79l-11.86-10A6.07,6.07,0,0,1,1505.24,278.11Z" transform="translate(-146.75 -87.63)"/><path class="cls-8" d="M1582.59,437.58a3.53,3.53,0,0,1,1.09-1.74c.79-1.42,2.19-1.81,3.4-.78l11.86,10a6.09,6.09,0,0,1,1.42,6,3.42,3.42,0,0,1-1.08,1.73c-.79,1.43-2.19,1.81-3.4.79l-11.86-10A6.1,6.1,0,0,1,1582.59,437.58Z" transform="translate(-146.75 -87.63)"/><path class="cls-9" d="M1658.12,235.23c-.75,12.07-1.58,24.54-5.53,34.58" transform="translate(-146.75 -87.63)"/><path class="cls-9" d="M1653.21,234c-.47,7.57-1.29,15-2.45,22.31-.71,4.47-1.65,9.1-3.92,11.91" transform="translate(-146.75 -87.63)"/><path class="cls-9" d="M1647,234.83a306.66,306.66,0,0,1-2.3,31.6" transform="translate(-146.75 -87.63)"/><path class="cls-9" d="M1640.46,241.93a89.77,89.77,0,0,1-.31,24.64" transform="translate(-146.75 -87.63)"/><path class="cls-9" d="M1635.73,270.57c-.32-5.84.07-11.61,0-17.43s-.61-11.92-2.62-17.16" transform="translate(-146.75 -87.63)"/><path class="cls-9" d="M1633,274.32a181.74,181.74,0,0,0-8.27-30" transform="translate(-146.75 -87.63)"/><path class="cls-9" d="M1661.25,266.54q-3,4.41-6.17,8.45" transform="translate(-146.75 -87.63)"/><path class="cls-9" d="M1657.08,265.76a31.77,31.77,0,0,1-4.65,6.2" transform="translate(-146.75 -87.63)"/><path class="cls-9" d="M1626.71,280.3c-1-.3-1.57-1.92-2-3.34q-4.45-14.67-8.92-29.34" transform="translate(-146.75 -87.63)"/><path class="cls-9" d="M1624.72,286.8a229.12,229.12,0,0,1-9.7-27.18" transform="translate(-146.75 -87.63)"/><path class="cls-9" d="M1619,290.14a181.4,181.4,0,0,1-8.52-29.26" transform="translate(-146.75 -87.63)"/><path class="cls-9" d="M1595.81,292a200.75,200.75,0,0,1-5.67-35.34" transform="translate(-146.75 -87.63)"/><path class="cls-9" d="M1591.24,296.43a331.34,331.34,0,0,1-5.72-38" transform="translate(-146.75 -87.63)"/><path class="cls-9" d="M1587.91,301.3a210.48,210.48,0,0,0-7.33-23" transform="translate(-146.75 -87.63)"/><path class="cls-9" d="M1586.35,307.5l-7.17-18.08" transform="translate(-146.75 -87.63)"/><path class="cls-9" d="M1587.13,314a134.2,134.2,0,0,1-10.47-17.09" transform="translate(-146.75 -87.63)"/><path class="cls-9" d="M1589.9,325.39q-6.72-9-13.45-18.07" transform="translate(-146.75 -87.63)"/><path class="cls-9" d="M1576.12,279.44a45.89,45.89,0,0,0-4.53,12.74" transform="translate(-146.75 -87.63)"/><path class="cls-9" d="M1580.17,282.6a92.8,92.8,0,0,0-5.72,13.77" transform="translate(-146.75 -87.63)"/><path class="cls-9" d="M1587,279.82A75.07,75.07,0,0,0,1576,305.2" transform="translate(-146.75 -87.63)"/><path class="cls-9" d="M1592.8,278.4c-6.29,8.39-10.94,19.61-13.32,32.18" transform="translate(-146.75 -87.63)"/><path class="cls-9" d="M1600.82,278.63a75.77,75.77,0,0,0-10.86,11" transform="translate(-146.75 -87.63)"/><path class="cls-9" d="M1630.9,275a15,15,0,0,0-6.86,5" transform="translate(-146.75 -87.63)"/><path class="cls-9" d="M1635.42,263.56c.25,0,.22-.64,0-.81s-.48,0-.68.18q-7.23,6-14.43,12" transform="translate(-146.75 -87.63)"/><path class="cls-9" d="M1634.28,252a156.81,156.81,0,0,0-16.48,19.12" transform="translate(-146.75 -87.63)"/><path class="cls-9" d="M1631.58,245.24l.67-1.16-16.67,18" transform="translate(-146.75 -87.63)"/><path class="cls-9" d="M1657.25,267.19a82.71,82.71,0,0,0-20.72-7.6" transform="translate(-146.75 -87.63)"/><path class="cls-9" d="M1656.39,258.87a48.41,48.41,0,0,0-18-3.86" transform="translate(-146.75 -87.63)"/><path class="cls-9" d="M1661.27,238.87l-12.73-1.59" transform="translate(-146.75 -87.63)"/><path class="cls-9" d="M1663.48,277.62a6,6,0,0,0-5.49,1.47" transform="translate(-146.75 -87.63)"/><path class="cls-9" d="M1606.55,287.09a178.75,178.75,0,0,1-2.31-29.8" transform="translate(-146.75 -87.63)"/><path class="cls-9" d="M1598.41,290.19a127.65,127.65,0,0,1-1.73-25.51" transform="translate(-146.75 -87.63)"/><path class="cls-9" d="M1620.17,282.41a60,60,0,0,0-17.43.87" transform="translate(-146.75 -87.63)"/><path class="cls-9" d="M1617.82,273.61a59.66,59.66,0,0,0-17.43.87" transform="translate(-146.75 -87.63)"/><path class="cls-9" d="M1748.27,257.53a230.93,230.93,0,0,1,9.25,32.32" transform="translate(-146.75 -87.63)"/><path class="cls-9" d="M1747.53,241.68a170.73,170.73,0,0,1,11.39,30.55" transform="translate(-146.75 -87.63)"/><path class="cls-9" d="M1747.65,233.3a78.32,78.32,0,0,1,12.79,27.42" transform="translate(-146.75 -87.63)"/><path class="cls-9" d="M1748.7,217.75a68.45,68.45,0,0,1,10.4,23.85" transform="translate(-146.75 -87.63)"/><path class="cls-9" d="M1752.78,282.07a58,58,0,0,1,4.68,15.74" transform="translate(-146.75 -87.63)"/><path class="cls-9" d="M1750.73,290.79a74,74,0,0,1,5.58,17.86" transform="translate(-146.75 -87.63)"/><path class="cls-9" d="M1750.42,300.92c2.27,5,3.73,8.35,4.9,14.08" transform="translate(-146.75 -87.63)"/><path class="cls-9" d="M1747.07,306.12c3.13,6.76,5.21,11.86,6.4,19.73" transform="translate(-146.75 -87.63)"/><path class="cls-9" d="M1744.05,311.66a120.26,120.26,0,0,1,7.17,24.27" transform="translate(-146.75 -87.63)"/><path class="cls-9" d="M1742.05,321.6a80.62,80.62,0,0,1,8,21.77" transform="translate(-146.75 -87.63)"/><path class="cls-9" d="M1738.88,327.68c4.33,8.41,6.82,14,9.33,23.8" transform="translate(-146.75 -87.63)"/><path class="cls-9" d="M1736.26,336.88a215.06,215.06,0,0,1,10,23.05" transform="translate(-146.75 -87.63)"/><path class="cls-9" d="M1735.18,343.81c4.22,7.75,7.25,14.12,9.74,23.32" transform="translate(-146.75 -87.63)"/><path class="cls-9" d="M1737.48,358c2,7.77,3.12,12.82,4.65,20.77" transform="translate(-146.75 -87.63)"/><path class="cls-9" d="M1732.75,373.2a62.49,62.49,0,0,1,5.39,18" transform="translate(-146.75 -87.63)"/><path class="cls-9" d="M1728.11,372.24l-.27-.15c4.59,8.23,7.91,15.11,10,25.25" transform="translate(-146.75 -87.63)"/><path class="cls-9" d="M1724,380.25a179.58,179.58,0,0,1,10.87,25.34" transform="translate(-146.75 -87.63)"/><path class="cls-9" d="M1722.09,390.11a141.83,141.83,0,0,1,9.68,26.08" transform="translate(-146.75 -87.63)"/><path class="cls-9" d="M1720.89,398.38a221.48,221.48,0,0,1,8.68,22.87" transform="translate(-146.75 -87.63)"/><path class="cls-9" d="M1718,407c2.91,7.79,5.48,15.85,7.69,24.09" transform="translate(-146.75 -87.63)"/><path class="cls-9" d="M1719,420.08a166.84,166.84,0,0,1,5,17.57" transform="translate(-146.75 -87.63)"/><path class="cls-9" d="M1747.63,214.74a390.41,390.41,0,0,1,1.17,44" transform="translate(-146.75 -87.63)"/><path class="cls-9" d="M1753,219.55c1.67,20.33.43,40.47-.82,60.42" transform="translate(-146.75 -87.63)"/><path class="cls-9" d="M1757.6,228.4c.93,48.75-4.79,96.75-16.69,140" transform="translate(-146.75 -87.63)"/><path class="cls-9" d="M1751.17,294.62A553.94,553.94,0,0,1,1738,356" transform="translate(-146.75 -87.63)"/><path class="cls-9" d="M1745.25,307.26a273.14,273.14,0,0,1-9.14,47.82" transform="translate(-146.75 -87.63)"/><path class="cls-9" d="M1738.86,323.45q-1.74,12-4.1,23.59" transform="translate(-146.75 -87.63)"/><path class="cls-9" d="M1741,370.53q-1.86,7.92-3.73,15.85c-3.22,13.68-6.59,27.74-13.15,37.87" transform="translate(-146.75 -87.63)"/><path class="cls-9" d="M1738,364.29a277.9,277.9,0,0,1-16.62,56.57" transform="translate(-146.75 -87.63)"/><path class="cls-9" d="M1733.93,362a348.36,348.36,0,0,1-12.44,47.2" transform="translate(-146.75 -87.63)"/><path class="cls-9" d="M1725.66,379q-3.29,12.85-7.25,25.19" transform="translate(-146.75 -87.63)"/><path class="cls-9" d="M1724.28,431.37c-3.59,17.42-9.5,33.38-17.3,46.68" transform="translate(-146.75 -87.63)"/><path class="cls-9" d="M1720.78,433.12c-2.91,12.2-6,24.74-11.86,33.73-2.39,3.64-5.23,6.66-7.1,11" transform="translate(-146.75 -87.63)"/><path class="cls-9" d="M1719.33,429.27c-2.95,7-5.66,14.18-8.14,21.61" transform="translate(-146.75 -87.63)"/><path class="cls-9" d="M1716.44,423.33q-3.7,10.31-7.42,20.6" transform="translate(-146.75 -87.63)"/><path class="cls-9" d="M1724.52,442a100.73,100.73,0,0,1-8.37-15.66" transform="translate(-146.75 -87.63)"/><path class="cls-9" d="M1722.19,444.71l-8.65-12.57" transform="translate(-146.75 -87.63)"/><path class="cls-9" d="M1720.09,454.79q-5-7.95-10.07-15.9" transform="translate(-146.75 -87.63)"/><path class="cls-9" d="M1717.06,461.35a27.52,27.52,0,0,1-6.87-9" transform="translate(-146.75 -87.63)"/><path class="cls-9" d="M1713.54,468.56a159.39,159.39,0,0,1-8.67-14" transform="translate(-146.75 -87.63)"/><path class="cls-9" d="M1709.59,475.1a32,32,0,0,1-5.52-8.14" transform="translate(-146.75 -87.63)"/><path class="cls-9" d="M1708.05,481.25q-6.72-9-12.82-19.12" transform="translate(-146.75 -87.63)"/><path class="cls-9" d="M1706.1,483.13l-12.87-20.3" transform="translate(-146.75 -87.63)"/><path class="cls-9" d="M1703.09,487.94c-5.35-7.06-9.07-14.47-12.86-23.56" transform="translate(-146.75 -87.63)"/><path class="cls-9" d="M1700.85,492.92a189.75,189.75,0,0,1-12-16.83" transform="translate(-146.75 -87.63)"/><path class="cls-9" d="M1696.55,497.36c-4.2-6.07-7.61-11.45-11.44-18.08" transform="translate(-146.75 -87.63)"/><path class="cls-9" d="M1693.57,501.46c-3.12-4.4-6.09-9.08-8.88-14" transform="translate(-146.75 -87.63)"/><path class="cls-9" d="M1705.13,481.6a147.33,147.33,0,0,1-17.65,20" transform="translate(-146.75 -87.63)"/><path class="cls-9" d="M1700.52,476.56c-5.75,11.28-11.18,18.25-19.46,25" transform="translate(-146.75 -87.63)"/><path class="cls-9" d="M1696.59,473.59c-7.1,10.86-14.46,22-24,27.47" transform="translate(-146.75 -87.63)"/><path class="cls-9" d="M1497.71,331.27a229.62,229.62,0,0,0,3,36.21" transform="translate(-146.75 -87.63)"/><path class="cls-9" d="M1492.17,316a182,182,0,0,0-.07,35.93" transform="translate(-146.75 -87.63)"/><path class="cls-9" d="M1488.69,308.18c-3.1,10.57-4.68,19.11-3.42,30.61" transform="translate(-146.75 -87.63)"/><path class="cls-9" d="M1481.34,294.3a68.27,68.27,0,0,0-1.59,27.6" transform="translate(-146.75 -87.63)"/><path class="cls-9" d="M1502.66,357.15a68.15,68.15,0,0,0,1.35,19.17" transform="translate(-146.75 -87.63)"/><path class="cls-9" d="M1508.35,364a75.29,75.29,0,0,0,1.13,20.32" transform="translate(-146.75 -87.63)"/><path class="cls-9" d="M1512.74,373.28a79,79,0,0,0,.89,18.61" transform="translate(-146.75 -87.63)"/><path class="cls-9" d="M1518.43,376a83.5,83.5,0,0,0,1.81,25.08" transform="translate(-146.75 -87.63)"/><path class="cls-9" d="M1523.89,379.25a138.94,138.94,0,0,0,2.11,29.23" transform="translate(-146.75 -87.63)"/><path class="cls-9" d="M1530,387.27c-1.15,9-1.87,17.05-.45,26.14" transform="translate(-146.75 -87.63)"/><path class="cls-9" d="M1535.87,390.92a122,122,0,0,0-.12,30.38" transform="translate(-146.75 -87.63)"/><path class="cls-9" d="M1542.37,397.85a262,262,0,0,0-1.67,29.46" transform="translate(-146.75 -87.63)"/><path class="cls-9" d="M1546.31,403.64a115.65,115.65,0,0,0-1,29.18" transform="translate(-146.75 -87.63)"/><path class="cls-9" d="M1549.49,418.37c1,8.55,1.92,15.09,3.44,23.51" transform="translate(-146.75 -87.63)"/><path class="cls-9" d="M1560.68,429.6a62.88,62.88,0,0,0,1.38,20.33" transform="translate(-146.75 -87.63)"/><path class="cls-9" d="M1565.29,425.72l.24-.31a102,102,0,0,0,.31,32.71" transform="translate(-146.75 -87.63)"/><path class="cls-9" d="M1572.89,430.61a194.72,194.72,0,0,0-1.59,30.71" transform="translate(-146.75 -87.63)"/><path class="cls-9" d="M1578.93,438.59a148.7,148.7,0,0,0,0,30.64" transform="translate(-146.75 -87.63)"/><path class="cls-9" d="M1583.52,445.56a238,238,0,0,0-.21,27" transform="translate(-146.75 -87.63)"/><path class="cls-9" d="M1590.06,451.74a271.63,271.63,0,0,0,1.34,27.5" transform="translate(-146.75 -87.63)"/><path class="cls-9" d="M1594.25,464.65a164.19,164.19,0,0,0,1.61,19.69" transform="translate(-146.75 -87.63)"/><path class="cls-9" d="M1481.3,290.79a330.38,330.38,0,0,0,16.32,42" transform="translate(-146.75 -87.63)"/><path class="cls-9" d="M1477.46,298.74c6.31,20.1,15.71,38.17,25,56" transform="translate(-146.75 -87.63)"/><path class="cls-9" d="M1478,314.86c18.49,46.24,41.87,82.64,72,115.49" transform="translate(-146.75 -87.63)"/><path class="cls-9" d="M1509.41,367.87a432,432,0,0,0,38.71,49" transform="translate(-146.75 -87.63)"/><path class="cls-9" d="M1520.85,375.9a213.47,213.47,0,0,0,29,38.89" transform="translate(-146.75 -87.63)"/><path class="cls-9" d="M1534.21,387q6.64,10.08,13.84,19.46" transform="translate(-146.75 -87.63)"/><path class="cls-9" d="M1550.71,432.4l10.36,12.45c8.94,10.74,18.2,21.74,29.31,27" transform="translate(-146.75 -87.63)"/><path class="cls-9" d="M1551.51,424.6A215.08,215.08,0,0,0,1592,466.88" transform="translate(-146.75 -87.63)"/><path class="cls-9" d="M1554.91,419.84A269,269,0,0,0,1587.19,456" transform="translate(-146.75 -87.63)"/><path class="cls-9" d="M1570.61,430.43q8.69,9.92,17.89,18.93" transform="translate(-146.75 -87.63)"/><path class="cls-9" d="M1593.05,478.63c10.83,14,23.59,25.14,37.31,32.58" transform="translate(-146.75 -87.63)"/><path class="cls-9" d="M1597.53,478c8,9.55,16.31,19.34,26.26,24,4,1.87,12,5.71,12,5.71" transform="translate(-146.75 -87.63)"/><path class="cls-9" d="M1597.55,473.48a226.67,226.67,0,0,1,17.41,15" transform="translate(-146.75 -87.63)"/><path class="cls-9" d="M1598.29,466.06q8.12,7.26,16.24,14.51" transform="translate(-146.75 -87.63)"/><path class="cls-9" d="M1597,488.69a119,119,0,0,0,2.76-20" transform="translate(-146.75 -87.63)"/><path class="cls-9" d="M1600.64,489.77q2.14-8.65,4.3-17.33" transform="translate(-146.75 -87.63)"/><path class="cls-9" d="M1606.93,497.87q2.25-10.69,4.51-21.37" transform="translate(-146.75 -87.63)"/><path class="cls-9" d="M1612.82,502.06a35.83,35.83,0,0,0,3.82-12.82" transform="translate(-146.75 -87.63)"/><path class="cls-9" d="M1619.5,506.54c1.54-6.08,2.8-12.32,3.76-18.66" transform="translate(-146.75 -87.63)"/><path class="cls-9" d="M1626.37,510.13a40.06,40.06,0,0,0,2.69-11.17" transform="translate(-146.75 -87.63)"/><path class="cls-9" d="M1630.49,514.9q3.63-12.78,6.18-26.14" transform="translate(-146.75 -87.63)"/><path class="cls-9" d="M1633.34,515.41l5.76-27.28" transform="translate(-146.75 -87.63)"/><path class="cls-9" d="M1637.81,519.43a133.25,133.25,0,0,0,5.14-31.78" transform="translate(-146.75 -87.63)"/><path class="cls-9" d="M1642.91,521.2a240.14,240.14,0,0,0,6.24-23.49" transform="translate(-146.75 -87.63)"/><path class="cls-9" d="M1649.05,523.91q3.15-12.58,5.38-25.6" transform="translate(-146.75 -87.63)"/><path class="cls-9" d="M1654.17,524.52q2.41-9.21,4-18.81" transform="translate(-146.75 -87.63)"/><path class="cls-9" d="M1633.78,513.35a134.88,134.88,0,0,0,27,7.36" transform="translate(-146.75 -87.63)"/><path class="cls-9" d="M1633.77,504.63a75.3,75.3,0,0,0,33.94,12" transform="translate(-146.75 -87.63)"/><path class="cls-9" d="M1660,513c7.74-.24,15.7-.62,22.32-9.12" transform="translate(-146.75 -87.63)"/><path class="cls-9" d="M1500.16,379.66c13.39,21,30.72,42.48,56.56,73.92,46.67,56.79,75.29,71.3,75.29,71.3s19,11.5,39.84,3.75c17.59-6.55,36.16-29.88,48.2-54.64,0,0,14.92-31.66,30-95.93,6.73-28.76,19.82-85.47,20.81-131.55.91-41.77-18.92-118-60.94-144-53.76-33.22-80.6-1.72-90.68,17-7,13-13.72,33.12-30.47,38.89-7.94,2.73-18.13,2.23-31.67-3.79-13-5.75-30.9-10.18-54.43,2.9-16.29,9.06-41,26.5-42.19,84.46C1459,310.47,1482.69,352.26,1500.16,379.66Z" transform="translate(-146.75 -87.63)"/><path class="cls-9" d="M1619.92,143c-9.63,17.77-18.68,49.94-57.86,32.65-12-5.31-28.75-9.38-50.66,2.78-15.17,8.43-38.16,24.64-39.34,78.39-1.39,63.51,20.6,102.22,36.84,127.6,12.43,19.44,28.54,39.34,52.57,68.45,43.38,52.58,70,66,70,66s17.73,10.63,37.08,3.42c16.38-6.11,33.68-27.78,44.91-50.76,0,0,13.92-29.38,28-89,6.29-26.68,18.52-79.29,19.49-122,.88-38.74-17.5-109.39-56.59-133.4C1654.33,96.42,1629.32,125.67,1619.92,143Z" transform="translate(-146.75 -87.63)"/><path class="cls-9" d="M1629.41,280c-2.61,4.81-5.05,13.52-15.66,8.84-3.26-1.44-7.78-2.54-13.71.75-4.11,2.28-10.33,6.67-10.65,21.22-.38,17.19,5.58,27.67,10,34.54,3.37,5.26,7.73,10.64,14.23,18.53,11.74,14.23,19,17.86,19,17.86a12.6,12.6,0,0,0,10,.92c4.43-1.65,9.12-7.52,12.16-13.74,0,0,3.76-7.95,7.57-24.09,1.7-7.22,5-21.46,5.27-33,.24-10.49-4.73-29.61-15.31-36.11C1638.72,267.35,1632,275.27,1629.41,280Z" transform="translate(-146.75 -87.63)"/><path class="cls-9" d="M1590.36,323.54c3.56,5.5,14.07,20.12,21,28.37,12.45,14.88,20.1,18.65,20.1,18.65a13.46,13.46,0,0,0,10.67.91c4.72-1.76,11.56-8.84,14.6-15.66,3.11-7,5.5-13.8,9.6-30.79" transform="translate(-146.75 -87.63)"/><text class="cls-10" transform="translate(264.24 337.76)">BAKELOVE</text></svg>