<svg id="Layer_1" data-name="Layer 1" xmlns="http://www.w3.org/2000/svg" viewBox="0 0 163.33 185.73"><defs><style>.cls-1{fill:#ef932f;}.cls-2,.cls-5,.cls-8{fill:#fff;}.cls-2{opacity:0.25;}.cls-3{fill:#d6812e;}.cls-4{fill:#f05b59;}.cls-5{opacity:0.2;}.cls-6{fill:#fde270;}.cls-7{fill:#65cae3;}.cls-9{fill:none;stroke:#623334;stroke-linecap:round;stroke-linejoin:round;stroke-width:0.75px;}</style></defs><path class="cls-1" d="M920.44,1924.72c7,8.76,16.08,17.72,29.61,30.84,24.44,23.7,39.42,29.76,39.42,29.76s10,4.79,20.87,1.56c9.21-2.73,18.93-12.47,25.24-22.8,0,0,7.81-13.21,15.69-40,3.52-12,10.37-35.66,10.89-54.89.48-17.43-9.9-49.23-31.91-60.07-28.15-13.86-42.2-.72-47.48,7.08-5.41,8-10.48,22.46-32.54,14.65-6.78-2.4-16.18-4.24-28.5,1.21-8.53,3.78-21.46,11.06-22.09,35.24C898.89,1895.85,911.29,1913.29,920.44,1924.72Zm45.24-33.09c.18-6.55,3.68-8.52,6-9.54a9.86,9.86,0,0,1,7.72-.33c6,2.12,7.34-1.8,8.81-4s5.23-5.67,12.85-1.92c6,2.94,8.76,11.54,8.64,16.26a41.61,41.61,0,0,1-3.2,13.93,83.79,83.79,0,0,1-4.08,8.7c-1.72,2.78-5.15,5.79-7.64,6.53a9.09,9.09,0,0,1-5,.21s-4-1.64-10.67-8.06a95.39,95.39,0,0,1-8-8.34C968.59,1902,965.48,1899.37,965.68,1891.63Z" transform="translate(-899.23 -1802.64)"/><path class="cls-2" d="M1053,1841.6c1,2.25,1.61,4.65,2.51,6.94a13.46,13.46,0,0,1,.81,2.39,11.57,11.57,0,0,1,.12,2.56,61.65,61.65,0,0,0,.94,13.33c.69,3.56,1.83,7.1,1.91,10.69,0,.68-.07,1.48-.56,1.75a1.07,1.07,0,0,1-.62.09c-2.6-.16-5.1-3.17-5.28-6.36a32.89,32.89,0,0,1,.25-3.85,26.89,26.89,0,0,0-.23-4.19c-.3-2.82-.61-5.65-.91-8.47a24.11,24.11,0,0,0-1.08-5.66,38.4,38.4,0,0,0-3-5.52,10.75,10.75,0,0,1-1.67-6C1046.83,1832.38,1051.66,1838.55,1053,1841.6Z" transform="translate(-899.23 -1802.64)"/><path class="cls-2" d="M1024.86,1812.93c1.63,1.19,3.36,2.15,5,3.42,2.46,2,4.63,4.71,7.37,5.77.57.22,1.15.36,1.72.58a8.12,8.12,0,0,1,2.9,2,6.66,6.66,0,0,0,1.16,1.1,1.05,1.05,0,0,0,1.32,0c.62-.65.11-2-.47-2.82a17.11,17.11,0,0,0-7.2-6.16c-.75-.32-1.51-.58-2.24-1a29.49,29.49,0,0,1-4-3.25,22.75,22.75,0,0,0-7.38-3.83c-1-.33-2.41-.81-1.42,1A11.08,11.08,0,0,0,1024.86,1812.93Z" transform="translate(-899.23 -1802.64)"/><path class="cls-2" d="M902.36,1859.65c.71-3.14,1.62-6.16,3.22-8.22.94-1.21,2.11-2.09,2.79-3.66.34-.8.55-1.75.82-2.63,1-3.22,5.48-3.83,7.93-4.74a1.83,1.83,0,0,1,.79-.1,9.13,9.13,0,0,1,3.83-3.45c1.82-.77,3.76-1.14,5.6-1.83a7.18,7.18,0,0,1,1.94-.57,6.92,6.92,0,0,1,2.09.31,33.63,33.63,0,0,0,10.85,1.24c2.89-.21,5.76-1,8.68-.42a1.71,1.71,0,0,1,1.44,1,2.29,2.29,0,0,1,.09.78c-.08,3.18-2.48,5.7-5.09,5.36a22,22,0,0,1-3.14-1,14.29,14.29,0,0,0-3.41-.47l-6.89-.4a12.38,12.38,0,0,0-4.59.3,22.25,22.25,0,0,0-4.45,2.65,5.62,5.62,0,0,1-4.87,1,7,7,0,0,1-1-.46l-.26.2c-.77.65-4,0-4.33,1.27-.18.68-.29,1.43-.47,2.12-.87,3.3-3.26,4.63-4.94,6.9-1.1,1.47-1.9,3.36-2.92,5-.67,1-1.59,2.51-2.75,2.67C901.71,1862.64,902.09,1860.87,902.36,1859.65Z" transform="translate(-899.23 -1802.64)"/><path class="cls-3" d="M980.28,1825.11c-1.1,8.58-7.41,19.38-25.26,14,0,0-3.25-3.46,2.64-4,5.32-.51,13.14,1.35,19.57-8.84C977.23,1826.2,980.88,1820.4,980.28,1825.11Z" transform="translate(-899.23 -1802.64)"/><path class="cls-4" d="M925,1926.72c6.51,8.11,15,16.41,27.53,28.56,22.72,21.94,36.65,27.54,36.65,27.54s9.28,4.43,19.42,1.42c8.57-2.55,17.63-11.59,23.51-21.18,0,0,7.29-12.26,14.65-37.14,3.29-11.13,9.7-33.08,10.2-50.91.47-16.17-9.16-45.64-29.63-55.66-26.18-12.82-39.27-.61-44.2,6.63-5,7.41-9.77,20.84-30.29,13.63-6.31-2.22-15.05-3.92-26.53,1.16-7.94,3.51-20,10.28-20.6,32.7C905,1900,916.51,1916.13,925,1926.72ZM967.16,1896c.17-6.07,3.43-7.9,5.58-8.85a9.18,9.18,0,0,1,7.18-.31c5.55,2,6.83-1.68,8.2-3.69s4.87-5.27,12-1.8c5.54,2.72,8.14,10.69,8,15.07-.14,4.83-1.87,10.77-2.76,13.78a48.76,48.76,0,0,1-4,10c-1.59,2.6-4,5-6.36,5.73a8,8,0,0,1-5.26-.38s-3.77-1.52-9.92-7.45a88.83,88.83,0,0,1-7.45-7.74A20.73,20.73,0,0,1,967.16,1896Z" transform="translate(-899.23 -1802.64)"/><path class="cls-5" d="M932.57,1922.81c8.19,10.61,18.84,18.44,28.38,27,7.52,6.76,15.29,10.71,23.71,15,7.58,3.86,15.05,6.89,22.81,4.36,17-5.55,26.43-22.19,32.72-41.19a123.1,123.1,0,0,0,4-60.14c-1.84-10-5.7-19.09-11.88-26.31a19.35,19.35,0,0,0-8.13-7.29,17.44,17.44,0,0,0-5-2.33c-.32-.08-.65-.15-1-.21a47,47,0,0,0-14.82-2.92c-13.34-.24-21.8,9.74-29.31,21.37-1.07,1.66-1.91,3.39-3.76,3.44-1.41,0-3.45-1.1-4.83-1.72-6.88-3.1-13.47-5.84-20.49-6.23-15.48-.86-25.88,13.53-26.63,32.89a16.18,16.18,0,0,0,.16,3,6.05,6.05,0,0,0-.17,2.67c1,7.14,1.78,14.84,4.27,21.62A64.38,64.38,0,0,0,932.57,1922.81ZM946,1918.1c-3.14-3.5-11-9.91-14.1-21.86-1.5-5.71-.31-12.39,4-16.74,2.48-2.48,6-4.36,11.18-5.22,3.37-.56,7.09.26,10.5,1,4.47.94,8.86,3.45,13.33,4.08a17,17,0,0,0,14.92-4.95c6.42-6.27,9.09-17.67,18-20,4.46-1.17,7.1-3.23,11.75-2,1.72.45,6.34,4.31,7.71,5.36,5.37,4.11,6.79,16.89,7.59,24.44,1.65,15.64-2.44,27.92-7.53,41.52-2.46,6.57-5.51,14.08-10,18.75-3.69,3.83-8.82,9.2-14.22,8.61-5.7-.64-10.07.59-15.2-2.65-6.7-4.24-11.22-7.8-17.75-12.39A116.38,116.38,0,0,1,946,1918.1Z" transform="translate(-899.23 -1802.64)"/><path class="cls-6" d="M997.08,1853a1.49,1.49,0,0,1,1-1.63l6.1-1.66a1.56,1.56,0,0,1,1.76,1.32,2,2,0,0,1,0,1,1.5,1.5,0,0,1-1,1.63l-6.1,1.65a1.56,1.56,0,0,1-1.76-1.31A2,2,0,0,1,997.08,1853Z" transform="translate(-899.23 -1802.64)"/><path class="cls-6" d="M969.48,1925.77a1.13,1.13,0,0,1,.81,0,1.57,1.57,0,0,1,1.53,1.17l2.61,7.48a1.72,1.72,0,0,1-.71,2.17,1.13,1.13,0,0,1-.81,0,1.58,1.58,0,0,1-1.53-1.17l-2.6-7.48A1.7,1.7,0,0,1,969.48,1925.77Z" transform="translate(-899.23 -1802.64)"/><path class="cls-6" d="M1036.08,1887.88l3.91-5.74a1.2,1.2,0,0,1,2-.08,2.13,2.13,0,0,1,.48.87,2,2,0,0,1,0,2.12l-3.9,5.74a1.21,1.21,0,0,1-2,.07,1.9,1.9,0,0,1-.47-.87A2,2,0,0,1,1036.08,1887.88Z" transform="translate(-899.23 -1802.64)"/><path class="cls-6" d="M944.06,1896l3.9-5.74a1.21,1.21,0,0,1,2-.07,1.9,1.9,0,0,1,.47.87,2,2,0,0,1,0,2.11l-3.9,5.74a1.21,1.21,0,0,1-2,.08,2,2,0,0,1-.47-.87A2,2,0,0,1,944.06,1896Z" transform="translate(-899.23 -1802.64)"/><path class="cls-6" d="M1014.62,1921.2l1.91-7.25a1.22,1.22,0,0,1,1.74-.91,1.7,1.7,0,0,1,.68.65,2.09,2.09,0,0,1,.62,2l-1.91,7.25a1.22,1.22,0,0,1-1.75.91,1.71,1.71,0,0,1-.67-.64A2.08,2.08,0,0,1,1014.62,1921.2Z" transform="translate(-899.23 -1802.64)"/><path class="cls-6" d="M990.89,1966.7l3.91-5.74a1.2,1.2,0,0,1,2-.07,3.15,3.15,0,0,1,.5,3l-3.9,5.74a1.21,1.21,0,0,1-2,.07,1.92,1.92,0,0,1-.47-.86A2,2,0,0,1,990.89,1966.7Z" transform="translate(-899.23 -1802.64)"/><path class="cls-6" d="M924.72,1868.75l3.9-5.75a1.21,1.21,0,0,1,2-.07,2,2,0,0,1,.47.87,2,2,0,0,1,0,2.11l-3.9,5.74a1.21,1.21,0,0,1-2,.08,2,2,0,0,1-.47-.87A2,2,0,0,1,924.72,1868.75Z" transform="translate(-899.23 -1802.64)"/><path class="cls-7" d="M970.47,1860.25a2.17,2.17,0,0,1,0-1.21,1.21,1.21,0,0,1,1.81-.78l6,3.49a3.49,3.49,0,0,1,.91,3,1.21,1.21,0,0,1-1.8.78l-6-3.49A2,2,0,0,1,970.47,1860.25Z" transform="translate(-899.23 -1802.64)"/><path class="cls-7" d="M1025.54,1942.19l4.31-5.32a1.17,1.17,0,0,1,1.6-.23,1.53,1.53,0,0,1,.92.55,2,2,0,0,1,.1,2.43l-4.31,5.32a1.15,1.15,0,0,1-1.59.22,1.42,1.42,0,0,1-.92-.54A2,2,0,0,1,1025.54,1942.19Z" transform="translate(-899.23 -1802.64)"/><path class="cls-7" d="M1026.27,1900.15a2.08,2.08,0,0,1,0-1.21,1.21,1.21,0,0,1,1.79-.81l6.06,3.43a2,2,0,0,1,.91,1.76,2.08,2.08,0,0,1,0,1.21,1.21,1.21,0,0,1-1.79.8l-6.06-3.42A2,2,0,0,1,1026.27,1900.15Z" transform="translate(-899.23 -1802.64)"/><path class="cls-7" d="M980.1,1840.65l4.71-4.78a1.18,1.18,0,0,1,1.62,0,1.61,1.61,0,0,1,.89.64,2,2,0,0,1-.07,2.42l-4.72,4.77a1.18,1.18,0,0,1-1.62,0,1.55,1.55,0,0,1-.89-.64A2,2,0,0,1,980.1,1840.65Z" transform="translate(-899.23 -1802.64)"/><path class="cls-7" d="M916.3,1899.3a2,2,0,0,1,0-1.2,1.21,1.21,0,0,1,1.8-.81l6,3.42a2,2,0,0,1,.92,1.76,2.08,2.08,0,0,1,0,1.21,1.22,1.22,0,0,1-1.8.81l-6-3.43A2,2,0,0,1,916.3,1899.3Z" transform="translate(-899.23 -1802.64)"/><path class="cls-7" d="M1023.2,1836.44a2,2,0,0,1,0-1.2,1.22,1.22,0,0,1,1.8-.81l6,3.42a2,2,0,0,1,.92,1.77,2,2,0,0,1,0,1.2,1.21,1.21,0,0,1-1.79.81l-6.06-3.43A2,2,0,0,1,1023.2,1836.44Z" transform="translate(-899.23 -1802.64)"/><path class="cls-7" d="M940.94,1851.36a1.66,1.66,0,0,1,.7-1.72,1.12,1.12,0,0,1,.83-.53,1.68,1.68,0,0,1,1.64,1.56l1.2,7.88a1.67,1.67,0,0,1-.7,1.72,1.15,1.15,0,0,1-.84.53,1.67,1.67,0,0,1-1.63-1.56Z" transform="translate(-899.23 -1802.64)"/><path class="cls-8" d="M1009.31,1875.76a1.44,1.44,0,0,1,.57-.72,1.23,1.23,0,0,1,1.78-.33l6.21,4.18a2.19,2.19,0,0,1,.74,2.49,1.44,1.44,0,0,1-.57.72,1.25,1.25,0,0,1-1.78.33l-6.21-4.18A2.19,2.19,0,0,1,1009.31,1875.76Z" transform="translate(-899.23 -1802.64)"/><path class="cls-8" d="M1028,1922.32a2,2,0,0,1,.71-2.18l6.32-3.84a1.58,1.58,0,0,1,2.2.94,2.59,2.59,0,0,1,.23,1.14,2,2,0,0,1-.71,2.18l-6.32,3.85a1.59,1.59,0,0,1-2.2-1A2.43,2.43,0,0,1,1028,1922.32Z" transform="translate(-899.23 -1802.64)"/><path class="cls-8" d="M949.05,1874.93a1.68,1.68,0,0,1,.6-1.86l5.41-3.29a1.35,1.35,0,0,1,1.88.81,2,2,0,0,1,.19,1,1.7,1.7,0,0,1-.6,1.86l-5.41,3.29a1.35,1.35,0,0,1-1.88-.81A2,2,0,0,1,949.05,1874.93Z" transform="translate(-899.23 -1802.64)"/><path class="cls-8" d="M989.77,1943.32a1.71,1.71,0,0,1,.6-1.86l5.41-3.29a1.37,1.37,0,0,1,1.89.81,2.21,2.21,0,0,1,.19,1,1.72,1.72,0,0,1-.6,1.87l-5.41,3.29a1.37,1.37,0,0,1-1.89-.81A2.28,2.28,0,0,1,989.77,1943.32Z" transform="translate(-899.23 -1802.64)"/><path class="cls-8" d="M1004.28,1952.55a1.22,1.22,0,0,1,.66-.48,1.19,1.19,0,0,1,1.69.17l5,5.3a2,2,0,0,1,.25,2.39,1.17,1.17,0,0,1-.65.48,1.2,1.2,0,0,1-1.7-.17l-5-5.3A2,2,0,0,1,1004.28,1952.55Z" transform="translate(-899.23 -1802.64)"/><path class="cls-8" d="M1004.76,1827.63a1.17,1.17,0,0,1,.65-.48,1.19,1.19,0,0,1,1.69.17l5,5.3a2,2,0,0,1,.25,2.39,1.17,1.17,0,0,1-.65.48,1.2,1.2,0,0,1-1.7-.17l-5-5.3A2,2,0,0,1,1004.76,1827.63Z" transform="translate(-899.23 -1802.64)"/><path class="cls-8" d="M947.18,1936a1.72,1.72,0,0,1,.6-1.87l5.41-3.29a1.36,1.36,0,0,1,1.88.81,2,2,0,0,1,.19,1,1.68,1.68,0,0,1-.6,1.86l-5.41,3.29a1.36,1.36,0,0,1-1.88-.81A2,2,0,0,1,947.18,1936Z" transform="translate(-899.23 -1802.64)"/><path class="cls-8" d="M1023.14,1860.82a1.72,1.72,0,0,1,.6-1.87l5.41-3.28a1.36,1.36,0,0,1,1.89.81,2.21,2.21,0,0,1,.19,1,1.7,1.7,0,0,1-.6,1.86l-5.41,3.29a1.36,1.36,0,0,1-1.89-.81A2.21,2.21,0,0,1,1023.14,1860.82Z" transform="translate(-899.23 -1802.64)"/><path class="cls-8" d="M938.74,1908a1.5,1.5,0,0,1,.57-.72,1.23,1.23,0,0,1,1.78-.33l6.21,4.18a2.18,2.18,0,0,1,.74,2.48,1.42,1.42,0,0,1-.57.73,1.24,1.24,0,0,1-1.77.33l-6.22-4.18A2.2,2.2,0,0,1,938.74,1908Z" transform="translate(-899.23 -1802.64)"/><path class="cls-8" d="M923.09,1882.34a1.46,1.46,0,0,1,.58-.72,1.22,1.22,0,0,1,1.77-.33l6.21,4.18a2.19,2.19,0,0,1,.75,2.49,1.5,1.5,0,0,1-.57.72,1.25,1.25,0,0,1-1.78.33l-6.21-4.18A2.2,2.2,0,0,1,923.09,1882.34Z" transform="translate(-899.23 -1802.64)"/><path class="cls-8" d="M963.6,1948.89a1.53,1.53,0,0,1,.57-.73,1.25,1.25,0,0,1,1.78-.33l6.21,4.18a2.19,2.19,0,0,1,.75,2.49,1.5,1.5,0,0,1-.57.72,1.23,1.23,0,0,1-1.78.33l-6.21-4.18A2.18,2.18,0,0,1,963.6,1948.89Z" transform="translate(-899.23 -1802.64)"/><path class="cls-9" d="M1003.15,1864.45c-.39,5-.83,10.24-2.9,14.43" transform="translate(-899.23 -1802.64)"/><path class="cls-9" d="M1000.58,1863.94a79.29,79.29,0,0,1-1.29,9.31c-.37,1.86-.86,3.79-2,5" transform="translate(-899.23 -1802.64)"/><path class="cls-9" d="M997.3,1864.29a102.46,102.46,0,0,1-1.2,13.18" transform="translate(-899.23 -1802.64)"/><path class="cls-9" d="M993.9,1867.25a30,30,0,0,1-.16,10.28" transform="translate(-899.23 -1802.64)"/><path class="cls-9" d="M991.42,1879.2c-.16-2.44,0-4.85,0-7.28a16.88,16.88,0,0,0-1.36-7.15" transform="translate(-899.23 -1802.64)"/><path class="cls-9" d="M990,1880.76a64.79,64.79,0,0,0-4.34-12.54" transform="translate(-899.23 -1802.64)"/><path class="cls-9" d="M1004.79,1877.52c-1,1.22-2.12,2.4-3.23,3.52" transform="translate(-899.23 -1802.64)"/><path class="cls-9" d="M1002.6,1877.19a13.34,13.34,0,0,1-2.43,2.59" transform="translate(-899.23 -1802.64)"/><path class="cls-9" d="M986.7,1883.26c-.51-.13-.82-.8-1-1.39L981,1869.62" transform="translate(-899.23 -1802.64)"/><path class="cls-9" d="M985.66,1886a82.64,82.64,0,0,1-5.08-11.34" transform="translate(-899.23 -1802.64)"/><path class="cls-9" d="M982.66,1887.36a64.44,64.44,0,0,1-4.46-12.2" transform="translate(-899.23 -1802.64)"/><path class="cls-9" d="M970.52,1888.13a68.1,68.1,0,0,1-3-14.74" transform="translate(-899.23 -1802.64)"/><path class="cls-9" d="M968.13,1890a112.93,112.93,0,0,1-3-15.87" transform="translate(-899.23 -1802.64)"/><path class="cls-9" d="M966.39,1892a76.43,76.43,0,0,0-3.85-9.61" transform="translate(-899.23 -1802.64)"/><path class="cls-9" d="M965.57,1894.61c-1.25-2.52-2.5-5-3.76-7.55" transform="translate(-899.23 -1802.64)"/><path class="cls-9" d="M966,1897.3a54.81,54.81,0,0,1-5.49-7.13" transform="translate(-899.23 -1802.64)"/><path class="cls-9" d="M967.43,1902.07l-7-7.54" transform="translate(-899.23 -1802.64)"/><path class="cls-9" d="M960.21,1882.9a16.59,16.59,0,0,0-2.37,5.32" transform="translate(-899.23 -1802.64)"/><path class="cls-9" d="M962.33,1884.22a35,35,0,0,0-3,5.74" transform="translate(-899.23 -1802.64)"/><path class="cls-9" d="M965.89,1883.06a28.44,28.44,0,0,0-5.73,10.59" transform="translate(-899.23 -1802.64)"/><path class="cls-9" d="M968.94,1882.46a29.73,29.73,0,0,0-7,13.43" transform="translate(-899.23 -1802.64)"/><path class="cls-9" d="M973.14,1882.56a36.86,36.86,0,0,0-5.68,4.61" transform="translate(-899.23 -1802.64)"/><path class="cls-9" d="M988.9,1881.06a8,8,0,0,0-3.6,2.1" transform="translate(-899.23 -1802.64)"/><path class="cls-9" d="M991.26,1876.28c.13,0,.12-.27,0-.34s-.25,0-.36.07q-3.78,2.49-7.55,5" transform="translate(-899.23 -1802.64)"/><path class="cls-9" d="M990.66,1871.44a72.66,72.66,0,0,0-8.62,8" transform="translate(-899.23 -1802.64)"/><path class="cls-9" d="M989.25,1868.63l.35-.48-8.73,7.49" transform="translate(-899.23 -1802.64)"/><path class="cls-9" d="M1002.69,1877.79a50.45,50.45,0,0,0-10.85-3.17" transform="translate(-899.23 -1802.64)"/><path class="cls-9" d="M1002.24,1874.32a30.67,30.67,0,0,0-9.43-1.61" transform="translate(-899.23 -1802.64)"/><path class="cls-9" d="M1004.8,1866l-6.67-.66" transform="translate(-899.23 -1802.64)"/><path class="cls-9" d="M1006,1882.14a3.72,3.72,0,0,0-2.88.61" transform="translate(-899.23 -1802.64)"/><path class="cls-9" d="M976.15,1886.09a59.39,59.39,0,0,1-1.21-12.43" transform="translate(-899.23 -1802.64)"/><path class="cls-9" d="M971.88,1887.39a42.51,42.51,0,0,1-.9-10.65" transform="translate(-899.23 -1802.64)"/><path class="cls-9" d="M983.28,1884.14a39.85,39.85,0,0,0-9.13.36" transform="translate(-899.23 -1802.64)"/><path class="cls-9" d="M982.05,1880.47a38.75,38.75,0,0,0-9.13.36" transform="translate(-899.23 -1802.64)"/><path class="cls-9" d="M1050.36,1873.76a82.63,82.63,0,0,1,4.84,13.49" transform="translate(-899.23 -1802.64)"/><path class="cls-9" d="M1050,1867.14a63.18,63.18,0,0,1,6,12.75" transform="translate(-899.23 -1802.64)"/><path class="cls-9" d="M1050,1863.65a30.15,30.15,0,0,1,6.69,11.44" transform="translate(-899.23 -1802.64)"/><path class="cls-9" d="M1050.58,1857.16a26,26,0,0,1,5.45,9.95" transform="translate(-899.23 -1802.64)"/><path class="cls-9" d="M1052.72,1884a20.9,20.9,0,0,1,2.45,6.57" transform="translate(-899.23 -1802.64)"/><path class="cls-9" d="M1051.64,1887.63a26.35,26.35,0,0,1,2.92,7.46" transform="translate(-899.23 -1802.64)"/><path class="cls-9" d="M1051.48,1891.86a21.32,21.32,0,0,1,2.57,5.88" transform="translate(-899.23 -1802.64)"/><path class="cls-9" d="M1049.73,1894a24.11,24.11,0,0,1,3.35,8.24" transform="translate(-899.23 -1802.64)"/><path class="cls-9" d="M1048.15,1896.34a43.06,43.06,0,0,1,3.75,10.13" transform="translate(-899.23 -1802.64)"/><path class="cls-9" d="M1047.1,1900.49a29.52,29.52,0,0,1,4.17,9.09" transform="translate(-899.23 -1802.64)"/><path class="cls-9" d="M1045.44,1903a36.58,36.58,0,0,1,4.88,9.93" transform="translate(-899.23 -1802.64)"/><path class="cls-9" d="M1044.07,1906.87a82.46,82.46,0,0,1,5.25,9.62" transform="translate(-899.23 -1802.64)"/><path class="cls-9" d="M1043.5,1909.76a37.44,37.44,0,0,1,5.1,9.73" transform="translate(-899.23 -1802.64)"/><path class="cls-9" d="M1044.7,1915.66c1,3.24,1.64,5.35,2.44,8.67" transform="translate(-899.23 -1802.64)"/><path class="cls-9" d="M1042.23,1922a22.39,22.39,0,0,1,2.82,7.52" transform="translate(-899.23 -1802.64)"/><path class="cls-9" d="M1039.8,1921.62l-.14-.06a30,30,0,0,1,5.2,10.53" transform="translate(-899.23 -1802.64)"/><path class="cls-9" d="M1037.67,1925a67.74,67.74,0,0,1,5.69,10.57" transform="translate(-899.23 -1802.64)"/><path class="cls-9" d="M1036.65,1929.08a52.41,52.41,0,0,1,5.06,10.88" transform="translate(-899.23 -1802.64)"/><path class="cls-9" d="M1036,1932.53a83.46,83.46,0,0,1,4.54,9.54" transform="translate(-899.23 -1802.64)"/><path class="cls-9" d="M1034.51,1936.11a96.61,96.61,0,0,1,4,10.05" transform="translate(-899.23 -1802.64)"/><path class="cls-9" d="M1035,1941.58a59.83,59.83,0,0,1,2.63,7.34" transform="translate(-899.23 -1802.64)"/><path class="cls-9" d="M1050,1855.9a129.87,129.87,0,0,1,.61,18.36" transform="translate(-899.23 -1802.64)"/><path class="cls-9" d="M1052.82,1857.91c.88,8.48.22,16.89-.43,25.21" transform="translate(-899.23 -1802.64)"/><path class="cls-9" d="M1055.24,1861.6a167.75,167.75,0,0,1-8.74,58.42" transform="translate(-899.23 -1802.64)"/><path class="cls-9" d="M1051.87,1889.23a190.74,190.74,0,0,1-6.89,25.6" transform="translate(-899.23 -1802.64)"/><path class="cls-9" d="M1048.77,1894.51a93.59,93.59,0,0,1-4.78,20" transform="translate(-899.23 -1802.64)"/><path class="cls-9" d="M1045.42,1901.26c-.6,3.33-1.31,6.62-2.14,9.85" transform="translate(-899.23 -1802.64)"/><path class="cls-9" d="M1046.55,1920.91l-2,6.61c-1.69,5.71-3.46,11.58-6.89,15.81" transform="translate(-899.23 -1802.64)"/><path class="cls-9" d="M1045,1918.31a99,99,0,0,1-8.7,23.6" transform="translate(-899.23 -1802.64)"/><path class="cls-9" d="M1042.85,1917.33a122.61,122.61,0,0,1-6.52,19.7" transform="translate(-899.23 -1802.64)"/><path class="cls-9" d="M1038.52,1924.42q-1.73,5.37-3.8,10.51" transform="translate(-899.23 -1802.64)"/><path class="cls-9" d="M1037.79,1946.3a57.06,57.06,0,0,1-9,19.47" transform="translate(-899.23 -1802.64)"/><path class="cls-9" d="M1036,1947c-1.52,5.09-3.12,10.32-6.21,14.07-1.25,1.52-2.74,2.78-3.72,4.58" transform="translate(-899.23 -1802.64)"/><path class="cls-9" d="M1035.2,1945.42c-1.54,2.9-3,5.92-4.26,9" transform="translate(-899.23 -1802.64)"/><path class="cls-9" d="M1033.69,1942.94l-3.89,8.6" transform="translate(-899.23 -1802.64)"/><path class="cls-9" d="M1037.92,1950.71a40,40,0,0,1-4.38-6.53" transform="translate(-899.23 -1802.64)"/><path class="cls-9" d="M1036.7,1951.86l-4.53-5.24" transform="translate(-899.23 -1802.64)"/><path class="cls-9" d="M1035.6,1956.07l-5.28-6.63" transform="translate(-899.23 -1802.64)"/><path class="cls-9" d="M1034,1958.8a12.17,12.17,0,0,1-3.6-3.74" transform="translate(-899.23 -1802.64)"/><path class="cls-9" d="M1032.17,1961.81a65.71,65.71,0,0,1-4.54-5.83" transform="translate(-899.23 -1802.64)"/><path class="cls-9" d="M1030.1,1964.54a13.62,13.62,0,0,1-2.89-3.39" transform="translate(-899.23 -1802.64)"/><path class="cls-9" d="M1029.3,1967.11a100.08,100.08,0,0,1-6.72-8" transform="translate(-899.23 -1802.64)"/><path class="cls-9" d="M1028.28,1967.9q-3.37-4.25-6.74-8.48" transform="translate(-899.23 -1802.64)"/><path class="cls-9" d="M1026.7,1969.9a41.43,41.43,0,0,1-6.74-9.83" transform="translate(-899.23 -1802.64)"/><path class="cls-9" d="M1025.53,1972a81.35,81.35,0,0,1-6.3-7" transform="translate(-899.23 -1802.64)"/><path class="cls-9" d="M1023.27,1973.83c-2.2-2.53-4-4.78-6-7.54" transform="translate(-899.23 -1802.64)"/><path class="cls-9" d="M1021.71,1975.54a68.68,68.68,0,0,1-4.65-5.83" transform="translate(-899.23 -1802.64)"/><path class="cls-9" d="M1027.77,1967.25a69,69,0,0,1-9.25,8.34" transform="translate(-899.23 -1802.64)"/><path class="cls-9" d="M1025.35,1965.15a31.64,31.64,0,0,1-10.19,10.44" transform="translate(-899.23 -1802.64)"/><path class="cls-9" d="M1023.3,1963.91c-3.72,4.54-7.58,9.17-12.56,11.47" transform="translate(-899.23 -1802.64)"/><path class="cls-9" d="M919.15,1904.53a77.71,77.71,0,0,0,1.55,15.11" transform="translate(-899.23 -1802.64)"/><path class="cls-9" d="M916.25,1898.14a60.63,60.63,0,0,0,0,15" transform="translate(-899.23 -1802.64)"/><path class="cls-9" d="M914.43,1894.89c-1.62,4.41-2.45,8-1.79,12.77" transform="translate(-899.23 -1802.64)"/><path class="cls-9" d="M910.58,1889.1a22.9,22.9,0,0,0-.83,11.52" transform="translate(-899.23 -1802.64)"/><path class="cls-9" d="M921.74,1915.33a22.72,22.72,0,0,0,.71,8" transform="translate(-899.23 -1802.64)"/><path class="cls-9" d="M924.72,1918.18a25.26,25.26,0,0,0,.6,8.48" transform="translate(-899.23 -1802.64)"/><path class="cls-9" d="M927,1922.06a26.31,26.31,0,0,0,.47,7.76" transform="translate(-899.23 -1802.64)"/><path class="cls-9" d="M930,1923.19a28.12,28.12,0,0,0,1,10.47" transform="translate(-899.23 -1802.64)"/><path class="cls-9" d="M932.86,1924.55a46.36,46.36,0,0,0,1.11,12.19" transform="translate(-899.23 -1802.64)"/><path class="cls-9" d="M936.07,1927.89a29.65,29.65,0,0,0-.23,10.91" transform="translate(-899.23 -1802.64)"/><path class="cls-9" d="M939.14,1929.42a40.54,40.54,0,0,0-.07,12.68" transform="translate(-899.23 -1802.64)"/><path class="cls-9" d="M942.54,1932.31a86.84,86.84,0,0,0-.88,12.29" transform="translate(-899.23 -1802.64)"/><path class="cls-9" d="M944.6,1934.73a38.78,38.78,0,0,0-.5,12.17" transform="translate(-899.23 -1802.64)"/><path class="cls-9" d="M946.26,1940.87c.51,3.57,1,6.3,1.81,9.81" transform="translate(-899.23 -1802.64)"/><path class="cls-9" d="M952.12,1945.56a21,21,0,0,0,.73,8.48" transform="translate(-899.23 -1802.64)"/><path class="cls-9" d="M954.54,1943.94l.12-.13a34.12,34.12,0,0,0,.17,13.65" transform="translate(-899.23 -1802.64)"/><path class="cls-9" d="M958.52,1946a65.14,65.14,0,0,0-.84,12.81" transform="translate(-899.23 -1802.64)"/><path class="cls-9" d="M961.68,1949.31a49.7,49.7,0,0,0,0,12.78" transform="translate(-899.23 -1802.64)"/><path class="cls-9" d="M964.09,1952.22a76.91,76.91,0,0,0-.11,11.26" transform="translate(-899.23 -1802.64)"/><path class="cls-9" d="M967.51,1954.8a90,90,0,0,0,.7,11.47" transform="translate(-899.23 -1802.64)"/><path class="cls-9" d="M969.7,1960.18a55.47,55.47,0,0,0,.85,8.22" transform="translate(-899.23 -1802.64)"/><path class="cls-9" d="M910.56,1887.64a122.12,122.12,0,0,0,8.55,17.5" transform="translate(-899.23 -1802.64)"/><path class="cls-9" d="M908.55,1891c3.31,8.39,8.23,15.93,13.1,23.39" transform="translate(-899.23 -1802.64)"/><path class="cls-9" d="M908.82,1897.68a153.18,153.18,0,0,0,37.69,48.19" transform="translate(-899.23 -1802.64)"/><path class="cls-9" d="M925.28,1919.8a192.68,192.68,0,0,0,20.27,20.43" transform="translate(-899.23 -1802.64)"/><path class="cls-9" d="M931.27,1923.15a94,94,0,0,0,15.16,16.23" transform="translate(-899.23 -1802.64)"/><path class="cls-9" d="M938.26,1927.76q3.48,4.21,7.25,8.12" transform="translate(-899.23 -1802.64)"/><path class="cls-9" d="M946.91,1946.73l5.42,5.19c4.68,4.48,9.53,9.07,15.35,11.27" transform="translate(-899.23 -1802.64)"/><path class="cls-9" d="M947.33,1943.47a102.53,102.53,0,0,0,21.22,17.64" transform="translate(-899.23 -1802.64)"/><path class="cls-9" d="M949.1,1941.49a126.84,126.84,0,0,0,16.91,15.1" transform="translate(-899.23 -1802.64)"/><path class="cls-9" d="M957.33,1945.9q4.54,4.14,9.36,7.9" transform="translate(-899.23 -1802.64)"/><path class="cls-9" d="M969.08,1966a61.22,61.22,0,0,0,19.53,13.59" transform="translate(-899.23 -1802.64)"/><path class="cls-9" d="M971.42,1965.76c4.2,4,8.54,8.07,13.75,10,2.11.78,6.31,2.38,6.31,2.38" transform="translate(-899.23 -1802.64)"/><path class="cls-9" d="M971.43,1963.87c3.12,1.93,6.17,4,9.12,6.26" transform="translate(-899.23 -1802.64)"/><path class="cls-9" d="M971.82,1960.77l8.5,6.06" transform="translate(-899.23 -1802.64)"/><path class="cls-9" d="M971.16,1970.21a40.3,40.3,0,0,0,1.45-8.36" transform="translate(-899.23 -1802.64)"/><path class="cls-9" d="M973.05,1970.67l2.25-7.24" transform="translate(-899.23 -1802.64)"/><path class="cls-9" d="M976.34,1974q1.18-4.45,2.36-8.91" transform="translate(-899.23 -1802.64)"/><path class="cls-9" d="M979.43,1975.79a12.89,12.89,0,0,0,2-5.35" transform="translate(-899.23 -1802.64)"/><path class="cls-9" d="M982.92,1977.66a65.77,65.77,0,0,0,2-7.79" transform="translate(-899.23 -1802.64)"/><path class="cls-9" d="M986.52,1979.16a13.79,13.79,0,0,0,1.41-4.66" transform="translate(-899.23 -1802.64)"/><path class="cls-9" d="M988.68,1981.15a105.43,105.43,0,0,0,3.24-10.91" transform="translate(-899.23 -1802.64)"/><path class="cls-9" d="M990.17,1981.36q1.51-5.68,3-11.38" transform="translate(-899.23 -1802.64)"/><path class="cls-9" d="M992.51,1983a45.15,45.15,0,0,0,2.7-13.26" transform="translate(-899.23 -1802.64)"/><path class="cls-9" d="M995.19,1983.78a84.62,84.62,0,0,0,3.26-9.8" transform="translate(-899.23 -1802.64)"/><path class="cls-9" d="M998.4,1984.91c1.1-3.5,2-7.07,2.81-10.68" transform="translate(-899.23 -1802.64)"/><path class="cls-9" d="M1001.08,1985.16a69.58,69.58,0,0,0,2.09-7.84" transform="translate(-899.23 -1802.64)"/><path class="cls-9" d="M990.4,1980.5a85.71,85.71,0,0,0,14.15,3.08" transform="translate(-899.23 -1802.64)"/><path class="cls-9" d="M990.4,1976.86a46.1,46.1,0,0,0,17.77,5" transform="translate(-899.23 -1802.64)"/><path class="cls-9" d="M1004.14,1980.36c4.06-.1,8.22-.26,11.69-3.81" transform="translate(-899.23 -1802.64)"/><path class="cls-9" d="M920.44,1924.72c7,8.76,16.08,17.72,29.61,30.84,24.44,23.7,39.42,29.76,39.42,29.76s10,4.79,20.87,1.56c9.21-2.73,18.93-12.47,25.24-22.8,0,0,7.81-13.21,15.69-40,3.52-12,10.37-35.66,10.89-54.89.48-17.43-9.9-49.23-31.91-60.07-28.15-13.86-42.2-.72-47.48,7.08-3.67,5.42-7.19,13.83-16,16.23-4.15,1.14-9.49.93-16.58-1.58-6.78-2.4-16.18-4.24-28.5,1.21-8.53,3.78-21.46,11.06-22.09,35.24C898.89,1895.85,911.29,1913.29,920.44,1924.72Z" transform="translate(-899.23 -1802.64)"/><path class="cls-9" d="M983.14,1826c-5,7.41-9.77,20.84-30.29,13.63-6.31-2.22-15.05-3.92-26.53,1.16-7.94,3.51-20,10.28-20.6,32.7-.73,26.51,10.79,42.66,19.29,53.25,6.51,8.11,15,16.41,27.53,28.56,22.72,21.94,36.65,27.54,36.65,27.54s9.28,4.43,19.42,1.42c8.57-2.55,17.63-11.59,23.51-21.18,0,0,7.29-12.26,14.65-37.14,3.29-11.13,9.7-33.08,10.2-50.91.47-16.17-9.16-45.64-29.63-55.66C1001.16,1806.53,988.07,1818.74,983.14,1826Z" transform="translate(-899.23 -1802.64)"/><path class="cls-9" d="M988.12,1883.12c-1.37,2-2.65,5.64-8.2,3.69a9.18,9.18,0,0,0-7.18.31c-2.15,1-5.41,2.78-5.58,8.85a20.73,20.73,0,0,0,5.22,14.41,88.83,88.83,0,0,0,7.45,7.74c6.15,5.93,9.92,7.45,9.92,7.45a8,8,0,0,0,5.26.38c2.32-.69,4.77-3.13,6.36-5.73a48.76,48.76,0,0,0,4-10c.89-3,2.62-9,2.76-13.78.12-4.38-2.48-12.35-8-15.07C993,1877.85,989.45,1881.16,988.12,1883.12Z" transform="translate(-899.23 -1802.64)"/><path class="cls-9" d="M967.67,1901.3c1.86,2.3,7.37,8.4,11,11.84,6.52,6.21,10.53,7.78,10.53,7.78a8.63,8.63,0,0,0,5.59.38c2.47-.73,6-3.69,7.64-6.53s2.88-5.76,5-12.85" transform="translate(-899.23 -1802.64)"/></svg>