<svg id="Layer_1" data-name="Layer 1" xmlns="http://www.w3.org/2000/svg" viewBox="0 0 143.87 143.84"><defs><style>.cls-1{fill:#f7bdd6;}.cls-2{fill:#ec227d;}</style></defs><path class="cls-1" d="M1657,3473.88a71.92,71.92,0,1,1-71.91,72A71.87,71.87,0,0,1,1657,3473.88Zm-42.36,103.58c.25.17.49.36.75.52a51.58,51.58,0,0,0,38.82,5.83c25.27-5.8,38.77-28.88,39-49.13,0-2.43.5-4.17,2.61-5.48a14.83,14.83,0,0,0,2.59-2.43,28.64,28.64,0,0,0,1.92-2.19c.56-.71,1.07-1.47,1.65-2.27l-9.26,2.51c5-5.26,6.61-7.45,6.73-9.75-1.51.7-3,1.47-4.54,2.08s-3.28,1-4.91,1.6a2.41,2.41,0,0,1-2.73-.63,18,18,0,0,0-20.46-2.7,18.24,18.24,0,0,0-9.76,17.92c.07.72.18,1.44.29,2.32-15.17-1.07-27.44-7.41-37.18-18.74a15.84,15.84,0,0,0-2.56,9.27,18.47,18.47,0,0,0,7.63,14.51l-.26.42-7.56-2.12c.64,9.16,5.41,14.93,14,18h-7.62c3.06,7.78,8.56,11.82,16.86,12.67A38.57,38.57,0,0,1,1614.68,3577.46Z" transform="translate(-1585.13 -3473.88)"/><path class="cls-2" d="M1614.68,3577.46a38.57,38.57,0,0,0,26-7.79c-8.3-.85-13.8-4.89-16.86-12.67h7.62c-8.59-3.07-13.36-8.84-14-18l7.56,2.12.26-.42a18.47,18.47,0,0,1-7.63-14.51,15.84,15.84,0,0,1,2.56-9.27c9.74,11.33,22,17.67,37.18,18.74-.11-.88-.22-1.6-.29-2.32a18.24,18.24,0,0,1,9.76-17.92,18,18,0,0,1,20.46,2.7,2.41,2.41,0,0,0,2.73.63c1.63-.56,3.31-1,4.91-1.6s3-1.38,4.54-2.08c-.12,2.3-1.71,4.49-6.73,9.75l9.26-2.51c-.58.8-1.09,1.56-1.65,2.27a28.64,28.64,0,0,1-1.92,2.19,14.83,14.83,0,0,1-2.59,2.43c-2.11,1.31-2.58,3.05-2.61,5.48-.25,20.25-13.75,43.33-39,49.13a51.58,51.58,0,0,1-38.82-5.83C1615.17,3577.82,1614.93,3577.63,1614.68,3577.46Z" transform="translate(-1585.13 -3473.88)"/></svg>