<svg id="Layer_1" data-name="Layer 1" xmlns="http://www.w3.org/2000/svg" viewBox="0 0 183.27 185.29"><defs><style>.cls-1{fill:#ef932f;}.cls-2,.cls-5,.cls-8{fill:#fff;}.cls-2{opacity:0.25;}.cls-3{fill:#d6812e;}.cls-4{fill:#fde395;}.cls-5{opacity:0.3;}.cls-6{fill:#f05b59;}.cls-7{fill:#65cae3;}.cls-9{fill:none;stroke:#623334;stroke-linecap:round;stroke-linejoin:round;stroke-width:0.75px;}</style></defs><path class="cls-1" d="M1530.54,1811.19c-22.58-6.84-35.66,4.94-43.35,13-11.11,11.69-14,22.48-15.19,30.6-3.7,26.4-19.52,27.41-29.54,30.8-9.79,3.31-28.83,14.49-30,49.4-.89,27.29,23.26,48.47,39.54,53.38,18,5.42,43.13,5.34,55.92,5.25,28.57-.2,44.59-4.58,44.59-4.58,12.63-3.64,26.39-11.17,33.46-20.33a45,45,0,0,0,8.86-23.16s1.82-18.17-7.93-52.11c-5.4-18.8-9.17-31.45-13.77-41.79C1567.15,1838.18,1557.22,1819.28,1530.54,1811.19Zm-.44,89.41a90.14,90.14,0,0,1,3.73,11.31c2.64,9.19,2.15,14.11,2.15,14.11a13.32,13.32,0,0,1-2.66,5.37c-1.92,2.48-6.38,5.27-9.79,6.27a88.46,88.46,0,0,1-10,1.74,37.41,37.41,0,0,1-14.4-.87c-4.41-1.33-10.95-7.07-10.71-14.45.31-9.45,5.46-12.48,8.11-13.37s7-1.19,8-8.34a14.36,14.36,0,0,1,4.11-8.28c2.08-2.19,5.62-5.38,11.73-3.53C1527.58,1892.75,1528.48,1897,1530.1,1900.6Z" transform="translate(-1412.09 -1808.77)"/><path class="cls-2" d="M1431.21,1969.82c1.6,1.74,3.49,3.19,5.15,4.88a10.66,10.66,0,0,0,1.8,1.63,9,9,0,0,0,2.3.92,48.62,48.62,0,0,1,11.81,5.18c2.94,1.86,5.63,4.2,8.9,5.4a1.85,1.85,0,0,0,1.88-.06,1.56,1.56,0,0,0,.39-.64,6.21,6.21,0,0,0-3.25-7.72,28.16,28.16,0,0,0-3.67-.93,20.34,20.34,0,0,1-3.74-1.55l-7.34-3.63a18.54,18.54,0,0,1-4.68-2.93,31,31,0,0,1-3.63-4.93,8.37,8.37,0,0,0-4.72-3.7C1425.74,1960.3,1429.05,1967.46,1431.21,1969.82Z" transform="translate(-1412.09 -1808.77)"/><path class="cls-2" d="M1418.69,1930.36c.29,2.15.31,4.32.7,6.45.6,3.28,2,6.49,1.67,9.8-.08.69-.24,1.36-.31,2.05a8.76,8.76,0,0,0,.39,3.77,6.15,6.15,0,0,1,.44,1.6,1.48,1.48,0,0,1-.66,1.43c-.9.47-1.87-.49-2.37-1.38a17.4,17.4,0,0,1-2.11-9.74c.07-.92.21-1.83.2-2.74a29.81,29.81,0,0,0-1-5.36,26.88,26.88,0,0,1,.12-9.21c.18-1.18.45-2.88,1.64-1.24A11,11,0,0,1,1418.69,1930.36Z" transform="translate(-1412.09 -1808.77)"/><path class="cls-2" d="M1513,1812.72c-1.58.64-3,1.65-4.75,1.89a23.87,23.87,0,0,1-2.82.07c-3.45.07-6.24,4.77-8.28,7.14a2.92,2.92,0,0,0-.48.83,12,12,0,0,0-5.07,3.1c-1.6,1.73-2.9,3.73-4.45,5.51a10.59,10.59,0,0,0-1.49,1.93,9.65,9.65,0,0,0-.73,2.36,48.39,48.39,0,0,1-4.22,12.19c-1.63,3.07-3.74,6-4.68,9.3a1.87,1.87,0,0,0,.21,1.87,1.64,1.64,0,0,0,.67.34,6.22,6.22,0,0,0,7.44-3.86,27.4,27.4,0,0,0,.63-3.73,20.86,20.86,0,0,1,1.25-3.85c1-2.54,2-5.07,3-7.61a18.43,18.43,0,0,1,2.55-4.9,31.14,31.14,0,0,1,4.62-4,7.12,7.12,0,0,0,3.39-6.24l.31-.22c1-.64,2-4.33,3.3-4.31.72,0,1.47.13,2.19.15,3.47.08,5.87-2.1,8.79-3.22,1.9-.73,4-1,6-1.63,1.3-.41,3.09-1,3.82-2.16,1-1.66-.82-1.79-2.08-1.87C1518.93,1811.58,1515.71,1811.62,1513,1812.72Z" transform="translate(-1412.09 -1808.77)"/><path class="cls-3" d="M1451.91,1885.7c8.44,1.48,21.5-2,25.31-23.1,0,0-1.58-4.62-5,1.61-3.1,5.63-5.24,14.71-17.8,18.52C1454.42,1882.73,1447.27,1884.89,1451.91,1885.7Z" transform="translate(-1412.09 -1808.77)"/><path class="cls-4" d="M1533.25,1819.74c-21-6.32-33.13,4.66-40.29,12.2-10.34,10.89-13.09,20.92-14.16,28.47-3.49,24.54-18.19,25.51-27.5,28.68-9.1,3.1-26.8,13.52-27.93,46-.88,25.36,21.5,45,36.61,49.53,16.67,5,40,4.88,51.91,4.77,26.54-.25,41.42-4.36,41.42-4.36,11.73-3.4,24.53-10.43,31.11-19a42,42,0,0,0,8.28-21.54s1.72-16.89-7.26-48.41c-5-17.45-8.45-29.2-12.7-38.81C1567.19,1844.75,1558,1827.2,1533.25,1819.74Zm1.06,83.94a83.28,83.28,0,0,1,3.44,10.5c2.43,8.53,2,13.1,2,13.1a11.39,11.39,0,0,1-2.24,5.83c-1.78,2.31-5.25,4.22-8.42,5.14a48,48,0,0,1-11.21,1.17c-3.22,0-9.54.07-14.06-1.28-4.08-1.23-10.14-6.55-9.91-13.41.31-8.78,5.1-11.61,7.56-12.44s6.5-1.12,7.45-7.77a13.34,13.34,0,0,1,3.83-7.7c1.94-2,5.23-5,10.9-3.31C1530.33,1895.53,1532.81,1900.28,1534.31,1903.68Z" transform="translate(-1412.09 -1808.77)"/><path class="cls-5" d="M1554.66,1848.17c-5-4.82-11.72-8-17.79-11.38a5,5,0,0,0-2.54-.64,13.18,13.18,0,0,0-2.65-1.09c-18.2-5.21-36.57,1.6-43.43,18.69-3.1,7.75-3.83,15.77-4.38,24.21-.11,1.69-.07,4.27-.8,5.78-1,2-3,2.37-5,3-14.42,4.54-27.78,10.62-34.15,25.2a65.19,65.19,0,0,0-4.63,17c-.11.38-.2.76-.29,1.14a21.79,21.79,0,0,0-.31,6.13c-.07,3.65.5,7.87,2.7,11.1,3.6,9,10.05,16,18.36,21.1,17,10.48,37.33,15.3,57.32,14.41,20.6-.91,40.56-5.94,54.08-22.73,6.16-7.64,7-16.7,7.25-26.15.21-10.48.41-20.15-2.1-30.43-3.2-13-5.15-27-10.87-39.26C1562.66,1858.39,1559.38,1852.71,1554.66,1848.17Zm6.34,56.71c1,8.52,2,14.54,2.64,23.14.45,6.59-2.84,11-5.07,17.35-2.12,6.05-9.6,10-14.94,12.78-6.53,3.44-15,4.42-22.21,5-15,1.29-28.36,1.91-41.94-4.75-6.56-3.22-17.62-8.74-18.76-15.86-.29-1.81-1.56-8-1.12-10,1.18-5.44,4.38-7.66,7.65-12.15,6.53-8.93,18.35-8.28,27.29-13.3a25.2,25.2,0,0,0,11.92-14.68c1.62-5.06,1.49-10.61,2.82-15.76,1-3.93,2.11-8.22,4.28-11.71,3.36-5.37,6.82-8.6,10.34-10.52a16,16,0,0,1,17.39.85c9.44,7.14,11.48,17.63,13.15,22.12A116.1,116.1,0,0,1,1561,1904.88Z" transform="translate(-1412.09 -1808.77)"/><path class="cls-6" d="M1467.3,1913.18l-4.53,6.12a1.66,1.66,0,0,0,.34,2.32,1.68,1.68,0,0,0,.92.32,1.66,1.66,0,0,0,2-.53l4.54-6.12a1.66,1.66,0,0,0-.35-2.32,1.63,1.63,0,0,0-.91-.33A1.66,1.66,0,0,0,1467.3,1913.18Z" transform="translate(-1412.09 -1808.77)"/><path class="cls-6" d="M1549.91,1905.32a1.61,1.61,0,0,0-.42.87,1.68,1.68,0,0,0,.32,2l5.6,5.16a1.65,1.65,0,0,0,2.34-.1,1.52,1.52,0,0,0,.42-.87,1.65,1.65,0,0,0-.32-2l-5.6-5.17A1.67,1.67,0,0,0,1549.91,1905.32Z" transform="translate(-1412.09 -1808.77)"/><path class="cls-6" d="M1482.15,1965.9l-7.22,2.45a2,2,0,0,0,1.46,3.58l7.22-2.46a1.65,1.65,0,0,0,1-2.1,1.74,1.74,0,0,0-.56-.79A1.66,1.66,0,0,0,1482.15,1965.9Z" transform="translate(-1412.09 -1808.77)"/><path class="cls-6" d="M1535,1868.41l-7.21,2.45a1.67,1.67,0,0,0-1,2.11,1.61,1.61,0,0,0,.57.78,1.66,1.66,0,0,0,1.93.69l7.21-2.46a1.66,1.66,0,0,0,1-2.1,1.64,1.64,0,0,0-.57-.79A1.66,1.66,0,0,0,1535,1868.41Z" transform="translate(-1412.09 -1808.77)"/><path class="cls-6" d="M1514.1,1954.38a1.74,1.74,0,0,0,.26.93,1.67,1.67,0,0,0,1.58,1.31l7.62.19a1.68,1.68,0,0,0,1.7-1.62,2.54,2.54,0,0,0-1.84-2.24l-7.62-.19A1.68,1.68,0,0,0,1514.1,1954.38Z" transform="translate(-1412.09 -1808.77)"/><path class="cls-6" d="M1577,1941.33l-7.21,2.45a1.67,1.67,0,0,0-1,2.11,1.61,1.61,0,0,0,.57.78,1.66,1.66,0,0,0,1.93.69l7.21-2.45a1.67,1.67,0,0,0,1-2.11,1.61,1.61,0,0,0-.57-.78A1.66,1.66,0,0,0,1577,1941.33Z" transform="translate(-1412.09 -1808.77)"/><path class="cls-6" d="M1519.51,1838.91l-7.21,2.46a1.67,1.67,0,0,0-1,2.1,1.7,1.7,0,0,0,.57.79,1.66,1.66,0,0,0,1.93.68l7.21-2.45a1.66,1.66,0,0,0,1-2.11,1.61,1.61,0,0,0-.57-.78A1.66,1.66,0,0,0,1519.51,1838.91Z" transform="translate(-1412.09 -1808.77)"/><path class="cls-7" d="M1488,1885.6a1.67,1.67,0,0,0-1.61,1.72l.24,7.64a1.67,1.67,0,0,0,1.18,1.54,1.61,1.61,0,0,0,1.11.38,1.66,1.66,0,0,0,1.61-1.71l-.24-7.65a1.65,1.65,0,0,0-1.18-1.53A1.67,1.67,0,0,0,1488,1885.6Z" transform="translate(-1412.09 -1808.77)"/><path class="cls-7" d="M1537.34,1971.36l-7,3a1.65,1.65,0,0,0-1,1.66,1.65,1.65,0,0,0,2.23,2l7-3a1.66,1.66,0,0,0,1-1.66,1.63,1.63,0,0,0,0-1.17A1.67,1.67,0,0,0,1537.34,1971.36Z" transform="translate(-1412.09 -1808.77)"/><path class="cls-7" d="M1497.18,1958.65a1.68,1.68,0,0,0-1.63,1.7l.17,7.65a1.64,1.64,0,0,0,1.17,1.54,1.59,1.59,0,0,0,1.1.4,1.67,1.67,0,0,0,1.63-1.7l-.17-7.65a2.76,2.76,0,0,0-2.27-1.94Z" transform="translate(-1412.09 -1808.77)"/><path class="cls-7" d="M1466.3,1890.35l-6.72,3.63a1.67,1.67,0,0,0-.84,1.75,1.63,1.63,0,0,0,.15,1.16,1.65,1.65,0,0,0,2.25.67l6.73-3.63a1.67,1.67,0,0,0,.84-1.75,1.63,1.63,0,0,0-.15-1.16A1.67,1.67,0,0,0,1466.3,1890.35Z" transform="translate(-1412.09 -1808.77)"/><path class="cls-7" d="M1550.7,1838.88a1.67,1.67,0,0,0-1.63,1.7l.16,7.65a2,2,0,0,0,3.9.24l-.16-7.65a2.76,2.76,0,0,0-2.27-1.94Z" transform="translate(-1412.09 -1808.77)"/><path class="cls-7" d="M1440.05,1935.49a1.66,1.66,0,0,0-1.63,1.7l.16,7.64a1.68,1.68,0,0,0,1.17,1.55,1.65,1.65,0,0,0,1.1.4,1.67,1.67,0,0,0,1.63-1.7l-.16-7.65a1.68,1.68,0,0,0-1.17-1.55A1.65,1.65,0,0,0,1440.05,1935.49Z" transform="translate(-1412.09 -1808.77)"/><path class="cls-7" d="M1493.57,1851.35a1.64,1.64,0,0,0-.9.74,1.67,1.67,0,0,0,.63,2.27l6.66,3.75a1.66,1.66,0,0,0,1.93-.22,1.64,1.64,0,0,0,.9-.74,1.67,1.67,0,0,0-.63-2.27l-6.67-3.75A1.64,1.64,0,0,0,1493.57,1851.35Z" transform="translate(-1412.09 -1808.77)"/><path class="cls-8" d="M1483.26,1933.42a1.77,1.77,0,0,0-1.18,1.83l.78,8a2.08,2.08,0,0,0,4.05-.64l-.78-8.05a1.76,1.76,0,0,0-1.92-1.58A1.68,1.68,0,0,0,1483.26,1933.42Z" transform="translate(-1412.09 -1808.77)"/><path class="cls-8" d="M1515.47,1968l-6.67,5.68a1.91,1.91,0,0,0-.21,2.68,1.86,1.86,0,0,0,.94.6,1.9,1.9,0,0,0,2.35-.08l6.66-5.68a1.91,1.91,0,0,0,.22-2.69,1.86,1.86,0,0,0-.94-.6A1.91,1.91,0,0,0,1515.47,1968Z" transform="translate(-1412.09 -1808.77)"/><path class="cls-8" d="M1511.18,1867.35l-5.7,4.85a1.64,1.64,0,0,0-.18,2.3,1.58,1.58,0,0,0,.8.51,1.62,1.62,0,0,0,2-.07l5.7-4.85a1.64,1.64,0,0,0,.19-2.3,1.56,1.56,0,0,0-.81-.51A1.62,1.62,0,0,0,1511.18,1867.35Z" transform="translate(-1412.09 -1808.77)"/><path class="cls-8" d="M1554,1932.91l-5.7,4.85a1.64,1.64,0,0,0-.19,2.3,1.56,1.56,0,0,0,.81.51,1.64,1.64,0,0,0,2-.07l5.7-4.86a1.64,1.64,0,0,0,.18-2.3,1.72,1.72,0,0,0-.8-.51A1.63,1.63,0,0,0,1554,1932.91Z" transform="translate(-1412.09 -1808.77)"/><path class="cls-8" d="M1557.38,1951.48a1.68,1.68,0,0,0-.77.56,1.62,1.62,0,0,0-.67,1.89l2.41,7.09a1.64,1.64,0,0,0,2.84.47,1.65,1.65,0,0,0,.67-1.9l-2.41-7.09A1.64,1.64,0,0,0,1557.38,1951.48Z" transform="translate(-1412.09 -1808.77)"/><path class="cls-8" d="M1442.15,1913.09a2.53,2.53,0,0,0-1.45,2.46l2.41,7.09a1.64,1.64,0,0,0,2.07,1,1.55,1.55,0,0,0,.77-.55,1.65,1.65,0,0,0,.68-1.9l-2.41-7.09A1.64,1.64,0,0,0,1442.15,1913.09Z" transform="translate(-1412.09 -1808.77)"/><path class="cls-8" d="M1568.32,1884.34l-5.7,4.85a1.93,1.93,0,0,0,2.63,2.74l5.7-4.86a1.63,1.63,0,0,0,.19-2.3,1.72,1.72,0,0,0-.8-.51A1.64,1.64,0,0,0,1568.32,1884.34Z" transform="translate(-1412.09 -1808.77)"/><path class="cls-8" d="M1461.61,1943.48l-5.7,4.86a1.64,1.64,0,0,0-.19,2.3,1.7,1.7,0,0,0,.81.51,1.63,1.63,0,0,0,2-.08l5.7-4.85a1.64,1.64,0,0,0,.18-2.3,1.58,1.58,0,0,0-.8-.51A1.64,1.64,0,0,0,1461.61,1943.48Z" transform="translate(-1412.09 -1808.77)"/><path class="cls-8" d="M1547.79,1866.77a1.77,1.77,0,0,0-1.18,1.83l.78,8.05a2.08,2.08,0,0,0,4-.64l-.78-8a1.76,1.76,0,0,0-2.87-1.19Z" transform="translate(-1412.09 -1808.77)"/><path class="cls-8" d="M1531.88,1841.78a1.77,1.77,0,0,0-1.18,1.82l.78,8.06a1.78,1.78,0,0,0,1.93,1.58,1.73,1.73,0,0,0,.94-.39,1.77,1.77,0,0,0,1.18-1.83l-.77-8.06a1.78,1.78,0,0,0-1.93-1.58A1.8,1.8,0,0,0,1531.88,1841.78Z" transform="translate(-1412.09 -1808.77)"/><path class="cls-8" d="M1573.14,1906.52a1.77,1.77,0,0,0-1.18,1.83l.78,8.05a1.77,1.77,0,0,0,1.92,1.58,1.66,1.66,0,0,0,.95-.39,1.77,1.77,0,0,0,1.18-1.83l-.77-8a1.78,1.78,0,0,0-1.93-1.59A1.8,1.8,0,0,0,1573.14,1906.52Z" transform="translate(-1412.09 -1808.77)"/><path class="cls-9" d="M1476.83,1922.81c4.84,1.14,9.85,2.29,14.72,1.35" transform="translate(-1412.09 -1808.77)"/><path class="cls-9" d="M1477.63,1919.85a66.73,66.73,0,0,0,9.21,1.51,9.53,9.53,0,0,0,5.58-.68" transform="translate(-1412.09 -1808.77)"/><path class="cls-9" d="M1479.57,1916.4a85.42,85.42,0,0,0,12.74,2.8" transform="translate(-1412.09 -1808.77)"/><path class="cls-9" d="M1484,1913.63a24,24,0,0,0,9.54,3" transform="translate(-1412.09 -1808.77)"/><path class="cls-9" d="M1496.2,1914.66c-2.16-.94-4.48-1.47-6.7-2.25a13.13,13.13,0,0,1-5.91-3.72" transform="translate(-1412.09 -1808.77)"/><path class="cls-9" d="M1498.34,1913.61a49.33,49.33,0,0,1-9.4-8.62" transform="translate(-1412.09 -1808.77)"/><path class="cls-9" d="M1488.05,1928.66c1.65-.75,3.26-1.55,4.85-2.41" transform="translate(-1412.09 -1808.77)"/><path class="cls-9" d="M1488.84,1926.19a17.85,17.85,0,0,0,3.58-1.85" transform="translate(-1412.09 -1808.77)"/><path class="cls-9" d="M1502.27,1910.79c.14-.59-.33-1.14-.76-1.57l-9-8.89" transform="translate(-1412.09 -1808.77)"/><path class="cls-9" d="M1505.28,1910.51a65.66,65.66,0,0,0-7.93-9" transform="translate(-1412.09 -1808.77)"/><path class="cls-9" d="M1508.05,1907.68a50,50,0,0,0-9-8.65" transform="translate(-1412.09 -1808.77)"/><path class="cls-9" d="M1515,1895a54.52,54.52,0,0,0-12.37-8" transform="translate(-1412.09 -1808.77)"/><path class="cls-9" d="M1517.64,1892.71a86.1,86.1,0,0,0-13.13-8.2" transform="translate(-1412.09 -1808.77)"/><path class="cls-9" d="M1520.37,1891.44a56.74,56.74,0,0,1-6.95-7.17" transform="translate(-1412.09 -1808.77)"/><path class="cls-9" d="M1523.16,1891.36l-5.1-6.43" transform="translate(-1412.09 -1808.77)"/><path class="cls-9" d="M1525.43,1892.64a48.49,48.49,0,0,0-3.86-8.18" transform="translate(-1412.09 -1808.77)"/><path class="cls-9" d="M1529.11,1895.7q-1.74-5-3.47-10" transform="translate(-1412.09 -1808.77)"/><path class="cls-9" d="M1515,1881.89a16.9,16.9,0,0,1,6.07-.92" transform="translate(-1412.09 -1808.77)"/><path class="cls-9" d="M1515.19,1884.6a38,38,0,0,1,6.77-1.46" transform="translate(-1412.09 -1808.77)"/><path class="cls-9" d="M1512.36,1888.11a30.59,30.59,0,0,1,12.58-2.93" transform="translate(-1412.09 -1808.77)"/><path class="cls-9" d="M1510.31,1891.25a31.27,31.27,0,0,1,15.8-3.4" transform="translate(-1412.09 -1808.77)"/><path class="cls-9" d="M1508.32,1895.84a49.1,49.1,0,0,1,7-4.74" transform="translate(-1412.09 -1808.77)"/><path class="cls-9" d="M1499.66,1912.1l-.49.39a11.44,11.44,0,0,1,3.7-3.25" transform="translate(-1412.09 -1808.77)"/><path class="cls-9" d="M1493.59,1913.57c-.06.15-.3,0-.31-.11s.13-.27.25-.37l8.33-6.65" transform="translate(-1412.09 -1808.77)"/><path class="cls-9" d="M1489.44,1911.42a93.47,93.47,0,0,1,11.6-6.89" transform="translate(-1412.09 -1808.77)"/><path class="cls-9" d="M1487.55,1909l-.63.23,11.21-7.16" transform="translate(-1412.09 -1808.77)"/><path class="cls-9" d="M1489.34,1926.47a67.7,67.7,0,0,1,2.44-12.78" transform="translate(-1412.09 -1808.77)"/><path class="cls-9" d="M1486.37,1924.9a43.07,43.07,0,0,1,3.17-10.76" transform="translate(-1412.09 -1808.77)"/><path class="cls-9" d="M1482.83,1924.81c.1.07-.09.23-.19.15s-.08-.24-.05-.36a81.87,81.87,0,0,1,3.33-11.61" transform="translate(-1412.09 -1808.77)"/><path class="cls-9" d="M1477.42,1925.08c.89-2.49,1.79-5,2.68-7.46" transform="translate(-1412.09 -1808.77)"/><path class="cls-9" d="M1491.74,1931.37a5.52,5.52,0,0,1,2-2.94" transform="translate(-1412.09 -1808.77)"/><path class="cls-9" d="M1509.91,1900.12a44.17,44.17,0,0,0-10.67-5.1" transform="translate(-1412.09 -1808.77)"/><path class="cls-9" d="M1513.39,1896a33.58,33.58,0,0,0-9.36-4.3" transform="translate(-1412.09 -1808.77)"/><path class="cls-9" d="M1504.77,1907.34a58.35,58.35,0,0,1,4.85-9.8" transform="translate(-1412.09 -1808.77)"/><path class="cls-9" d="M1502,1904.86a58.3,58.3,0,0,1,4.84-9.8" transform="translate(-1412.09 -1808.77)"/><path class="cls-9" d="M1456.85,1983" transform="translate(-1412.09 -1808.77)"/><path class="cls-9" d="M1462.2,1976.52c-.18-.18-.27.3-.1.49a62.75,62.75,0,0,0,10,9.46" transform="translate(-1412.09 -1808.77)"/><path class="cls-9" d="M1456.2,1974.53A50,50,0,0,0,1465,1985" transform="translate(-1412.09 -1808.77)"/><path class="cls-9" d="M1453,1973.51a25,25,0,0,0,7.23,10.84" transform="translate(-1412.09 -1808.77)"/><path class="cls-9" d="M1446.7,1972.09a21.3,21.3,0,0,0,6.48,9" transform="translate(-1412.09 -1808.77)"/><path class="cls-9" d="M1470.36,1982.77a16.15,16.15,0,0,0,4.83,4.7" transform="translate(-1412.09 -1808.77)"/><path class="cls-9" d="M1474.24,1982.73a20.7,20.7,0,0,0,5.42,5.5" transform="translate(-1412.09 -1808.77)"/><path class="cls-9" d="M1478.21,1983.87a17,17,0,0,0,4.36,4.51" transform="translate(-1412.09 -1808.77)"/><path class="cls-9" d="M1481.07,1982.64a19.71,19.71,0,0,0,6.23,6.23" transform="translate(-1412.09 -1808.77)"/><path class="cls-9" d="M1484,1981.65a34.36,34.36,0,0,0,7.57,7.32" transform="translate(-1412.09 -1808.77)"/><path class="cls-9" d="M1488.32,1981.8a22.75,22.75,0,0,0,6.32,7.17" transform="translate(-1412.09 -1808.77)"/><path class="cls-9" d="M1491.47,1980.78a31.87,31.87,0,0,0,7.2,8.61" transform="translate(-1412.09 -1808.77)"/><path class="cls-9" d="M1495.68,1980.49a69.48,69.48,0,0,0,6.39,8.87" transform="translate(-1412.09 -1808.77)"/><path class="cls-9" d="M1498.63,1980.77a31.44,31.44,0,0,0,6.8,8.59" transform="translate(-1412.09 -1808.77)"/><path class="cls-9" d="M1503.46,1983.92a89.38,89.38,0,0,0,7,5.55" transform="translate(-1412.09 -1808.77)"/><path class="cls-9" d="M1510.54,1983.21a17.39,17.39,0,0,0,5.53,5.4" transform="translate(-1412.09 -1808.77)"/><path class="cls-9" d="M1511.37,1980.44s0-.11,0-.17a25,25,0,0,0,7.58,8.92" transform="translate(-1412.09 -1808.77)"/><path class="cls-9" d="M1515.51,1979.17a54.35,54.35,0,0,0,6.92,9.47" transform="translate(-1412.09 -1808.77)"/><path class="cls-9" d="M1519.8,1979.34a41,41,0,0,0,7.51,8.9" transform="translate(-1412.09 -1808.77)"/><path class="cls-9" d="M1523.28,1979.73a77.1,77.1,0,0,0,7.11,8.6" transform="translate(-1412.09 -1808.77)"/><path class="cls-9" d="M1527.32,1979.21a97.1,97.1,0,0,0,8.23,8.5" transform="translate(-1412.09 -1808.77)"/><path class="cls-9" d="M1445.83,1971.08a101.43,101.43,0,0,0,16.6,6.39" transform="translate(-1412.09 -1808.77)"/><path class="cls-9" d="M1446.29,1974.75c7.38,3.6,15.44,5.51,23.42,7.39" transform="translate(-1412.09 -1808.77)"/><path class="cls-9" d="M1448.5,1978.54a143.46,143.46,0,0,0,58.08,8.69" transform="translate(-1412.09 -1808.77)"/><path class="cls-9" d="M1475.59,1983.48a174.73,174.73,0,0,0,27,.48" transform="translate(-1412.09 -1808.77)"/><path class="cls-9" d="M1482,1981.75a83.74,83.74,0,0,0,20.73,1" transform="translate(-1412.09 -1808.77)"/><path class="cls-9" d="M1489.85,1980.22c3.37.38,6.74.62,10.12.74" transform="translate(-1412.09 -1808.77)"/><path class="cls-9" d="M1507.38,1987.56l7.06-.07c6.08,0,12.36-.14,18-2.56" transform="translate(-1412.09 -1808.77)"/><path class="cls-9" d="M1505.78,1985a95.56,95.56,0,0,0,26-2.11" transform="translate(-1412.09 -1808.77)"/><path class="cls-9" d="M1505.92,1982.42a115.5,115.5,0,0,0,21.35-1" transform="translate(-1412.09 -1808.77)"/><path class="cls-9" d="M1514.58,1979.92c3.86-.13,7.72-.42,11.55-.85" transform="translate(-1412.09 -1808.77)"/><path class="cls-9" d="M1535.08,1986a58.43,58.43,0,0,0,22.4-3.78" transform="translate(-1412.09 -1808.77)"/><path class="cls-9" d="M1536.66,1984.18c5.43-.07,11-.18,16-2.36,2-.89,3.91-2.11,6-2.62" transform="translate(-1412.09 -1808.77)"/><path class="cls-9" d="M1535.55,1982.86c3.44-.78,6.91-1.38,10.41-1.83" transform="translate(-1412.09 -1808.77)"/><path class="cls-9" d="M1534,1980.44l9.83-1.55" transform="translate(-1412.09 -1808.77)"/><path class="cls-9" d="M1539.08,1987.46a34.3,34.3,0,0,0-3.85-6.8" transform="translate(-1412.09 -1808.77)"/><path class="cls-9" d="M1540.74,1986.49l-2.59-6.55" transform="translate(-1412.09 -1808.77)"/><path class="cls-9" d="M1545.16,1986.61q-1.76-3.9-3.5-7.8" transform="translate(-1412.09 -1808.77)"/><path class="cls-9" d="M1548.46,1985.74a11.57,11.57,0,0,0-1.67-5.08" transform="translate(-1412.09 -1808.77)"/><path class="cls-9" d="M1552.14,1984.67a58.27,58.27,0,0,0-3.13-6.76" transform="translate(-1412.09 -1808.77)"/><path class="cls-9" d="M1555.67,1983.27a12.31,12.31,0,0,0-1.7-4.2" transform="translate(-1412.09 -1808.77)"/><path class="cls-9" d="M1558.43,1983.19a93.43,93.43,0,0,0-4-9.78" transform="translate(-1412.09 -1808.77)"/><path class="cls-9" d="M1559.66,1982.33l-4.47-10" transform="translate(-1412.09 -1808.77)"/><path class="cls-9" d="M1562.14,1981.47a36.19,36.19,0,0,0-5.58-10.61" transform="translate(-1412.09 -1808.77)"/><path class="cls-9" d="M1564.78,1980.61a74.14,74.14,0,0,0-3.36-9" transform="translate(-1412.09 -1808.77)"/><path class="cls-9" d="M1567.63,1978.81a96.64,96.64,0,0,0-4-8.93" transform="translate(-1412.09 -1808.77)"/><path class="cls-9" d="M1569.94,1977.58a62.17,62.17,0,0,0-3.07-6.88" transform="translate(-1412.09 -1808.77)"/><path class="cls-9" d="M1559.32,1981.58a90.83,90.83,0,0,0,12.24-7.45" transform="translate(-1412.09 -1808.77)"/><path class="cls-9" d="M1557.18,1979a48.28,48.28,0,0,0,16-8.57" transform="translate(-1412.09 -1808.77)"/><path class="cls-9" d="M1558.45,1975.68c6-2.63,12.19-5.38,16.76-10.08" transform="translate(-1412.09 -1808.77)"/><path class="cls-9" d="M1555.2,1844a59.48,59.48,0,0,1,13.15,6.39" transform="translate(-1412.09 -1808.77)"/><path class="cls-9" d="M1550.75,1838.86a48.22,48.22,0,0,1,13.82,4.63" transform="translate(-1412.09 -1808.77)"/><path class="cls-9" d="M1548.67,1835.87c4.86-.39,8.83.17,12.92,2.38" transform="translate(-1412.09 -1808.77)"/><path class="cls-9" d="M1545.23,1829.89a18.56,18.56,0,0,1,10.91,2.65" transform="translate(-1412.09 -1808.77)"/><path class="cls-9" d="M1563.86,1850.18a17.81,17.81,0,0,1,7,3.26" transform="translate(-1412.09 -1808.77)"/><path class="cls-9" d="M1565,1854.31a19.73,19.73,0,0,1,7.51,3.29" transform="translate(-1412.09 -1808.77)"/><path class="cls-9" d="M1567.45,1858a20.52,20.52,0,0,1,6.92,2.92" transform="translate(-1412.09 -1808.77)"/><path class="cls-9" d="M1567,1861.61a21.67,21.67,0,0,1,9.16,4.29" transform="translate(-1412.09 -1808.77)"/><path class="cls-9" d="M1566.86,1865.14a36.07,36.07,0,0,1,10.69,5" transform="translate(-1412.09 -1808.77)"/><path class="cls-9" d="M1568.36,1869.67a23.88,23.88,0,0,1,10.13,3.31" transform="translate(-1412.09 -1808.77)"/><path class="cls-9" d="M1568.25,1873.47c4.43.64,7.66,1.14,11.5,3.24" transform="translate(-1412.09 -1808.77)"/><path class="cls-9" d="M1569.23,1878.07A71.48,71.48,0,0,1,1581,1881" transform="translate(-1412.09 -1808.77)"/><path class="cls-9" d="M1570.44,1881.07a31.76,31.76,0,0,1,11.57,3.13" transform="translate(-1412.09 -1808.77)"/><path class="cls-9" d="M1575.27,1884.79a85,85,0,0,1,8.16,5" transform="translate(-1412.09 -1808.77)"/><path class="cls-9" d="M1576.69,1892.61a16.45,16.45,0,0,1,7.45,3.43" transform="translate(-1412.09 -1808.77)"/><path class="cls-9" d="M1574,1894.74l-.18.09a27.17,27.17,0,0,1,12.49,4.43" transform="translate(-1412.09 -1808.77)"/><path class="cls-9" d="M1573.93,1899.69a53.52,53.52,0,0,1,12.2,3.09" transform="translate(-1412.09 -1808.77)"/><path class="cls-9" d="M1575.43,1904.17a39.71,39.71,0,0,1,11.77,4" transform="translate(-1412.09 -1808.77)"/><path class="cls-9" d="M1576.92,1907.69a62.19,62.19,0,0,1,10.42,3.39" transform="translate(-1412.09 -1808.77)"/><path class="cls-9" d="M1577.6,1912.21a69.83,69.83,0,0,1,10.22,4.34" transform="translate(-1412.09 -1808.77)"/><path class="cls-9" d="M1581.48,1916.27a43.74,43.74,0,0,1,7.15,3.48" transform="translate(-1412.09 -1808.77)"/><path class="cls-9" d="M1543.89,1829.4a97,97,0,0,1,11.9,14.75" transform="translate(-1412.09 -1808.77)"/><path class="cls-9" d="M1547.94,1828.25c6.09,6.21,10.6,13.9,15.06,21.53" transform="translate(-1412.09 -1808.77)"/><path class="cls-9" d="M1554.26,1831c13,16.53,20.66,34.22,25.49,55.62" transform="translate(-1412.09 -1808.77)"/><path class="cls-9" d="M1566.23,1855.42a184.77,184.77,0,0,1,8.81,28.39" transform="translate(-1412.09 -1808.77)"/><path class="cls-9" d="M1566.36,1863a88.16,88.16,0,0,1,7.46,21.54" transform="translate(-1412.09 -1808.77)"/><path class="cls-9" d="M1567.15,1872c1.44,3.39,2.74,6.87,3.9,10.4" transform="translate(-1412.09 -1808.77)"/><path class="cls-9" d="M1580.35,1887.31l2.1,7.51c1.82,6.48,3.65,13.18,2.8,20.19" transform="translate(-1412.09 -1808.77)"/><path class="cls-9" d="M1577.14,1886.75a104.89,104.89,0,0,1,5.77,28.56" transform="translate(-1412.09 -1808.77)"/><path class="cls-9" d="M1574.44,1888.06a125.12,125.12,0,0,1,5.55,23.08" transform="translate(-1412.09 -1808.77)"/><path class="cls-9" d="M1574.45,1898.38c1,4.15,1.92,8.37,2.64,12.63" transform="translate(-1412.09 -1808.77)"/><path class="cls-9" d="M1587.16,1917.41a66.17,66.17,0,0,1,2.87,25.46" transform="translate(-1412.09 -1808.77)"/><path class="cls-9" d="M1585.76,1919.88c1.6,5.8,3.22,11.79,2.42,18.06-.33,2.53-1,5.09-.92,7.59" transform="translate(-1412.09 -1808.77)"/><path class="cls-9" d="M1584,1919.3q.35,6,1.26,11.86" transform="translate(-1412.09 -1808.77)"/><path class="cls-9" d="M1581,1918.76q.69,5.57,1.37,11.12" transform="translate(-1412.09 -1808.77)"/><path class="cls-9" d="M1590,1921a34.73,34.73,0,0,1-8.42-1" transform="translate(-1412.09 -1808.77)"/><path class="cls-9" d="M1589.48,1923.17l-7.77.2" transform="translate(-1412.09 -1808.77)"/><path class="cls-9" d="M1591,1927.81l-9.37-.22" transform="translate(-1412.09 -1808.77)"/><path class="cls-9" d="M1591.05,1931.7a12.48,12.48,0,0,1-5.91.51" transform="translate(-1412.09 -1808.77)"/><path class="cls-9" d="M1591.05,1936.08a59.74,59.74,0,0,1-8.15-.28" transform="translate(-1412.09 -1808.77)"/><path class="cls-9" d="M1590.64,1940.46a12.86,12.86,0,0,1-5,.08" transform="translate(-1412.09 -1808.77)"/><path class="cls-9" d="M1591.42,1943.42a96.48,96.48,0,0,1-11.65.13" transform="translate(-1412.09 -1808.77)"/><path class="cls-9" d="M1590.87,1945.11l-12-.26" transform="translate(-1412.09 -1808.77)"/><path class="cls-9" d="M1591.26,1948.18a40,40,0,0,1-13.54-1.2" transform="translate(-1412.09 -1808.77)"/><path class="cls-9" d="M1590.62,1951.31a79.2,79.2,0,0,1-10.64.5" transform="translate(-1412.09 -1808.77)"/><path class="cls-9" d="M1590.07,1955.16a104.76,104.76,0,0,1-11.22-.27" transform="translate(-1412.09 -1808.77)"/><path class="cls-9" d="M1589,1958.15a64.74,64.74,0,0,1-8.25-.17" transform="translate(-1412.09 -1808.77)"/><path class="cls-9" d="M1590,1945.09a116.14,116.14,0,0,1-4.16,16.34" transform="translate(-1412.09 -1808.77)"/><path class="cls-9" d="M1586.62,1944a61.43,61.43,0,0,1-4.18,20.87" transform="translate(-1412.09 -1808.77)"/><path class="cls-9" d="M1583.05,1960c-2.1,4.38-4.3,8.86-9.28,11.52" transform="translate(-1412.09 -1808.77)"/><path class="cls-9" d="M1530.54,1811.19c-22.58-6.84-35.66,4.94-43.35,13-11.11,11.69-14,22.48-15.19,30.6-1.19,8.49-3.63,14.35-6.73,18.51-6.54,8.78-16,10-22.81,12.29-9.79,3.31-28.83,14.49-30,49.4-.89,27.29,23.26,48.47,39.54,53.38,18,5.42,43.13,5.34,55.92,5.25,28.57-.2,44.59-4.58,44.59-4.58,12.63-3.64,26.39-11.17,33.46-20.33a45,45,0,0,0,8.86-23.16s1.82-18.17-7.93-52.11c-5.4-18.8-9.17-31.45-13.77-41.79C1567.15,1838.18,1557.22,1819.28,1530.54,1811.19Z" transform="translate(-1412.09 -1808.77)"/><path class="cls-9" d="M1451.3,1889.09c9.31-3.17,24-4.14,27.5-28.68,1.07-7.55,3.82-17.58,14.16-28.47,7.16-7.54,19.33-18.52,40.29-12.2,24.75,7.46,33.94,25,39.49,37.54,4.25,9.61,7.73,21.36,12.7,38.81,9,31.52,7.26,48.41,7.26,48.41a42,42,0,0,1-8.28,21.54c-6.58,8.53-19.38,15.56-31.11,19,0,0-14.88,4.11-41.42,4.36-11.87.11-35.24.23-51.91-4.77-15.11-4.53-37.49-24.17-36.61-49.53C1424.5,1902.62,1442.2,1892.19,1451.3,1889.09Z" transform="translate(-1412.09 -1808.77)"/><path class="cls-9" d="M1501.44,1912.29c2.53-.86,6.5-1.12,7.45-7.77a13.34,13.34,0,0,1,3.83-7.7c1.94-2,5.23-5,10.9-3.31,6.71,2,9.19,6.77,10.69,10.17a83.28,83.28,0,0,1,3.44,10.5c2.43,8.53,2,13.1,2,13.1a11.39,11.39,0,0,1-2.24,5.83c-1.78,2.31-5.25,4.22-8.42,5.14a48,48,0,0,1-11.21,1.17c-3.22,0-9.54.07-14.06-1.28-4.08-1.23-10.14-6.55-9.91-13.41C1494.19,1916,1499,1913.12,1501.44,1912.29Z" transform="translate(-1412.09 -1808.77)"/><path class="cls-9" d="M1528.35,1896a158,158,0,0,1,5.41,15.37c2.5,9,2,13.86,2,13.86a12.24,12.24,0,0,1-2.41,6.19,17.76,17.76,0,0,1-8.43,5.92,92.29,92.29,0,0,1-15.5,1.84" transform="translate(-1412.09 -1808.77)"/></svg>